%TF.GenerationSoftware,KiCad,Pcbnew,(6.0.8)*%
%TF.CreationDate,2022-12-29T22:24:49+02:00*%
%TF.ProjectId,mahjong_control_panel_small_with_service,6d61686a-6f6e-4675-9f63-6f6e74726f6c,rev?*%
%TF.SameCoordinates,Original*%
%TF.FileFunction,Legend,Top*%
%TF.FilePolarity,Positive*%
%FSLAX46Y46*%
G04 Gerber Fmt 4.6, Leading zero omitted, Abs format (unit mm)*
G04 Created by KiCad (PCBNEW (6.0.8)) date 2022-12-29 22:24:49*
%MOMM*%
%LPD*%
G01*
G04 APERTURE LIST*
%ADD10C,0.150000*%
%ADD11C,0.330000*%
%ADD12C,0.120000*%
G04 APERTURE END LIST*
D10*
X127916666Y-35952380D02*
X128535714Y-35952380D01*
X128202380Y-36333333D01*
X128345238Y-36333333D01*
X128440476Y-36380952D01*
X128488095Y-36428571D01*
X128535714Y-36523809D01*
X128535714Y-36761904D01*
X128488095Y-36857142D01*
X128440476Y-36904761D01*
X128345238Y-36952380D01*
X128059523Y-36952380D01*
X127964285Y-36904761D01*
X127916666Y-36857142D01*
X70339285Y-36803571D02*
X70446428Y-36839285D01*
X70625000Y-36839285D01*
X70696428Y-36803571D01*
X70732142Y-36767857D01*
X70767857Y-36696428D01*
X70767857Y-36625000D01*
X70732142Y-36553571D01*
X70696428Y-36517857D01*
X70625000Y-36482142D01*
X70482142Y-36446428D01*
X70410714Y-36410714D01*
X70375000Y-36375000D01*
X70339285Y-36303571D01*
X70339285Y-36232142D01*
X70375000Y-36160714D01*
X70410714Y-36125000D01*
X70482142Y-36089285D01*
X70660714Y-36089285D01*
X70767857Y-36125000D01*
X71517857Y-36839285D02*
X71267857Y-36482142D01*
X71089285Y-36839285D02*
X71089285Y-36089285D01*
X71375000Y-36089285D01*
X71446428Y-36125000D01*
X71482142Y-36160714D01*
X71517857Y-36232142D01*
X71517857Y-36339285D01*
X71482142Y-36410714D01*
X71446428Y-36446428D01*
X71375000Y-36482142D01*
X71089285Y-36482142D01*
X71732142Y-36089285D02*
X71982142Y-36839285D01*
X72232142Y-36089285D01*
X123535714Y-36952380D02*
X122964285Y-36952380D01*
X123250000Y-36952380D02*
X123250000Y-35952380D01*
X123154761Y-36095238D01*
X123059523Y-36190476D01*
X122964285Y-36238095D01*
X125464285Y-36047619D02*
X125511904Y-36000000D01*
X125607142Y-35952380D01*
X125845238Y-35952380D01*
X125940476Y-36000000D01*
X125988095Y-36047619D01*
X126035714Y-36142857D01*
X126035714Y-36238095D01*
X125988095Y-36380952D01*
X125416666Y-36952380D01*
X126035714Y-36952380D01*
X95488095Y-35952380D02*
X95011904Y-35952380D01*
X94964285Y-36428571D01*
X95011904Y-36380952D01*
X95107142Y-36333333D01*
X95345238Y-36333333D01*
X95440476Y-36380952D01*
X95488095Y-36428571D01*
X95535714Y-36523809D01*
X95535714Y-36761904D01*
X95488095Y-36857142D01*
X95440476Y-36904761D01*
X95345238Y-36952380D01*
X95107142Y-36952380D01*
X95011904Y-36904761D01*
X94964285Y-36857142D01*
X131190476Y-36285714D02*
X131190476Y-36952380D01*
X130952380Y-35904761D02*
X130714285Y-36619047D01*
X131333333Y-36619047D01*
X67892857Y-36089285D02*
X68321428Y-36089285D01*
X68107142Y-36839285D02*
X68107142Y-36089285D01*
X68535714Y-36803571D02*
X68642857Y-36839285D01*
X68821428Y-36839285D01*
X68892857Y-36803571D01*
X68928571Y-36767857D01*
X68964285Y-36696428D01*
X68964285Y-36625000D01*
X68928571Y-36553571D01*
X68892857Y-36517857D01*
X68821428Y-36482142D01*
X68678571Y-36446428D01*
X68607142Y-36410714D01*
X68571428Y-36375000D01*
X68535714Y-36303571D01*
X68535714Y-36232142D01*
X68571428Y-36160714D01*
X68607142Y-36125000D01*
X68678571Y-36089285D01*
X68857142Y-36089285D01*
X68964285Y-36125000D01*
X69178571Y-36089285D02*
X69607142Y-36089285D01*
X69392857Y-36839285D02*
X69392857Y-36089285D01*
X73178571Y-36125000D02*
X73107142Y-36089285D01*
X73000000Y-36089285D01*
X72892857Y-36125000D01*
X72821428Y-36196428D01*
X72785714Y-36267857D01*
X72750000Y-36410714D01*
X72750000Y-36517857D01*
X72785714Y-36660714D01*
X72821428Y-36732142D01*
X72892857Y-36803571D01*
X73000000Y-36839285D01*
X73071428Y-36839285D01*
X73178571Y-36803571D01*
X73214285Y-36767857D01*
X73214285Y-36517857D01*
X73071428Y-36517857D01*
X73535714Y-36839285D02*
X73535714Y-36089285D01*
X73964285Y-36839285D01*
X73964285Y-36089285D01*
X74321428Y-36839285D02*
X74321428Y-36089285D01*
X74500000Y-36089285D01*
X74607142Y-36125000D01*
X74678571Y-36196428D01*
X74714285Y-36267857D01*
X74750000Y-36410714D01*
X74750000Y-36517857D01*
X74714285Y-36660714D01*
X74678571Y-36732142D01*
X74607142Y-36803571D01*
X74500000Y-36839285D01*
X74321428Y-36839285D01*
X120702380Y-35952380D02*
X120797619Y-35952380D01*
X120892857Y-36000000D01*
X120940476Y-36047619D01*
X120988095Y-36142857D01*
X121035714Y-36333333D01*
X121035714Y-36571428D01*
X120988095Y-36761904D01*
X120940476Y-36857142D01*
X120892857Y-36904761D01*
X120797619Y-36952380D01*
X120702380Y-36952380D01*
X120607142Y-36904761D01*
X120559523Y-36857142D01*
X120511904Y-36761904D01*
X120464285Y-36571428D01*
X120464285Y-36333333D01*
X120511904Y-36142857D01*
X120559523Y-36047619D01*
X120607142Y-36000000D01*
X120702380Y-35952380D01*
X89916666Y-35952380D02*
X90535714Y-35952380D01*
X90202380Y-36333333D01*
X90345238Y-36333333D01*
X90440476Y-36380952D01*
X90488095Y-36428571D01*
X90535714Y-36523809D01*
X90535714Y-36761904D01*
X90488095Y-36857142D01*
X90440476Y-36904761D01*
X90345238Y-36952380D01*
X90059523Y-36952380D01*
X89964285Y-36904761D01*
X89916666Y-36857142D01*
X65517857Y-36767857D02*
X65482142Y-36803571D01*
X65375000Y-36839285D01*
X65303571Y-36839285D01*
X65196428Y-36803571D01*
X65125000Y-36732142D01*
X65089285Y-36660714D01*
X65053571Y-36517857D01*
X65053571Y-36410714D01*
X65089285Y-36267857D01*
X65125000Y-36196428D01*
X65196428Y-36125000D01*
X65303571Y-36089285D01*
X65375000Y-36089285D01*
X65482142Y-36125000D01*
X65517857Y-36160714D01*
X65982142Y-36089285D02*
X66125000Y-36089285D01*
X66196428Y-36125000D01*
X66267857Y-36196428D01*
X66303571Y-36339285D01*
X66303571Y-36589285D01*
X66267857Y-36732142D01*
X66196428Y-36803571D01*
X66125000Y-36839285D01*
X65982142Y-36839285D01*
X65910714Y-36803571D01*
X65839285Y-36732142D01*
X65803571Y-36589285D01*
X65803571Y-36339285D01*
X65839285Y-36196428D01*
X65910714Y-36125000D01*
X65982142Y-36089285D01*
X66625000Y-36839285D02*
X66625000Y-36089285D01*
X66982142Y-36839285D02*
X66982142Y-36089285D01*
X67410714Y-36839285D01*
X67410714Y-36089285D01*
X82702380Y-35952380D02*
X82797619Y-35952380D01*
X82892857Y-36000000D01*
X82940476Y-36047619D01*
X82988095Y-36142857D01*
X83035714Y-36333333D01*
X83035714Y-36571428D01*
X82988095Y-36761904D01*
X82940476Y-36857142D01*
X82892857Y-36904761D01*
X82797619Y-36952380D01*
X82702380Y-36952380D01*
X82607142Y-36904761D01*
X82559523Y-36857142D01*
X82511904Y-36761904D01*
X82464285Y-36571428D01*
X82464285Y-36333333D01*
X82511904Y-36142857D01*
X82559523Y-36047619D01*
X82607142Y-36000000D01*
X82702380Y-35952380D01*
X92940476Y-36285714D02*
X92940476Y-36952380D01*
X92702380Y-35904761D02*
X92464285Y-36619047D01*
X93083333Y-36619047D01*
X87464285Y-36047619D02*
X87511904Y-36000000D01*
X87607142Y-35952380D01*
X87845238Y-35952380D01*
X87940476Y-36000000D01*
X87988095Y-36047619D01*
X88035714Y-36142857D01*
X88035714Y-36238095D01*
X87988095Y-36380952D01*
X87416666Y-36952380D01*
X88035714Y-36952380D01*
X85535714Y-36952380D02*
X84964285Y-36952380D01*
X85250000Y-36952380D02*
X85250000Y-35952380D01*
X85154761Y-36095238D01*
X85059523Y-36190476D01*
X84964285Y-36238095D01*
D11*
%TO.C,LAST*%
X119047619Y-67904761D02*
X118095238Y-67904761D01*
X118095238Y-65904761D01*
X119619047Y-67333333D02*
X120571428Y-67333333D01*
X119428571Y-67904761D02*
X120095238Y-65904761D01*
X120761904Y-67904761D01*
X121333333Y-67809523D02*
X121619047Y-67904761D01*
X122095238Y-67904761D01*
X122285714Y-67809523D01*
X122380952Y-67714285D01*
X122476190Y-67523809D01*
X122476190Y-67333333D01*
X122380952Y-67142857D01*
X122285714Y-67047619D01*
X122095238Y-66952380D01*
X121714285Y-66857142D01*
X121523809Y-66761904D01*
X121428571Y-66666666D01*
X121333333Y-66476190D01*
X121333333Y-66285714D01*
X121428571Y-66095238D01*
X121523809Y-66000000D01*
X121714285Y-65904761D01*
X122190476Y-65904761D01*
X122476190Y-66000000D01*
X123047619Y-65904761D02*
X124190476Y-65904761D01*
X123619047Y-67904761D02*
X123619047Y-65904761D01*
%TO.C,G*%
X102523809Y-52000000D02*
X102333333Y-51904761D01*
X102047619Y-51904761D01*
X101761904Y-52000000D01*
X101571428Y-52190476D01*
X101476190Y-52380952D01*
X101380952Y-52761904D01*
X101380952Y-53047619D01*
X101476190Y-53428571D01*
X101571428Y-53619047D01*
X101761904Y-53809523D01*
X102047619Y-53904761D01*
X102238095Y-53904761D01*
X102523809Y-53809523D01*
X102619047Y-53714285D01*
X102619047Y-53047619D01*
X102238095Y-53047619D01*
%TO.C,WUP*%
X78095238Y-65904761D02*
X78571428Y-67904761D01*
X78952380Y-66476190D01*
X79333333Y-67904761D01*
X79809523Y-65904761D01*
X80571428Y-65904761D02*
X80571428Y-67523809D01*
X80666666Y-67714285D01*
X80761904Y-67809523D01*
X80952380Y-67904761D01*
X81333333Y-67904761D01*
X81523809Y-67809523D01*
X81619047Y-67714285D01*
X81714285Y-67523809D01*
X81714285Y-65904761D01*
X82666666Y-67904761D02*
X82666666Y-65904761D01*
X83428571Y-65904761D01*
X83619047Y-66000000D01*
X83714285Y-66095238D01*
X83809523Y-66285714D01*
X83809523Y-66571428D01*
X83714285Y-66761904D01*
X83619047Y-66857142D01*
X83428571Y-66952380D01*
X82666666Y-66952380D01*
%TO.C,RON*%
X184523809Y-67904761D02*
X183857142Y-66952380D01*
X183380952Y-67904761D02*
X183380952Y-65904761D01*
X184142857Y-65904761D01*
X184333333Y-66000000D01*
X184428571Y-66095238D01*
X184523809Y-66285714D01*
X184523809Y-66571428D01*
X184428571Y-66761904D01*
X184333333Y-66857142D01*
X184142857Y-66952380D01*
X183380952Y-66952380D01*
X185761904Y-65904761D02*
X186142857Y-65904761D01*
X186333333Y-66000000D01*
X186523809Y-66190476D01*
X186619047Y-66571428D01*
X186619047Y-67238095D01*
X186523809Y-67619047D01*
X186333333Y-67809523D01*
X186142857Y-67904761D01*
X185761904Y-67904761D01*
X185571428Y-67809523D01*
X185380952Y-67619047D01*
X185285714Y-67238095D01*
X185285714Y-66571428D01*
X185380952Y-66190476D01*
X185571428Y-66000000D01*
X185761904Y-65904761D01*
X187476190Y-67904761D02*
X187476190Y-65904761D01*
X188619047Y-67904761D01*
X188619047Y-65904761D01*
%TO.C,A*%
X29523809Y-53333333D02*
X30476190Y-53333333D01*
X29333333Y-53904761D02*
X30000000Y-51904761D01*
X30666666Y-53904761D01*
%TO.C,BIG*%
X91666666Y-66857142D02*
X91952380Y-66952380D01*
X92047619Y-67047619D01*
X92142857Y-67238095D01*
X92142857Y-67523809D01*
X92047619Y-67714285D01*
X91952380Y-67809523D01*
X91761904Y-67904761D01*
X91000000Y-67904761D01*
X91000000Y-65904761D01*
X91666666Y-65904761D01*
X91857142Y-66000000D01*
X91952380Y-66095238D01*
X92047619Y-66285714D01*
X92047619Y-66476190D01*
X91952380Y-66666666D01*
X91857142Y-66761904D01*
X91666666Y-66857142D01*
X91000000Y-66857142D01*
X93000000Y-67904761D02*
X93000000Y-65904761D01*
X95000000Y-66000000D02*
X94809523Y-65904761D01*
X94523809Y-65904761D01*
X94238095Y-66000000D01*
X94047619Y-66190476D01*
X93952380Y-66380952D01*
X93857142Y-66761904D01*
X93857142Y-67047619D01*
X93952380Y-67428571D01*
X94047619Y-67619047D01*
X94238095Y-67809523D01*
X94523809Y-67904761D01*
X94714285Y-67904761D01*
X95000000Y-67809523D01*
X95095238Y-67714285D01*
X95095238Y-67047619D01*
X94714285Y-67047619D01*
%TO.C,H*%
X113428571Y-53904761D02*
X113428571Y-51904761D01*
X113428571Y-52857142D02*
X114571428Y-52857142D01*
X114571428Y-53904761D02*
X114571428Y-51904761D01*
%TO.C,F.F.*%
X28476190Y-66857142D02*
X27809523Y-66857142D01*
X27809523Y-67904761D02*
X27809523Y-65904761D01*
X28761904Y-65904761D01*
X29523809Y-67714285D02*
X29619047Y-67809523D01*
X29523809Y-67904761D01*
X29428571Y-67809523D01*
X29523809Y-67714285D01*
X29523809Y-67904761D01*
X31142857Y-66857142D02*
X30476190Y-66857142D01*
X30476190Y-67904761D02*
X30476190Y-65904761D01*
X31428571Y-65904761D01*
X32190476Y-67714285D02*
X32285714Y-67809523D01*
X32190476Y-67904761D01*
X32095238Y-67809523D01*
X32190476Y-67714285D01*
X32190476Y-67904761D01*
D10*
%TO.C,J_3*%
X69285714Y-27377380D02*
X69285714Y-28091666D01*
X69238095Y-28234523D01*
X69142857Y-28329761D01*
X69000000Y-28377380D01*
X68904761Y-28377380D01*
X69523809Y-28472619D02*
X70285714Y-28472619D01*
X70428571Y-27377380D02*
X71047619Y-27377380D01*
X70714285Y-27758333D01*
X70857142Y-27758333D01*
X70952380Y-27805952D01*
X71000000Y-27853571D01*
X71047619Y-27948809D01*
X71047619Y-28186904D01*
X71000000Y-28282142D01*
X70952380Y-28329761D01*
X70857142Y-28377380D01*
X70571428Y-28377380D01*
X70476190Y-28329761D01*
X70428571Y-28282142D01*
D11*
%TO.C,M*%
X173333333Y-53904761D02*
X173333333Y-51904761D01*
X174000000Y-53333333D01*
X174666666Y-51904761D01*
X174666666Y-53904761D01*
%TO.C,TEST*%
X162809523Y-36654761D02*
X163952380Y-36654761D01*
X163380952Y-38654761D02*
X163380952Y-36654761D01*
X164619047Y-37607142D02*
X165285714Y-37607142D01*
X165571428Y-38654761D02*
X164619047Y-38654761D01*
X164619047Y-36654761D01*
X165571428Y-36654761D01*
X166333333Y-38559523D02*
X166619047Y-38654761D01*
X167095238Y-38654761D01*
X167285714Y-38559523D01*
X167380952Y-38464285D01*
X167476190Y-38273809D01*
X167476190Y-38083333D01*
X167380952Y-37892857D01*
X167285714Y-37797619D01*
X167095238Y-37702380D01*
X166714285Y-37607142D01*
X166523809Y-37511904D01*
X166428571Y-37416666D01*
X166333333Y-37226190D01*
X166333333Y-37035714D01*
X166428571Y-36845238D01*
X166523809Y-36750000D01*
X166714285Y-36654761D01*
X167190476Y-36654761D01*
X167476190Y-36750000D01*
X168047619Y-36654761D02*
X169190476Y-36654761D01*
X168619047Y-38654761D02*
X168619047Y-36654761D01*
%TO.C,SERVICE*%
X172285714Y-38559523D02*
X172571428Y-38654761D01*
X173047619Y-38654761D01*
X173238095Y-38559523D01*
X173333333Y-38464285D01*
X173428571Y-38273809D01*
X173428571Y-38083333D01*
X173333333Y-37892857D01*
X173238095Y-37797619D01*
X173047619Y-37702380D01*
X172666666Y-37607142D01*
X172476190Y-37511904D01*
X172380952Y-37416666D01*
X172285714Y-37226190D01*
X172285714Y-37035714D01*
X172380952Y-36845238D01*
X172476190Y-36750000D01*
X172666666Y-36654761D01*
X173142857Y-36654761D01*
X173428571Y-36750000D01*
X174285714Y-37607142D02*
X174952380Y-37607142D01*
X175238095Y-38654761D02*
X174285714Y-38654761D01*
X174285714Y-36654761D01*
X175238095Y-36654761D01*
X177238095Y-38654761D02*
X176571428Y-37702380D01*
X176095238Y-38654761D02*
X176095238Y-36654761D01*
X176857142Y-36654761D01*
X177047619Y-36750000D01*
X177142857Y-36845238D01*
X177238095Y-37035714D01*
X177238095Y-37321428D01*
X177142857Y-37511904D01*
X177047619Y-37607142D01*
X176857142Y-37702380D01*
X176095238Y-37702380D01*
X177809523Y-36654761D02*
X178476190Y-38654761D01*
X179142857Y-36654761D01*
X179809523Y-38654761D02*
X179809523Y-36654761D01*
X181904761Y-38464285D02*
X181809523Y-38559523D01*
X181523809Y-38654761D01*
X181333333Y-38654761D01*
X181047619Y-38559523D01*
X180857142Y-38369047D01*
X180761904Y-38178571D01*
X180666666Y-37797619D01*
X180666666Y-37511904D01*
X180761904Y-37130952D01*
X180857142Y-36940476D01*
X181047619Y-36750000D01*
X181333333Y-36654761D01*
X181523809Y-36654761D01*
X181809523Y-36750000D01*
X181904761Y-36845238D01*
X182761904Y-37607142D02*
X183428571Y-37607142D01*
X183714285Y-38654761D02*
X182761904Y-38654761D01*
X182761904Y-36654761D01*
X183714285Y-36654761D01*
%TO.C,CHI*%
X157095238Y-67714285D02*
X157000000Y-67809523D01*
X156714285Y-67904761D01*
X156523809Y-67904761D01*
X156238095Y-67809523D01*
X156047619Y-67619047D01*
X155952380Y-67428571D01*
X155857142Y-67047619D01*
X155857142Y-66761904D01*
X155952380Y-66380952D01*
X156047619Y-66190476D01*
X156238095Y-66000000D01*
X156523809Y-65904761D01*
X156714285Y-65904761D01*
X157000000Y-66000000D01*
X157095238Y-66095238D01*
X157952380Y-67904761D02*
X157952380Y-65904761D01*
X157952380Y-66857142D02*
X159095238Y-66857142D01*
X159095238Y-67904761D02*
X159095238Y-65904761D01*
X160047619Y-67904761D02*
X160047619Y-65904761D01*
%TO.C,D*%
X65476190Y-53904761D02*
X65476190Y-51904761D01*
X65952380Y-51904761D01*
X66238095Y-52000000D01*
X66428571Y-52190476D01*
X66523809Y-52380952D01*
X66619047Y-52761904D01*
X66619047Y-53047619D01*
X66523809Y-53428571D01*
X66428571Y-53619047D01*
X66238095Y-53809523D01*
X65952380Y-53904761D01*
X65476190Y-53904761D01*
%TO.C,K*%
X149476190Y-53904761D02*
X149476190Y-51904761D01*
X150619047Y-53904761D02*
X149761904Y-52761904D01*
X150619047Y-51904761D02*
X149476190Y-53047619D01*
%TO.C,B*%
X42142857Y-52857142D02*
X42428571Y-52952380D01*
X42523809Y-53047619D01*
X42619047Y-53238095D01*
X42619047Y-53523809D01*
X42523809Y-53714285D01*
X42428571Y-53809523D01*
X42238095Y-53904761D01*
X41476190Y-53904761D01*
X41476190Y-51904761D01*
X42142857Y-51904761D01*
X42333333Y-52000000D01*
X42428571Y-52095238D01*
X42523809Y-52285714D01*
X42523809Y-52476190D01*
X42428571Y-52666666D01*
X42333333Y-52761904D01*
X42142857Y-52857142D01*
X41476190Y-52857142D01*
%TO.C,N*%
X185428571Y-53904761D02*
X185428571Y-51904761D01*
X186571428Y-53904761D01*
X186571428Y-51904761D01*
%TO.C,SMALL*%
X100809523Y-67809523D02*
X101095238Y-67904761D01*
X101571428Y-67904761D01*
X101761904Y-67809523D01*
X101857142Y-67714285D01*
X101952380Y-67523809D01*
X101952380Y-67333333D01*
X101857142Y-67142857D01*
X101761904Y-67047619D01*
X101571428Y-66952380D01*
X101190476Y-66857142D01*
X101000000Y-66761904D01*
X100904761Y-66666666D01*
X100809523Y-66476190D01*
X100809523Y-66285714D01*
X100904761Y-66095238D01*
X101000000Y-66000000D01*
X101190476Y-65904761D01*
X101666666Y-65904761D01*
X101952380Y-66000000D01*
X102809523Y-67904761D02*
X102809523Y-65904761D01*
X103476190Y-67333333D01*
X104142857Y-65904761D01*
X104142857Y-67904761D01*
X105000000Y-67333333D02*
X105952380Y-67333333D01*
X104809523Y-67904761D02*
X105476190Y-65904761D01*
X106142857Y-67904761D01*
X107761904Y-67904761D02*
X106809523Y-67904761D01*
X106809523Y-65904761D01*
X109380952Y-67904761D02*
X108428571Y-67904761D01*
X108428571Y-65904761D01*
%TO.C,START*%
X38047619Y-67809523D02*
X38333333Y-67904761D01*
X38809523Y-67904761D01*
X39000000Y-67809523D01*
X39095238Y-67714285D01*
X39190476Y-67523809D01*
X39190476Y-67333333D01*
X39095238Y-67142857D01*
X39000000Y-67047619D01*
X38809523Y-66952380D01*
X38428571Y-66857142D01*
X38238095Y-66761904D01*
X38142857Y-66666666D01*
X38047619Y-66476190D01*
X38047619Y-66285714D01*
X38142857Y-66095238D01*
X38238095Y-66000000D01*
X38428571Y-65904761D01*
X38904761Y-65904761D01*
X39190476Y-66000000D01*
X39761904Y-65904761D02*
X40904761Y-65904761D01*
X40333333Y-67904761D02*
X40333333Y-65904761D01*
X41476190Y-67333333D02*
X42428571Y-67333333D01*
X41285714Y-67904761D02*
X41952380Y-65904761D01*
X42619047Y-67904761D01*
X44428571Y-67904761D02*
X43761904Y-66952380D01*
X43285714Y-67904761D02*
X43285714Y-65904761D01*
X44047619Y-65904761D01*
X44238095Y-66000000D01*
X44333333Y-66095238D01*
X44428571Y-66285714D01*
X44428571Y-66571428D01*
X44333333Y-66761904D01*
X44238095Y-66857142D01*
X44047619Y-66952380D01*
X43285714Y-66952380D01*
X45000000Y-65904761D02*
X46142857Y-65904761D01*
X45571428Y-67904761D02*
X45571428Y-65904761D01*
%TO.C,PON*%
X143380952Y-67904761D02*
X143380952Y-65904761D01*
X144142857Y-65904761D01*
X144333333Y-66000000D01*
X144428571Y-66095238D01*
X144523809Y-66285714D01*
X144523809Y-66571428D01*
X144428571Y-66761904D01*
X144333333Y-66857142D01*
X144142857Y-66952380D01*
X143380952Y-66952380D01*
X145761904Y-65904761D02*
X146142857Y-65904761D01*
X146333333Y-66000000D01*
X146523809Y-66190476D01*
X146619047Y-66571428D01*
X146619047Y-67238095D01*
X146523809Y-67619047D01*
X146333333Y-67809523D01*
X146142857Y-67904761D01*
X145761904Y-67904761D01*
X145571428Y-67809523D01*
X145380952Y-67619047D01*
X145285714Y-67238095D01*
X145285714Y-66571428D01*
X145380952Y-66190476D01*
X145571428Y-66000000D01*
X145761904Y-65904761D01*
X147476190Y-67904761D02*
X147476190Y-65904761D01*
X148619047Y-67904761D01*
X148619047Y-65904761D01*
D10*
%TO.C,KEY*%
X87857142Y-28377380D02*
X87857142Y-27377380D01*
X88428571Y-28377380D02*
X88000000Y-27805952D01*
X88428571Y-27377380D02*
X87857142Y-27948809D01*
X88857142Y-27853571D02*
X89190476Y-27853571D01*
X89333333Y-28377380D02*
X88857142Y-28377380D01*
X88857142Y-27377380D01*
X89333333Y-27377380D01*
X89952380Y-27901190D02*
X89952380Y-28377380D01*
X89619047Y-27377380D02*
X89952380Y-27901190D01*
X90285714Y-27377380D01*
D11*
%TO.C,TAKE*%
X65666666Y-65904761D02*
X66809523Y-65904761D01*
X66238095Y-67904761D02*
X66238095Y-65904761D01*
X67380952Y-67333333D02*
X68333333Y-67333333D01*
X67190476Y-67904761D02*
X67857142Y-65904761D01*
X68523809Y-67904761D01*
X69190476Y-67904761D02*
X69190476Y-65904761D01*
X70333333Y-67904761D02*
X69476190Y-66761904D01*
X70333333Y-65904761D02*
X69190476Y-67047619D01*
X71190476Y-66857142D02*
X71857142Y-66857142D01*
X72142857Y-67904761D02*
X71190476Y-67904761D01*
X71190476Y-65904761D01*
X72142857Y-65904761D01*
%TO.C,I*%
X126000000Y-53904761D02*
X126000000Y-51904761D01*
%TO.C,COIN*%
X34047619Y-38214285D02*
X33952380Y-38309523D01*
X33666666Y-38404761D01*
X33476190Y-38404761D01*
X33190476Y-38309523D01*
X33000000Y-38119047D01*
X32904761Y-37928571D01*
X32809523Y-37547619D01*
X32809523Y-37261904D01*
X32904761Y-36880952D01*
X33000000Y-36690476D01*
X33190476Y-36500000D01*
X33476190Y-36404761D01*
X33666666Y-36404761D01*
X33952380Y-36500000D01*
X34047619Y-36595238D01*
X35285714Y-36404761D02*
X35666666Y-36404761D01*
X35857142Y-36500000D01*
X36047619Y-36690476D01*
X36142857Y-37071428D01*
X36142857Y-37738095D01*
X36047619Y-38119047D01*
X35857142Y-38309523D01*
X35666666Y-38404761D01*
X35285714Y-38404761D01*
X35095238Y-38309523D01*
X34904761Y-38119047D01*
X34809523Y-37738095D01*
X34809523Y-37071428D01*
X34904761Y-36690476D01*
X35095238Y-36500000D01*
X35285714Y-36404761D01*
X37000000Y-38404761D02*
X37000000Y-36404761D01*
X37952380Y-38404761D02*
X37952380Y-36404761D01*
X39095238Y-38404761D01*
X39095238Y-36404761D01*
D10*
%TO.C,COM*%
X124864285Y-28307142D02*
X124816666Y-28354761D01*
X124673809Y-28402380D01*
X124578571Y-28402380D01*
X124435714Y-28354761D01*
X124340476Y-28259523D01*
X124292857Y-28164285D01*
X124245238Y-27973809D01*
X124245238Y-27830952D01*
X124292857Y-27640476D01*
X124340476Y-27545238D01*
X124435714Y-27450000D01*
X124578571Y-27402380D01*
X124673809Y-27402380D01*
X124816666Y-27450000D01*
X124864285Y-27497619D01*
X125483333Y-27402380D02*
X125673809Y-27402380D01*
X125769047Y-27450000D01*
X125864285Y-27545238D01*
X125911904Y-27735714D01*
X125911904Y-28069047D01*
X125864285Y-28259523D01*
X125769047Y-28354761D01*
X125673809Y-28402380D01*
X125483333Y-28402380D01*
X125388095Y-28354761D01*
X125292857Y-28259523D01*
X125245238Y-28069047D01*
X125245238Y-27735714D01*
X125292857Y-27545238D01*
X125388095Y-27450000D01*
X125483333Y-27402380D01*
X126340476Y-28402380D02*
X126340476Y-27402380D01*
X126673809Y-28116666D01*
X127007142Y-27402380D01*
X127007142Y-28402380D01*
D11*
%TO.C,BET*%
X52476190Y-66857142D02*
X52761904Y-66952380D01*
X52857142Y-67047619D01*
X52952380Y-67238095D01*
X52952380Y-67523809D01*
X52857142Y-67714285D01*
X52761904Y-67809523D01*
X52571428Y-67904761D01*
X51809523Y-67904761D01*
X51809523Y-65904761D01*
X52476190Y-65904761D01*
X52666666Y-66000000D01*
X52761904Y-66095238D01*
X52857142Y-66285714D01*
X52857142Y-66476190D01*
X52761904Y-66666666D01*
X52666666Y-66761904D01*
X52476190Y-66857142D01*
X51809523Y-66857142D01*
X53809523Y-66857142D02*
X54476190Y-66857142D01*
X54761904Y-67904761D02*
X53809523Y-67904761D01*
X53809523Y-65904761D01*
X54761904Y-65904761D01*
X55333333Y-65904761D02*
X56476190Y-65904761D01*
X55904761Y-67904761D02*
X55904761Y-65904761D01*
%TO.C,C*%
X54619047Y-53714285D02*
X54523809Y-53809523D01*
X54238095Y-53904761D01*
X54047619Y-53904761D01*
X53761904Y-53809523D01*
X53571428Y-53619047D01*
X53476190Y-53428571D01*
X53380952Y-53047619D01*
X53380952Y-52761904D01*
X53476190Y-52380952D01*
X53571428Y-52190476D01*
X53761904Y-52000000D01*
X54047619Y-51904761D01*
X54238095Y-51904761D01*
X54523809Y-52000000D01*
X54619047Y-52095238D01*
%TO.C,F*%
X90285714Y-52857142D02*
X89619047Y-52857142D01*
X89619047Y-53904761D02*
X89619047Y-51904761D01*
X90571428Y-51904761D01*
%TO.C,E*%
X77571428Y-52857142D02*
X78238095Y-52857142D01*
X78523809Y-53904761D02*
X77571428Y-53904761D01*
X77571428Y-51904761D01*
X78523809Y-51904761D01*
%TO.C,J*%
X137785714Y-51904761D02*
X137785714Y-53333333D01*
X137690476Y-53619047D01*
X137500000Y-53809523D01*
X137214285Y-53904761D01*
X137023809Y-53904761D01*
%TO.C,KAN*%
X131571428Y-67904761D02*
X131571428Y-65904761D01*
X132714285Y-67904761D02*
X131857142Y-66761904D01*
X132714285Y-65904761D02*
X131571428Y-67047619D01*
X133476190Y-67333333D02*
X134428571Y-67333333D01*
X133285714Y-67904761D02*
X133952380Y-65904761D01*
X134619047Y-67904761D01*
X135285714Y-67904761D02*
X135285714Y-65904761D01*
X136428571Y-67904761D01*
X136428571Y-65904761D01*
%TO.C,RIICHI*%
X167142857Y-67904761D02*
X166476190Y-66952380D01*
X166000000Y-67904761D02*
X166000000Y-65904761D01*
X166761904Y-65904761D01*
X166952380Y-66000000D01*
X167047619Y-66095238D01*
X167142857Y-66285714D01*
X167142857Y-66571428D01*
X167047619Y-66761904D01*
X166952380Y-66857142D01*
X166761904Y-66952380D01*
X166000000Y-66952380D01*
X168000000Y-67904761D02*
X168000000Y-65904761D01*
X168952380Y-67904761D02*
X168952380Y-65904761D01*
X171047619Y-67714285D02*
X170952380Y-67809523D01*
X170666666Y-67904761D01*
X170476190Y-67904761D01*
X170190476Y-67809523D01*
X170000000Y-67619047D01*
X169904761Y-67428571D01*
X169809523Y-67047619D01*
X169809523Y-66761904D01*
X169904761Y-66380952D01*
X170000000Y-66190476D01*
X170190476Y-66000000D01*
X170476190Y-65904761D01*
X170666666Y-65904761D01*
X170952380Y-66000000D01*
X171047619Y-66095238D01*
X171904761Y-67904761D02*
X171904761Y-65904761D01*
X171904761Y-66857142D02*
X173047619Y-66857142D01*
X173047619Y-67904761D02*
X173047619Y-65904761D01*
X174000000Y-67904761D02*
X174000000Y-65904761D01*
%TO.C,L*%
X162619047Y-53904761D02*
X161666666Y-53904761D01*
X161666666Y-51904761D01*
D12*
%TO.C,LAST*%
X121750000Y-56500000D02*
X120250000Y-56500000D01*
X120250000Y-63500000D02*
X121750000Y-63500000D01*
X124250000Y-62250000D02*
X124250000Y-57750000D01*
X117750000Y-57750000D02*
X117750000Y-62250000D01*
%TO.C,G*%
X98750000Y-43750000D02*
X98750000Y-48250000D01*
X101250000Y-49500000D02*
X102750000Y-49500000D01*
X105250000Y-48250000D02*
X105250000Y-43750000D01*
X102750000Y-42500000D02*
X101250000Y-42500000D01*
%TO.C,WUP*%
X80250000Y-63500000D02*
X81750000Y-63500000D01*
X84250000Y-62250000D02*
X84250000Y-57750000D01*
X81750000Y-56500000D02*
X80250000Y-56500000D01*
X77750000Y-57750000D02*
X77750000Y-62250000D01*
%TO.C,RON*%
X185250000Y-63500000D02*
X186750000Y-63500000D01*
X186750000Y-56500000D02*
X185250000Y-56500000D01*
X189250000Y-62250000D02*
X189250000Y-57750000D01*
X182750000Y-57750000D02*
X182750000Y-62250000D01*
%TO.C,A*%
X30750000Y-42500000D02*
X29250000Y-42500000D01*
X26750000Y-43750000D02*
X26750000Y-48250000D01*
X33250000Y-48250000D02*
X33250000Y-43750000D01*
X29250000Y-49500000D02*
X30750000Y-49500000D01*
%TO.C,BIG*%
X93750000Y-56500000D02*
X92250000Y-56500000D01*
X96250000Y-62250000D02*
X96250000Y-57750000D01*
X92250000Y-63500000D02*
X93750000Y-63500000D01*
X89750000Y-57750000D02*
X89750000Y-62250000D01*
%TO.C,H*%
X117250000Y-48250000D02*
X117250000Y-43750000D01*
X110750000Y-43750000D02*
X110750000Y-48250000D01*
X114750000Y-42500000D02*
X113250000Y-42500000D01*
X113250000Y-49500000D02*
X114750000Y-49500000D01*
%TO.C,F.F.*%
X33250000Y-62250000D02*
X33250000Y-57750000D01*
X29250000Y-63500000D02*
X30750000Y-63500000D01*
X30750000Y-56500000D02*
X29250000Y-56500000D01*
X26750000Y-57750000D02*
X26750000Y-62250000D01*
%TO.C,J_3*%
X75550000Y-34225000D02*
X70000000Y-34225000D01*
X75550000Y-31275000D02*
X75550000Y-34225000D01*
X63700000Y-29775000D02*
X65500000Y-29775000D01*
X74500000Y-29025000D02*
X74500000Y-29775000D01*
X70000000Y-34225000D02*
X65510000Y-34225000D01*
X63700000Y-29025000D02*
X63700000Y-29775000D01*
X76310000Y-34985000D02*
X76310000Y-29015000D01*
X73000000Y-29775000D02*
X73000000Y-29025000D01*
X74500000Y-29775000D02*
X76300000Y-29775000D01*
X64650000Y-28725000D02*
X63400000Y-28725000D01*
X73000000Y-29025000D02*
X67000000Y-29025000D01*
X65500000Y-29775000D02*
X65500000Y-29025000D01*
X64450000Y-31275000D02*
X64450000Y-32615000D01*
X76300000Y-31275000D02*
X75550000Y-31275000D01*
X63400000Y-28725000D02*
X63400000Y-29975000D01*
X76300000Y-29025000D02*
X74500000Y-29025000D01*
X63700000Y-31275000D02*
X64450000Y-31275000D01*
X63690000Y-34985000D02*
X76310000Y-34985000D01*
X76300000Y-29775000D02*
X76300000Y-29025000D01*
X67000000Y-29025000D02*
X67000000Y-29775000D01*
X65500000Y-29025000D02*
X63700000Y-29025000D01*
X76310000Y-29015000D02*
X63690000Y-29015000D01*
X67000000Y-29775000D02*
X73000000Y-29775000D01*
X63690000Y-29015000D02*
X63690000Y-34985000D01*
%TO.C,M*%
X170750000Y-43750000D02*
X170750000Y-48250000D01*
X174750000Y-42500000D02*
X173250000Y-42500000D01*
X177250000Y-48250000D02*
X177250000Y-43750000D01*
X173250000Y-49500000D02*
X174750000Y-49500000D01*
%TO.C,TEST*%
X166750000Y-27500000D02*
X165250000Y-27500000D01*
X169250000Y-33250000D02*
X169250000Y-28750000D01*
X162750000Y-28750000D02*
X162750000Y-33250000D01*
X165250000Y-34500000D02*
X166750000Y-34500000D01*
%TO.C,SERVICE*%
X174750000Y-28750000D02*
X174750000Y-33250000D01*
X178750000Y-27500000D02*
X177250000Y-27500000D01*
X177250000Y-34500000D02*
X178750000Y-34500000D01*
X181250000Y-33250000D02*
X181250000Y-28750000D01*
%TO.C,CHI*%
X158750000Y-56500000D02*
X157250000Y-56500000D01*
X154750000Y-57750000D02*
X154750000Y-62250000D01*
X157250000Y-63500000D02*
X158750000Y-63500000D01*
X161250000Y-62250000D02*
X161250000Y-57750000D01*
%TO.C,D*%
X65250000Y-49500000D02*
X66750000Y-49500000D01*
X66750000Y-42500000D02*
X65250000Y-42500000D01*
X62750000Y-43750000D02*
X62750000Y-48250000D01*
X69250000Y-48250000D02*
X69250000Y-43750000D01*
%TO.C,K*%
X153250000Y-48250000D02*
X153250000Y-43750000D01*
X146750000Y-43750000D02*
X146750000Y-48250000D01*
X149250000Y-49500000D02*
X150750000Y-49500000D01*
X150750000Y-42500000D02*
X149250000Y-42500000D01*
%TO.C,B*%
X38750000Y-43750000D02*
X38750000Y-48250000D01*
X41250000Y-49500000D02*
X42750000Y-49500000D01*
X42750000Y-42500000D02*
X41250000Y-42500000D01*
X45250000Y-48250000D02*
X45250000Y-43750000D01*
%TO.C,N*%
X182750000Y-43750000D02*
X182750000Y-48250000D01*
X185250000Y-49500000D02*
X186750000Y-49500000D01*
X189250000Y-48250000D02*
X189250000Y-43750000D01*
X186750000Y-42500000D02*
X185250000Y-42500000D01*
%TO.C,SMALL*%
X108250000Y-62250000D02*
X108250000Y-57750000D01*
X104250000Y-63500000D02*
X105750000Y-63500000D01*
X105750000Y-56500000D02*
X104250000Y-56500000D01*
X101750000Y-57750000D02*
X101750000Y-62250000D01*
%TO.C,START*%
X45250000Y-62250000D02*
X45250000Y-57750000D01*
X42750000Y-56500000D02*
X41250000Y-56500000D01*
X41250000Y-63500000D02*
X42750000Y-63500000D01*
X38750000Y-57750000D02*
X38750000Y-62250000D01*
%TO.C,PON*%
X149250000Y-62250000D02*
X149250000Y-57750000D01*
X142750000Y-57750000D02*
X142750000Y-62250000D01*
X145250000Y-63500000D02*
X146750000Y-63500000D01*
X146750000Y-56500000D02*
X145250000Y-56500000D01*
%TO.C,KEY*%
X97810000Y-29015000D02*
X80190000Y-29015000D01*
X97050000Y-34225000D02*
X89000000Y-34225000D01*
X81150000Y-28725000D02*
X79900000Y-28725000D01*
X82000000Y-29775000D02*
X82000000Y-29025000D01*
X80200000Y-29775000D02*
X82000000Y-29775000D01*
X82000000Y-29025000D02*
X80200000Y-29025000D01*
X83500000Y-29025000D02*
X83500000Y-29775000D01*
X94500000Y-29025000D02*
X83500000Y-29025000D01*
X80190000Y-34985000D02*
X97810000Y-34985000D01*
X96000000Y-29775000D02*
X97800000Y-29775000D01*
X83500000Y-29775000D02*
X94500000Y-29775000D01*
X80950000Y-31275000D02*
X80950000Y-32615000D01*
X89000000Y-34225000D02*
X82010000Y-34225000D01*
X96000000Y-29025000D02*
X96000000Y-29775000D01*
X80190000Y-29015000D02*
X80190000Y-34985000D01*
X97810000Y-34985000D02*
X97810000Y-29015000D01*
X97800000Y-31275000D02*
X97050000Y-31275000D01*
X94500000Y-29775000D02*
X94500000Y-29025000D01*
X97050000Y-31275000D02*
X97050000Y-34225000D01*
X79900000Y-28725000D02*
X79900000Y-29975000D01*
X80200000Y-31275000D02*
X80950000Y-31275000D01*
X97800000Y-29025000D02*
X96000000Y-29025000D01*
X80200000Y-29025000D02*
X80200000Y-29775000D01*
X97800000Y-29775000D02*
X97800000Y-29025000D01*
%TO.C,TAKE*%
X72250000Y-62250000D02*
X72250000Y-57750000D01*
X65750000Y-57750000D02*
X65750000Y-62250000D01*
X69750000Y-56500000D02*
X68250000Y-56500000D01*
X68250000Y-63500000D02*
X69750000Y-63500000D01*
%TO.C,I*%
X126750000Y-42500000D02*
X125250000Y-42500000D01*
X129250000Y-48250000D02*
X129250000Y-43750000D01*
X125250000Y-49500000D02*
X126750000Y-49500000D01*
X122750000Y-43750000D02*
X122750000Y-48250000D01*
%TO.C,COIN*%
X36750000Y-26750000D02*
X35250000Y-26750000D01*
X32750000Y-28000000D02*
X32750000Y-32500000D01*
X39250000Y-32500000D02*
X39250000Y-28000000D01*
X35250000Y-33750000D02*
X36750000Y-33750000D01*
%TO.C,COM*%
X132450000Y-31300000D02*
X132450000Y-34250000D01*
X131400000Y-29050000D02*
X131400000Y-29800000D01*
X133200000Y-31300000D02*
X132450000Y-31300000D01*
X133200000Y-29050000D02*
X131400000Y-29050000D01*
X133210000Y-35010000D02*
X133210000Y-29040000D01*
X129900000Y-29800000D02*
X129900000Y-29050000D01*
X119900000Y-29050000D02*
X118100000Y-29050000D01*
X118090000Y-29040000D02*
X118090000Y-35010000D01*
X131400000Y-29800000D02*
X133200000Y-29800000D01*
X118100000Y-29050000D02*
X118100000Y-29800000D01*
X121400000Y-29800000D02*
X129900000Y-29800000D01*
X118100000Y-31300000D02*
X118850000Y-31300000D01*
X119050000Y-28750000D02*
X117800000Y-28750000D01*
X132450000Y-34250000D02*
X125650000Y-34250000D01*
X121400000Y-29050000D02*
X121400000Y-29800000D01*
X118090000Y-35010000D02*
X133210000Y-35010000D01*
X119900000Y-29800000D02*
X119900000Y-29050000D01*
X133200000Y-29800000D02*
X133200000Y-29050000D01*
X117800000Y-28750000D02*
X117800000Y-30000000D01*
X129900000Y-29050000D02*
X121400000Y-29050000D01*
X133210000Y-29040000D02*
X118090000Y-29040000D01*
X118850000Y-31300000D02*
X118850000Y-32640000D01*
X118100000Y-29800000D02*
X119900000Y-29800000D01*
X125650000Y-34250000D02*
X119910000Y-34250000D01*
%TO.C,BET*%
X53250000Y-63500000D02*
X54750000Y-63500000D01*
X57250000Y-62250000D02*
X57250000Y-57750000D01*
X50750000Y-57750000D02*
X50750000Y-62250000D01*
X54750000Y-56500000D02*
X53250000Y-56500000D01*
%TO.C,C*%
X50750000Y-43750000D02*
X50750000Y-48250000D01*
X53250000Y-49500000D02*
X54750000Y-49500000D01*
X54750000Y-42500000D02*
X53250000Y-42500000D01*
X57250000Y-48250000D02*
X57250000Y-43750000D01*
%TO.C,F*%
X93250000Y-48250000D02*
X93250000Y-43750000D01*
X90750000Y-42500000D02*
X89250000Y-42500000D01*
X86750000Y-43750000D02*
X86750000Y-48250000D01*
X89250000Y-49500000D02*
X90750000Y-49500000D01*
%TO.C,E*%
X74750000Y-43750000D02*
X74750000Y-48250000D01*
X77250000Y-49500000D02*
X78750000Y-49500000D01*
X81250000Y-48250000D02*
X81250000Y-43750000D01*
X78750000Y-42500000D02*
X77250000Y-42500000D01*
%TO.C,J*%
X141250000Y-48250000D02*
X141250000Y-43750000D01*
X138750000Y-42500000D02*
X137250000Y-42500000D01*
X134750000Y-43750000D02*
X134750000Y-48250000D01*
X137250000Y-49500000D02*
X138750000Y-49500000D01*
%TO.C,KAN*%
X134750000Y-56500000D02*
X133250000Y-56500000D01*
X133250000Y-63500000D02*
X134750000Y-63500000D01*
X137250000Y-62250000D02*
X137250000Y-57750000D01*
X130750000Y-57750000D02*
X130750000Y-62250000D01*
%TO.C,RIICHI*%
X166750000Y-57750000D02*
X166750000Y-62250000D01*
X170750000Y-56500000D02*
X169250000Y-56500000D01*
X173250000Y-62250000D02*
X173250000Y-57750000D01*
X169250000Y-63500000D02*
X170750000Y-63500000D01*
%TO.C,L*%
X162750000Y-42500000D02*
X161250000Y-42500000D01*
X165250000Y-48250000D02*
X165250000Y-43750000D01*
X158750000Y-43750000D02*
X158750000Y-48250000D01*
X161250000Y-49500000D02*
X162750000Y-49500000D01*
%TD*%
M02*
