M48
; DRILL file {KiCad (6.0.8)} date Thu Dec 29 19:13:58 2022
; FORMAT={-:-/ absolute / metric / decimal}
; #@! TF.CreationDate,2022-12-29T19:13:58+02:00
; #@! TF.GenerationSoftware,Kicad,Pcbnew,(6.0.8)
; #@! TF.FileFunction,Plated,1,2,PTH
FMAT,2
METRIC
; #@! TA.AperFunction,Plated,PTH,ComponentDrill
T1C0.950
; #@! TA.AperFunction,Plated,PTH,ComponentDrill
T2C1.100
%
G90
G05
T1
X66.25Y-31.475
X68.75Y-31.475
X71.25Y-31.475
X73.75Y-31.475
X82.75Y-31.475
X85.25Y-31.475
X87.75Y-31.475
X90.25Y-31.475
X92.75Y-31.475
X95.25Y-31.475
X120.65Y-31.5
X123.15Y-31.5
X125.65Y-31.5
X128.15Y-31.5
X130.65Y-31.5
T2
X27.75Y-42.75
X27.75Y-49.25
X27.75Y-56.75
X27.75Y-63.25
X32.25Y-42.75
X32.25Y-49.25
X32.25Y-56.75
X32.25Y-63.25
X33.75Y-27.0
X33.75Y-33.5
X38.25Y-27.0
X38.25Y-33.5
X39.75Y-42.75
X39.75Y-49.25
X39.75Y-56.75
X39.75Y-63.25
X44.25Y-42.75
X44.25Y-49.25
X44.25Y-56.75
X44.25Y-63.25
X51.75Y-42.75
X51.75Y-49.25
X51.75Y-56.75
X51.75Y-63.25
X56.25Y-42.75
X56.25Y-49.25
X56.25Y-56.75
X56.25Y-63.25
X63.75Y-42.75
X63.75Y-49.25
X66.75Y-56.75
X66.75Y-63.25
X68.25Y-42.75
X68.25Y-49.25
X71.25Y-56.75
X71.25Y-63.25
X75.75Y-42.75
X75.75Y-49.25
X78.75Y-56.75
X78.75Y-63.25
X80.25Y-42.75
X80.25Y-49.25
X83.25Y-56.75
X83.25Y-63.25
X87.75Y-42.75
X87.75Y-49.25
X90.75Y-56.75
X90.75Y-63.25
X92.25Y-42.75
X92.25Y-49.25
X95.25Y-56.75
X95.25Y-63.25
X99.75Y-42.75
X99.75Y-49.25
X102.75Y-56.75
X102.75Y-63.25
X104.25Y-42.75
X104.25Y-49.25
X107.25Y-56.75
X107.25Y-63.25
X111.75Y-42.75
X111.75Y-49.25
X116.25Y-42.75
X116.25Y-49.25
X118.75Y-56.75
X118.75Y-63.25
X123.25Y-56.75
X123.25Y-63.25
X123.75Y-42.75
X123.75Y-49.25
X128.25Y-42.75
X128.25Y-49.25
X131.75Y-56.75
X131.75Y-63.25
X135.75Y-42.75
X135.75Y-49.25
X136.25Y-56.75
X136.25Y-63.25
X140.25Y-42.75
X140.25Y-49.25
X143.75Y-56.75
X143.75Y-63.25
X147.75Y-42.75
X147.75Y-49.25
X148.25Y-56.75
X148.25Y-63.25
X152.25Y-42.75
X152.25Y-49.25
X155.75Y-56.75
X155.75Y-63.25
X159.75Y-42.75
X159.75Y-49.25
X160.25Y-56.75
X160.25Y-63.25
X163.75Y-27.75
X163.75Y-34.25
X164.25Y-42.75
X164.25Y-49.25
X167.75Y-56.75
X167.75Y-63.25
X168.25Y-27.75
X168.25Y-34.25
X171.75Y-42.75
X171.75Y-49.25
X172.25Y-56.75
X172.25Y-63.25
X175.75Y-27.75
X175.75Y-34.25
X176.25Y-42.75
X176.25Y-49.25
X180.25Y-27.75
X180.25Y-34.25
X183.75Y-42.75
X183.75Y-49.25
X183.75Y-56.75
X183.75Y-63.25
X188.25Y-42.75
X188.25Y-49.25
X188.25Y-56.75
X188.25Y-63.25
T0
M30
