%TF.GenerationSoftware,KiCad,Pcbnew,(6.0.8)*%
%TF.CreationDate,2022-12-29T19:13:55+02:00*%
%TF.ProjectId,mahjong_small_control_panel_with_service,6d61686a-6f6e-4675-9f73-6d616c6c5f63,rev?*%
%TF.SameCoordinates,Original*%
%TF.FileFunction,Soldermask,Top*%
%TF.FilePolarity,Negative*%
%FSLAX46Y46*%
G04 Gerber Fmt 4.6, Leading zero omitted, Abs format (unit mm)*
G04 Created by KiCad (PCBNEW (6.0.8)) date 2022-12-29 19:13:55*
%MOMM*%
%LPD*%
G01*
G04 APERTURE LIST*
G04 Aperture macros list*
%AMRoundRect*
0 Rectangle with rounded corners*
0 $1 Rounding radius*
0 $2 $3 $4 $5 $6 $7 $8 $9 X,Y pos of 4 corners*
0 Add a 4 corners polygon primitive as box body*
4,1,4,$2,$3,$4,$5,$6,$7,$8,$9,$2,$3,0*
0 Add four circle primitives for the rounded corners*
1,1,$1+$1,$2,$3*
1,1,$1+$1,$4,$5*
1,1,$1+$1,$6,$7*
1,1,$1+$1,$8,$9*
0 Add four rect primitives between the rounded corners*
20,1,$1+$1,$2,$3,$4,$5,0*
20,1,$1+$1,$4,$5,$6,$7,0*
20,1,$1+$1,$6,$7,$8,$9,0*
20,1,$1+$1,$8,$9,$2,$3,0*%
G04 Aperture macros list end*
%ADD10C,2.000000*%
%ADD11C,3.200000*%
%ADD12C,1.200000*%
%ADD13RoundRect,0.250000X-0.600000X-0.725000X0.600000X-0.725000X0.600000X0.725000X-0.600000X0.725000X0*%
%ADD14O,1.700000X1.950000*%
G04 APERTURE END LIST*
D10*
%TO.C,LAST*%
X118750000Y-63250000D03*
X118750000Y-56750000D03*
X123250000Y-56750000D03*
X123250000Y-63250000D03*
%TD*%
%TO.C,G*%
X99750000Y-42750000D03*
X99750000Y-49250000D03*
X104250000Y-42750000D03*
X104250000Y-49250000D03*
%TD*%
D11*
%TO.C,REF\u002A\u002A*%
X26000000Y-72000000D03*
%TD*%
D10*
%TO.C,WUP*%
X78750000Y-63250000D03*
X78750000Y-56750000D03*
X83250000Y-56750000D03*
X83250000Y-63250000D03*
%TD*%
D11*
%TO.C,REF\u002A\u002A*%
X108000000Y-28000000D03*
%TD*%
D10*
%TO.C,RON*%
X183750000Y-63250000D03*
X183750000Y-56750000D03*
X188250000Y-56750000D03*
X188250000Y-63250000D03*
%TD*%
%TO.C,A*%
X27750000Y-49250000D03*
X27750000Y-42750000D03*
X32250000Y-49250000D03*
X32250000Y-42750000D03*
%TD*%
%TO.C,BIG*%
X90750000Y-56750000D03*
X90750000Y-63250000D03*
X95250000Y-63250000D03*
X95250000Y-56750000D03*
%TD*%
%TO.C,H*%
X111750000Y-49250000D03*
X111750000Y-42750000D03*
X116250000Y-42750000D03*
X116250000Y-49250000D03*
%TD*%
%TO.C,F.F.*%
X27750000Y-56750000D03*
X27750000Y-63250000D03*
X32250000Y-56750000D03*
X32250000Y-63250000D03*
%TD*%
D12*
%TO.C,J_3*%
X64650000Y-33475000D03*
D13*
X66250000Y-31475000D03*
D14*
X68750000Y-31475000D03*
X71250000Y-31475000D03*
X73750000Y-31475000D03*
%TD*%
D10*
%TO.C,M*%
X171750000Y-42750000D03*
X171750000Y-49250000D03*
X176250000Y-42750000D03*
X176250000Y-49250000D03*
%TD*%
%TO.C,TEST*%
X163750000Y-34250000D03*
X163750000Y-27750000D03*
X168250000Y-27750000D03*
X168250000Y-34250000D03*
%TD*%
%TO.C,SERVICE*%
X175750000Y-34250000D03*
X175750000Y-27750000D03*
X180250000Y-27750000D03*
X180250000Y-34250000D03*
%TD*%
%TO.C,CHI*%
X155750000Y-63250000D03*
X155750000Y-56750000D03*
X160250000Y-63250000D03*
X160250000Y-56750000D03*
%TD*%
%TO.C,D*%
X63750000Y-49250000D03*
X63750000Y-42750000D03*
X68250000Y-49250000D03*
X68250000Y-42750000D03*
%TD*%
%TO.C,K*%
X147750000Y-49250000D03*
X147750000Y-42750000D03*
X152250000Y-49250000D03*
X152250000Y-42750000D03*
%TD*%
%TO.C,B*%
X39750000Y-49250000D03*
X39750000Y-42750000D03*
X44250000Y-49250000D03*
X44250000Y-42750000D03*
%TD*%
%TO.C,N*%
X183750000Y-42750000D03*
X183750000Y-49250000D03*
X188250000Y-42750000D03*
X188250000Y-49250000D03*
%TD*%
D11*
%TO.C,REF\u002A\u002A*%
X190000000Y-28000000D03*
%TD*%
D10*
%TO.C,SMALL*%
X102750000Y-56750000D03*
X102750000Y-63250000D03*
X107250000Y-56750000D03*
X107250000Y-63250000D03*
%TD*%
%TO.C,START*%
X39750000Y-56750000D03*
X39750000Y-63250000D03*
X44250000Y-63250000D03*
X44250000Y-56750000D03*
%TD*%
%TO.C,PON*%
X143750000Y-63250000D03*
X143750000Y-56750000D03*
X148250000Y-63250000D03*
X148250000Y-56750000D03*
%TD*%
D12*
%TO.C,KEY*%
X81150000Y-33475000D03*
D13*
X82750000Y-31475000D03*
D14*
X85250000Y-31475000D03*
X87750000Y-31475000D03*
X90250000Y-31475000D03*
X92750000Y-31475000D03*
X95250000Y-31475000D03*
%TD*%
D11*
%TO.C,REF\u002A\u002A*%
X108000000Y-72000000D03*
%TD*%
%TO.C,REF\u002A\u002A*%
X26000000Y-28000000D03*
%TD*%
D10*
%TO.C,TAKE*%
X66750000Y-63250000D03*
X66750000Y-56750000D03*
X71250000Y-63250000D03*
X71250000Y-56750000D03*
%TD*%
%TO.C,I*%
X123750000Y-42750000D03*
X123750000Y-49250000D03*
X128250000Y-49250000D03*
X128250000Y-42750000D03*
%TD*%
%TO.C,COIN*%
X33750000Y-33500000D03*
X33750000Y-27000000D03*
X38250000Y-27000000D03*
X38250000Y-33500000D03*
%TD*%
D12*
%TO.C,COM*%
X119050000Y-33500000D03*
D13*
X120650000Y-31500000D03*
D14*
X123150000Y-31500000D03*
X125650000Y-31500000D03*
X128150000Y-31500000D03*
X130650000Y-31500000D03*
%TD*%
D10*
%TO.C,BET*%
X51750000Y-63250000D03*
X51750000Y-56750000D03*
X56250000Y-63250000D03*
X56250000Y-56750000D03*
%TD*%
%TO.C,C*%
X51750000Y-42750000D03*
X51750000Y-49250000D03*
X56250000Y-42750000D03*
X56250000Y-49250000D03*
%TD*%
%TO.C,F*%
X87750000Y-49250000D03*
X87750000Y-42750000D03*
X92250000Y-49250000D03*
X92250000Y-42750000D03*
%TD*%
D11*
%TO.C,REF\u002A\u002A*%
X190000000Y-72000000D03*
%TD*%
D10*
%TO.C,E*%
X75750000Y-42750000D03*
X75750000Y-49250000D03*
X80250000Y-42750000D03*
X80250000Y-49250000D03*
%TD*%
%TO.C,J*%
X135750000Y-42750000D03*
X135750000Y-49250000D03*
X140250000Y-42750000D03*
X140250000Y-49250000D03*
%TD*%
%TO.C,KAN*%
X131750000Y-56750000D03*
X131750000Y-63250000D03*
X136250000Y-63250000D03*
X136250000Y-56750000D03*
%TD*%
%TO.C,RIICHI*%
X167750000Y-63250000D03*
X167750000Y-56750000D03*
X172250000Y-63250000D03*
X172250000Y-56750000D03*
%TD*%
%TO.C,L*%
X159750000Y-42750000D03*
X159750000Y-49250000D03*
X164250000Y-42750000D03*
X164250000Y-49250000D03*
%TD*%
M02*
