%TF.GenerationSoftware,KiCad,Pcbnew,(6.0.8)*%
%TF.CreationDate,2022-12-29T19:13:55+02:00*%
%TF.ProjectId,mahjong_small_control_panel_with_service,6d61686a-6f6e-4675-9f73-6d616c6c5f63,rev?*%
%TF.SameCoordinates,Original*%
%TF.FileFunction,Copper,L2,Bot*%
%TF.FilePolarity,Positive*%
%FSLAX46Y46*%
G04 Gerber Fmt 4.6, Leading zero omitted, Abs format (unit mm)*
G04 Created by KiCad (PCBNEW (6.0.8)) date 2022-12-29 19:13:55*
%MOMM*%
%LPD*%
G01*
G04 APERTURE LIST*
G04 Aperture macros list*
%AMRoundRect*
0 Rectangle with rounded corners*
0 $1 Rounding radius*
0 $2 $3 $4 $5 $6 $7 $8 $9 X,Y pos of 4 corners*
0 Add a 4 corners polygon primitive as box body*
4,1,4,$2,$3,$4,$5,$6,$7,$8,$9,$2,$3,0*
0 Add four circle primitives for the rounded corners*
1,1,$1+$1,$2,$3*
1,1,$1+$1,$4,$5*
1,1,$1+$1,$6,$7*
1,1,$1+$1,$8,$9*
0 Add four rect primitives between the rounded corners*
20,1,$1+$1,$2,$3,$4,$5,0*
20,1,$1+$1,$4,$5,$6,$7,0*
20,1,$1+$1,$6,$7,$8,$9,0*
20,1,$1+$1,$8,$9,$2,$3,0*%
G04 Aperture macros list end*
%TA.AperFunction,ComponentPad*%
%ADD10C,2.000000*%
%TD*%
%TA.AperFunction,ComponentPad*%
%ADD11RoundRect,0.250000X-0.600000X-0.725000X0.600000X-0.725000X0.600000X0.725000X-0.600000X0.725000X0*%
%TD*%
%TA.AperFunction,ComponentPad*%
%ADD12O,1.700000X1.950000*%
%TD*%
%TA.AperFunction,Conductor*%
%ADD13C,0.250000*%
%TD*%
G04 APERTURE END LIST*
D10*
%TO.P,LAST,1,C*%
%TO.N,COM4-7*%
X118750000Y-63250000D03*
X118750000Y-56750000D03*
%TO.P,LAST,2,D*%
%TO.N,KEY0-4*%
X123250000Y-56750000D03*
X123250000Y-63250000D03*
%TD*%
%TO.P,G,1,C*%
%TO.N,COM2-6*%
X99750000Y-42750000D03*
X99750000Y-49250000D03*
%TO.P,G,2,D*%
%TO.N,KEY1-5*%
X104250000Y-42750000D03*
X104250000Y-49250000D03*
%TD*%
%TO.P,WUP,1,C*%
%TO.N,COM4-7*%
X78750000Y-63250000D03*
X78750000Y-56750000D03*
%TO.P,WUP,2,D*%
%TO.N,KEY2-8*%
X83250000Y-56750000D03*
X83250000Y-63250000D03*
%TD*%
%TO.P,RON,1,C*%
%TO.N,COM2-6*%
X183750000Y-63250000D03*
X183750000Y-56750000D03*
%TO.P,RON,2,D*%
%TO.N,KEY4-11*%
X188250000Y-56750000D03*
X188250000Y-63250000D03*
%TD*%
%TO.P,A,1,C*%
%TO.N,COM0-3*%
X27750000Y-49250000D03*
X27750000Y-42750000D03*
%TO.P,A,2,D*%
%TO.N,KEY0-4*%
X32250000Y-49250000D03*
X32250000Y-42750000D03*
%TD*%
%TO.P,BIG,1,C*%
%TO.N,COM4-7*%
X90750000Y-56750000D03*
X90750000Y-63250000D03*
%TO.P,BIG,2,D*%
%TO.N,KEY4-11*%
X95250000Y-63250000D03*
X95250000Y-56750000D03*
%TD*%
%TO.P,H,1,C*%
%TO.N,COM3-10*%
X111750000Y-49250000D03*
X111750000Y-42750000D03*
%TO.P,H,2,D*%
%TO.N,KEY1-5*%
X116250000Y-42750000D03*
X116250000Y-49250000D03*
%TD*%
%TO.P,F.F.,1,C*%
%TO.N,COM4-7*%
X27750000Y-56750000D03*
X27750000Y-63250000D03*
%TO.P,F.F.,2,D*%
%TO.N,KEY3-9*%
X32250000Y-56750000D03*
X32250000Y-63250000D03*
%TD*%
D11*
%TO.P,J_3,1,Pin_1*%
%TO.N,Coin*%
X66250000Y-31475000D03*
D12*
%TO.P,J_3,2,Pin_2*%
%TO.N,Test*%
X68750000Y-31475000D03*
%TO.P,J_3,3,Pin_3*%
%TO.N,Service*%
X71250000Y-31475000D03*
%TO.P,J_3,4,Pin_4*%
%TO.N,GND*%
X73750000Y-31475000D03*
%TD*%
D10*
%TO.P,M,1,C*%
%TO.N,COM0-3*%
X171750000Y-42750000D03*
X171750000Y-49250000D03*
%TO.P,M,2,D*%
%TO.N,KEY3-9*%
X176250000Y-42750000D03*
X176250000Y-49250000D03*
%TD*%
%TO.P,TEST,1,C*%
%TO.N,GND*%
X163750000Y-34250000D03*
X163750000Y-27750000D03*
%TO.P,TEST,2,D*%
%TO.N,Test*%
X168250000Y-27750000D03*
X168250000Y-34250000D03*
%TD*%
%TO.P,SERVICE,1,C*%
%TO.N,GND*%
X175750000Y-34250000D03*
X175750000Y-27750000D03*
%TO.P,SERVICE,2,D*%
%TO.N,Service*%
X180250000Y-27750000D03*
X180250000Y-34250000D03*
%TD*%
%TO.P,CHI,1,C*%
%TO.N,COM2-6*%
X155750000Y-63250000D03*
X155750000Y-56750000D03*
%TO.P,CHI,2,D*%
%TO.N,KEY3-9*%
X160250000Y-63250000D03*
X160250000Y-56750000D03*
%TD*%
%TO.P,D,1,C*%
%TO.N,COM3-10*%
X63750000Y-49250000D03*
X63750000Y-42750000D03*
%TO.P,D,2,D*%
%TO.N,KEY0-4*%
X68250000Y-49250000D03*
X68250000Y-42750000D03*
%TD*%
%TO.P,K,1,C*%
%TO.N,COM2-6*%
X147750000Y-49250000D03*
X147750000Y-42750000D03*
%TO.P,K,2,D*%
%TO.N,KEY2-8*%
X152250000Y-49250000D03*
X152250000Y-42750000D03*
%TD*%
%TO.P,B,1,C*%
%TO.N,COM1-2*%
X39750000Y-49250000D03*
X39750000Y-42750000D03*
%TO.P,B,2,D*%
%TO.N,KEY0-4*%
X44250000Y-49250000D03*
X44250000Y-42750000D03*
%TD*%
%TO.P,N,1,C*%
%TO.N,COM1-2*%
X183750000Y-42750000D03*
X183750000Y-49250000D03*
%TO.P,N,2,D*%
%TO.N,KEY3-9*%
X188250000Y-42750000D03*
X188250000Y-49250000D03*
%TD*%
%TO.P,SMALL,1,C*%
%TO.N,COM4-7*%
X102750000Y-56750000D03*
X102750000Y-63250000D03*
%TO.P,SMALL,2,D*%
%TO.N,KEY5-1*%
X107250000Y-56750000D03*
X107250000Y-63250000D03*
%TD*%
%TO.P,START,1,C*%
%TO.N,COM0-3*%
X39750000Y-56750000D03*
X39750000Y-63250000D03*
%TO.P,START,2,D*%
%TO.N,KEY5-1*%
X44250000Y-63250000D03*
X44250000Y-56750000D03*
%TD*%
%TO.P,PON,1,C*%
%TO.N,COM3-10*%
X143750000Y-63250000D03*
X143750000Y-56750000D03*
%TO.P,PON,2,D*%
%TO.N,KEY3-9*%
X148250000Y-63250000D03*
X148250000Y-56750000D03*
%TD*%
D11*
%TO.P,KEY,1,Pin_1*%
%TO.N,KEY0-4*%
X82750000Y-31475000D03*
D12*
%TO.P,KEY,2,Pin_2*%
%TO.N,KEY1-5*%
X85250000Y-31475000D03*
%TO.P,KEY,3,Pin_3*%
%TO.N,KEY2-8*%
X87750000Y-31475000D03*
%TO.P,KEY,4,Pin_4*%
%TO.N,KEY3-9*%
X90250000Y-31475000D03*
%TO.P,KEY,5,Pin_5*%
%TO.N,KEY4-11*%
X92750000Y-31475000D03*
%TO.P,KEY,6,Pin_6*%
%TO.N,KEY5-1*%
X95250000Y-31475000D03*
%TD*%
D10*
%TO.P,TAKE,1,C*%
%TO.N,COM4-7*%
X66750000Y-63250000D03*
X66750000Y-56750000D03*
%TO.P,TAKE,2,D*%
%TO.N,KEY1-5*%
X71250000Y-63250000D03*
X71250000Y-56750000D03*
%TD*%
%TO.P,I,1,C*%
%TO.N,COM0-3*%
X123750000Y-42750000D03*
X123750000Y-49250000D03*
%TO.P,I,2,D*%
%TO.N,KEY2-8*%
X128250000Y-49250000D03*
X128250000Y-42750000D03*
%TD*%
%TO.P,COIN,1,C*%
%TO.N,GND*%
X33750000Y-33500000D03*
X33750000Y-27000000D03*
%TO.P,COIN,2,D*%
%TO.N,Coin*%
X38250000Y-27000000D03*
X38250000Y-33500000D03*
%TD*%
D11*
%TO.P,COM,1,Pin_1*%
%TO.N,COM0-3*%
X120650000Y-31500000D03*
D12*
%TO.P,COM,2,Pin_2*%
%TO.N,COM1-2*%
X123150000Y-31500000D03*
%TO.P,COM,3,Pin_3*%
%TO.N,COM2-6*%
X125650000Y-31500000D03*
%TO.P,COM,4,Pin_4*%
%TO.N,COM3-10*%
X128150000Y-31500000D03*
%TO.P,COM,5,Pin_5*%
%TO.N,COM4-7*%
X130650000Y-31500000D03*
%TD*%
D10*
%TO.P,BET,1,C*%
%TO.N,COM1-2*%
X51750000Y-63250000D03*
X51750000Y-56750000D03*
%TO.P,BET,2,D*%
%TO.N,KEY5-1*%
X56250000Y-63250000D03*
X56250000Y-56750000D03*
%TD*%
%TO.P,C,1,C*%
%TO.N,COM2-6*%
X51750000Y-42750000D03*
X51750000Y-49250000D03*
%TO.P,C,2,D*%
%TO.N,KEY0-4*%
X56250000Y-42750000D03*
X56250000Y-49250000D03*
%TD*%
%TO.P,F,1,C*%
%TO.N,COM1-2*%
X87750000Y-49250000D03*
X87750000Y-42750000D03*
%TO.P,F,2,D*%
%TO.N,KEY1-5*%
X92250000Y-49250000D03*
X92250000Y-42750000D03*
%TD*%
%TO.P,E,1,C*%
%TO.N,COM0-3*%
X75750000Y-42750000D03*
X75750000Y-49250000D03*
%TO.P,E,2,D*%
%TO.N,KEY1-5*%
X80250000Y-42750000D03*
X80250000Y-49250000D03*
%TD*%
%TO.P,J,1,C*%
%TO.N,COM1-2*%
X135750000Y-42750000D03*
X135750000Y-49250000D03*
%TO.P,J,2,D*%
%TO.N,KEY2-8*%
X140250000Y-42750000D03*
X140250000Y-49250000D03*
%TD*%
%TO.P,KAN,1,C*%
%TO.N,COM0-3*%
X131750000Y-56750000D03*
X131750000Y-63250000D03*
%TO.P,KAN,2,D*%
%TO.N,KEY4-11*%
X136250000Y-63250000D03*
X136250000Y-56750000D03*
%TD*%
%TO.P,RIICHI,1,C*%
%TO.N,COM1-2*%
X167750000Y-63250000D03*
X167750000Y-56750000D03*
%TO.P,RIICHI,2,D*%
%TO.N,KEY4-11*%
X172250000Y-63250000D03*
X172250000Y-56750000D03*
%TD*%
%TO.P,L,1,C*%
%TO.N,COM3-10*%
X159750000Y-42750000D03*
X159750000Y-49250000D03*
%TO.P,L,2,D*%
%TO.N,KEY2-8*%
X164250000Y-42750000D03*
X164250000Y-49250000D03*
%TD*%
D13*
%TO.N,GND*%
X73000000Y-35000000D02*
X42000000Y-35000000D01*
X138000000Y-27000000D02*
X138000000Y-35500000D01*
X163750000Y-34250000D02*
X165500000Y-36000000D01*
X73750000Y-33750000D02*
X73750000Y-34250000D01*
X175750000Y-35250000D02*
X175750000Y-34250000D01*
X163750000Y-34250000D02*
X163750000Y-27750000D01*
X175750000Y-34250000D02*
X175750000Y-27750000D01*
X165500000Y-36000000D02*
X175000000Y-36000000D01*
X175000000Y-36000000D02*
X175750000Y-35250000D01*
X116500000Y-35000000D02*
X117000000Y-34500000D01*
X163750000Y-35250000D02*
X163750000Y-34250000D01*
X138000000Y-35500000D02*
X138500000Y-36000000D01*
X39500000Y-31000000D02*
X34500000Y-31000000D01*
X73750000Y-31475000D02*
X73750000Y-33750000D01*
X120000000Y-25500000D02*
X136500000Y-25500000D01*
X33750000Y-31750000D02*
X33750000Y-33500000D01*
X138500000Y-36000000D02*
X163000000Y-36000000D01*
X40500000Y-33500000D02*
X40500000Y-32000000D01*
X73750000Y-34250000D02*
X74500000Y-35000000D01*
X74500000Y-35000000D02*
X116500000Y-35000000D01*
X136500000Y-25500000D02*
X138000000Y-27000000D01*
X40500000Y-32000000D02*
X39500000Y-31000000D01*
X34500000Y-31000000D02*
X33750000Y-31750000D01*
X117000000Y-34500000D02*
X117000000Y-28500000D01*
X42000000Y-35000000D02*
X40500000Y-33500000D01*
X73750000Y-34250000D02*
X73000000Y-35000000D01*
X163000000Y-36000000D02*
X163750000Y-35250000D01*
X33750000Y-33500000D02*
X33750000Y-27000000D01*
X117000000Y-28500000D02*
X120000000Y-25500000D01*
%TO.N,KEY5-1*%
X107000000Y-67000000D02*
X57000000Y-67000000D01*
X57000000Y-67000000D02*
X56250000Y-66250000D01*
X56250000Y-66250000D02*
X56250000Y-63250000D01*
X107250000Y-63250000D02*
X107250000Y-66750000D01*
X107250000Y-66750000D02*
X107000000Y-67000000D01*
%TO.N,COM4-7*%
X66750000Y-63250000D02*
X66750000Y-56750000D01*
X66750000Y-56750000D02*
X66750000Y-54750000D01*
X90750000Y-63250000D02*
X90750000Y-56750000D01*
X118750000Y-56750000D02*
X118750000Y-55250000D01*
X102750000Y-55250000D02*
X103500000Y-54500000D01*
X78750000Y-55250000D02*
X79500000Y-54500000D01*
X49750000Y-54750000D02*
X49500000Y-55000000D01*
X118750000Y-55250000D02*
X119500000Y-54500000D01*
X27750000Y-64750000D02*
X27750000Y-63250000D01*
X121500000Y-54500000D02*
X119500000Y-54500000D01*
X130650000Y-40350000D02*
X130500000Y-40500000D01*
X90750000Y-55250000D02*
X91500000Y-54500000D01*
X90750000Y-56750000D02*
X90750000Y-55250000D01*
X28500000Y-65500000D02*
X27750000Y-64750000D01*
X121500000Y-40500000D02*
X121500000Y-54500000D01*
X78750000Y-56750000D02*
X78750000Y-55250000D01*
X66750000Y-54750000D02*
X49750000Y-54750000D01*
X91500000Y-54500000D02*
X79500000Y-54500000D01*
X103500000Y-54500000D02*
X91500000Y-54500000D01*
X102750000Y-56750000D02*
X102750000Y-55250000D01*
X118750000Y-63250000D02*
X118750000Y-56750000D01*
X49500000Y-55000000D02*
X49500000Y-65500000D01*
X130500000Y-40500000D02*
X121500000Y-40500000D01*
X130650000Y-31500000D02*
X130650000Y-40350000D01*
X78750000Y-63250000D02*
X78750000Y-56750000D01*
X119500000Y-54500000D02*
X103500000Y-54500000D01*
X102750000Y-63250000D02*
X102750000Y-56750000D01*
X49500000Y-65500000D02*
X28500000Y-65500000D01*
X27750000Y-63250000D02*
X27750000Y-56750000D01*
%TO.N,COM3-10*%
X159750000Y-49250000D02*
X159750000Y-42750000D01*
X100000000Y-39000000D02*
X100500000Y-39500000D01*
X111750000Y-49250000D02*
X111750000Y-42750000D01*
X129000000Y-29500000D02*
X128150000Y-30350000D01*
X112500000Y-39500000D02*
X127000000Y-39500000D01*
X63750000Y-39250000D02*
X64000000Y-39000000D01*
X127000000Y-39500000D02*
X128150000Y-38350000D01*
X63750000Y-42750000D02*
X63750000Y-39250000D01*
X100500000Y-39500000D02*
X112500000Y-39500000D01*
X111750000Y-42750000D02*
X111750000Y-40250000D01*
X159750000Y-42750000D02*
X159750000Y-40750000D01*
X63750000Y-42750000D02*
X63750000Y-49250000D01*
X133500000Y-29500000D02*
X129000000Y-29500000D01*
X111750000Y-40250000D02*
X112500000Y-39500000D01*
X159000000Y-40000000D02*
X134500000Y-40000000D01*
X134500000Y-40000000D02*
X134000000Y-39500000D01*
X134000000Y-39500000D02*
X134000000Y-30000000D01*
X64000000Y-39000000D02*
X100000000Y-39000000D01*
X128150000Y-38350000D02*
X128150000Y-31500000D01*
X134000000Y-30000000D02*
X133500000Y-29500000D01*
X128150000Y-30350000D02*
X128150000Y-31500000D01*
X159750000Y-40750000D02*
X159000000Y-40000000D01*
%TO.N,COM2-6*%
X165000000Y-39000000D02*
X135500000Y-39000000D01*
X135500000Y-39000000D02*
X135000000Y-38500000D01*
X147750000Y-42750000D02*
X147750000Y-49250000D01*
X51750000Y-38750000D02*
X52500000Y-38000000D01*
X166000000Y-51000000D02*
X166000000Y-40500000D01*
X124500000Y-38500000D02*
X125650000Y-37350000D01*
X125650000Y-37350000D02*
X125650000Y-31500000D01*
X155750000Y-63250000D02*
X155750000Y-56750000D01*
X147750000Y-50750000D02*
X148500000Y-51500000D01*
X178000000Y-54500000D02*
X178000000Y-41000000D01*
X177500000Y-40500000D02*
X166000000Y-40500000D01*
X99750000Y-40250000D02*
X99500000Y-40000000D01*
X99750000Y-49250000D02*
X99750000Y-42750000D01*
X166000000Y-40500000D02*
X166000000Y-40000000D01*
X70000000Y-40500000D02*
X70000000Y-51000000D01*
X69500000Y-51500000D02*
X52500000Y-51500000D01*
X99500000Y-40000000D02*
X70500000Y-40000000D01*
X147750000Y-49250000D02*
X147750000Y-50750000D01*
X183750000Y-55250000D02*
X183500000Y-55000000D01*
X148500000Y-51500000D02*
X156000000Y-51500000D01*
X178000000Y-41000000D02*
X177500000Y-40500000D01*
X135000000Y-38500000D02*
X135000000Y-29000000D01*
X51750000Y-50750000D02*
X51750000Y-49250000D01*
X70000000Y-51000000D02*
X69500000Y-51500000D01*
X155750000Y-51750000D02*
X156000000Y-51500000D01*
X99750000Y-42750000D02*
X99750000Y-40250000D01*
X51750000Y-42750000D02*
X51750000Y-38750000D01*
X156000000Y-51500000D02*
X165500000Y-51500000D01*
X51750000Y-49250000D02*
X51750000Y-42750000D01*
X70500000Y-40000000D02*
X70000000Y-40500000D01*
X134500000Y-28500000D02*
X127000000Y-28500000D01*
X166000000Y-40000000D02*
X165000000Y-39000000D01*
X183750000Y-63250000D02*
X183750000Y-56750000D01*
X183500000Y-55000000D02*
X178500000Y-55000000D01*
X101000000Y-38500000D02*
X124500000Y-38500000D01*
X125650000Y-29850000D02*
X125650000Y-31500000D01*
X178500000Y-55000000D02*
X178000000Y-54500000D01*
X155750000Y-56750000D02*
X155750000Y-51750000D01*
X165500000Y-51500000D02*
X166000000Y-51000000D01*
X52500000Y-51500000D02*
X51750000Y-50750000D01*
X127000000Y-28500000D02*
X125650000Y-29850000D01*
X135000000Y-29000000D02*
X134500000Y-28500000D01*
X52500000Y-38000000D02*
X100500000Y-38000000D01*
X100500000Y-38000000D02*
X101000000Y-38500000D01*
X183750000Y-56750000D02*
X183750000Y-55250000D01*
%TO.N,COM1-2*%
X123150000Y-36350000D02*
X123150000Y-31500000D01*
X125500000Y-65000000D02*
X110000000Y-65000000D01*
X185500000Y-51000000D02*
X183750000Y-49250000D01*
X25500000Y-65000000D02*
X25500000Y-54500000D01*
X183750000Y-49250000D02*
X183750000Y-42750000D01*
X135750000Y-42750000D02*
X135750000Y-49250000D01*
X104500000Y-65000000D02*
X76500000Y-65000000D01*
X87750000Y-49250000D02*
X87750000Y-42750000D01*
X27000000Y-66500000D02*
X25500000Y-65000000D01*
X101000000Y-37000000D02*
X101500000Y-37500000D01*
X58250000Y-59750000D02*
X51750000Y-59750000D01*
X39750000Y-37750000D02*
X40500000Y-37000000D01*
X183750000Y-42750000D02*
X183750000Y-41250000D01*
X104500000Y-60000000D02*
X104500000Y-65000000D01*
X136500000Y-38000000D02*
X136000000Y-37500000D01*
X136000000Y-28500000D02*
X135000000Y-27500000D01*
X64000000Y-65500000D02*
X58250000Y-59750000D01*
X39750000Y-42750000D02*
X39750000Y-37750000D01*
X87750000Y-50750000D02*
X87750000Y-49250000D01*
X39750000Y-53750000D02*
X39750000Y-49250000D01*
X167750000Y-63250000D02*
X167750000Y-65250000D01*
X69000000Y-54500000D02*
X69000000Y-65500000D01*
X110000000Y-65000000D02*
X110000000Y-60000000D01*
X167750000Y-56750000D02*
X167750000Y-63250000D01*
X51750000Y-66250000D02*
X51500000Y-66500000D01*
X39750000Y-49250000D02*
X39750000Y-42750000D01*
X40500000Y-37000000D02*
X101000000Y-37000000D01*
X71000000Y-52500000D02*
X69000000Y-54500000D01*
X87750000Y-42750000D02*
X87750000Y-41250000D01*
X123150000Y-29850000D02*
X123150000Y-31500000D01*
X87000000Y-51500000D02*
X87750000Y-50750000D01*
X185000000Y-65500000D02*
X185500000Y-65000000D01*
X185500000Y-65000000D02*
X185500000Y-51000000D01*
X183750000Y-41250000D02*
X180500000Y-38000000D01*
X77000000Y-51500000D02*
X87000000Y-51500000D01*
X69000000Y-65500000D02*
X64000000Y-65500000D01*
X125500000Y-27500000D02*
X123150000Y-29850000D01*
X87500000Y-41000000D02*
X71000000Y-41000000D01*
X71000000Y-41000000D02*
X71000000Y-52500000D01*
X180500000Y-38000000D02*
X136500000Y-38000000D01*
X168000000Y-65500000D02*
X185000000Y-65500000D01*
X76500000Y-65000000D02*
X76500000Y-52000000D01*
X135000000Y-27500000D02*
X125500000Y-27500000D01*
X51750000Y-63250000D02*
X51750000Y-66250000D01*
X110000000Y-60000000D02*
X104500000Y-60000000D01*
X136000000Y-37500000D02*
X136000000Y-28500000D01*
X39000000Y-54500000D02*
X39750000Y-53750000D01*
X51750000Y-56750000D02*
X51750000Y-59750000D01*
X135750000Y-49250000D02*
X132250000Y-49250000D01*
X132250000Y-49250000D02*
X125500000Y-56000000D01*
X76500000Y-52000000D02*
X77000000Y-51500000D01*
X51750000Y-59750000D02*
X51750000Y-63250000D01*
X122000000Y-37500000D02*
X123150000Y-36350000D01*
X167750000Y-65250000D02*
X168000000Y-65500000D01*
X25500000Y-54500000D02*
X39000000Y-54500000D01*
X125500000Y-56000000D02*
X125500000Y-65000000D01*
X51500000Y-66500000D02*
X27000000Y-66500000D01*
X87750000Y-41250000D02*
X87500000Y-41000000D01*
X101500000Y-37500000D02*
X122000000Y-37500000D01*
%TO.N,COM0-3*%
X75750000Y-49250000D02*
X75750000Y-65750000D01*
X27750000Y-42750000D02*
X27750000Y-36250000D01*
X186000000Y-66500000D02*
X186500000Y-66000000D01*
X109000000Y-61000000D02*
X109000000Y-66000000D01*
X105500000Y-66000000D02*
X105500000Y-61000000D01*
X131500000Y-66000000D02*
X131750000Y-65750000D01*
X131750000Y-63250000D02*
X131750000Y-65750000D01*
X27750000Y-36250000D02*
X28000000Y-36000000D01*
X120650000Y-28350000D02*
X120650000Y-31500000D01*
X109000000Y-66000000D02*
X131500000Y-66000000D01*
X186500000Y-66000000D02*
X186500000Y-41000000D01*
X135500000Y-26500000D02*
X122500000Y-26500000D01*
X186500000Y-41000000D02*
X182500000Y-37000000D01*
X171750000Y-54250000D02*
X171000000Y-55000000D01*
X122500000Y-26500000D02*
X120650000Y-28350000D01*
X102500000Y-36500000D02*
X119500000Y-36500000D01*
X76000000Y-66000000D02*
X105500000Y-66000000D01*
X182500000Y-37000000D02*
X137500000Y-37000000D01*
X75750000Y-65750000D02*
X76000000Y-66000000D01*
X171000000Y-55000000D02*
X165500000Y-55000000D01*
X75750000Y-42750000D02*
X75750000Y-49250000D01*
X28000000Y-36000000D02*
X102000000Y-36000000D01*
X120650000Y-35350000D02*
X120650000Y-31500000D01*
X27750000Y-49250000D02*
X27750000Y-42750000D01*
X137000000Y-36500000D02*
X137000000Y-28000000D01*
X171750000Y-42750000D02*
X171750000Y-49250000D01*
X171750000Y-49250000D02*
X171750000Y-54250000D01*
X165500000Y-55000000D02*
X165500000Y-66500000D01*
X137500000Y-37000000D02*
X137000000Y-36500000D01*
X102000000Y-36000000D02*
X102500000Y-36500000D01*
X119500000Y-36500000D02*
X120650000Y-35350000D01*
X132500000Y-66500000D02*
X165500000Y-66500000D01*
X165500000Y-66500000D02*
X186000000Y-66500000D01*
X105500000Y-61000000D02*
X109000000Y-61000000D01*
X137000000Y-28000000D02*
X135500000Y-26500000D01*
X131750000Y-65750000D02*
X132500000Y-66500000D01*
%TD*%
M02*
