M48
; DRILL file {KiCad (6.0.8)} date Thu Dec 29 19:13:19 2022
; FORMAT={-:-/ absolute / metric / decimal}
; #@! TF.CreationDate,2022-12-29T19:13:19+02:00
; #@! TF.GenerationSoftware,Kicad,Pcbnew,(6.0.8)
; #@! TF.FileFunction,Plated,1,2,PTH
FMAT,2
METRIC
; #@! TA.AperFunction,Plated,PTH,ComponentDrill
T1C0.950
; #@! TA.AperFunction,Plated,PTH,ComponentDrill
T2C1.100
; #@! TA.AperFunction,Plated,PTH,ComponentDrill
T3C1.300
%
G90
G05
T1
X106.25Y-30.975
X108.75Y-30.975
X111.25Y-30.975
X113.75Y-30.975
X124.75Y-30.975
X127.25Y-30.975
X129.75Y-30.975
X132.25Y-30.975
X134.75Y-30.975
X137.25Y-30.975
X162.65Y-31.0
X165.15Y-31.0
X167.65Y-31.0
X170.15Y-31.0
X172.65Y-31.0
T2
X37.25Y-24.75
X37.25Y-31.25
X41.75Y-24.75
X41.75Y-31.25
X51.75Y-24.75
X51.75Y-31.25
X56.25Y-24.75
X56.25Y-31.25
X66.25Y-24.75
X66.25Y-31.25
X70.75Y-24.75
X70.75Y-31.25
T3
X27.0Y-42.5
X27.0Y-55.0
X27.0Y-64.5
X27.0Y-77.0
X32.0Y-42.5
X32.0Y-55.0
X32.0Y-64.5
X32.0Y-77.0
X45.0Y-42.5
X45.0Y-55.0
X45.0Y-64.5
X45.0Y-77.0
X50.0Y-42.5
X50.0Y-55.0
X50.0Y-64.5
X50.0Y-77.0
X63.0Y-42.5
X63.0Y-55.0
X63.0Y-64.5
X63.0Y-77.0
X68.0Y-42.5
X68.0Y-55.0
X68.0Y-64.5
X68.0Y-77.0
X81.0Y-42.5
X81.0Y-55.0
X86.0Y-42.5
X86.0Y-55.0
X88.0Y-64.5
X88.0Y-77.0
X93.0Y-64.5
X93.0Y-77.0
X99.0Y-42.5
X99.0Y-55.0
X104.0Y-42.5
X104.0Y-55.0
X106.0Y-64.5
X106.0Y-77.0
X111.0Y-64.5
X111.0Y-77.0
X117.0Y-42.5
X117.0Y-55.0
X122.0Y-42.5
X122.0Y-55.0
X124.0Y-64.5
X124.0Y-77.0
X129.0Y-64.5
X129.0Y-77.0
X135.0Y-42.5
X135.0Y-55.0
X140.0Y-42.5
X140.0Y-55.0
X142.0Y-64.5
X142.0Y-77.0
X147.0Y-64.5
X147.0Y-77.0
X153.0Y-42.5
X153.0Y-55.0
X158.0Y-42.5
X158.0Y-55.0
X167.0Y-64.5
X167.0Y-77.0
X171.0Y-42.5
X171.0Y-55.0
X172.0Y-64.5
X172.0Y-77.0
X176.0Y-42.5
X176.0Y-55.0
X185.0Y-64.5
X185.0Y-77.0
X189.0Y-42.5
X189.0Y-55.0
X190.0Y-64.5
X190.0Y-77.0
X194.0Y-42.5
X194.0Y-55.0
X203.0Y-64.5
X203.0Y-77.0
X207.0Y-42.5
X207.0Y-55.0
X208.0Y-64.5
X208.0Y-77.0
X212.0Y-42.5
X212.0Y-55.0
X221.0Y-64.5
X221.0Y-77.0
X225.0Y-42.5
X225.0Y-55.0
X226.0Y-64.5
X226.0Y-77.0
X230.0Y-42.5
X230.0Y-55.0
X239.0Y-64.5
X239.0Y-77.0
X243.0Y-42.5
X243.0Y-55.0
X244.0Y-64.5
X244.0Y-77.0
X248.0Y-42.5
X248.0Y-55.0
X268.0Y-42.5
X268.0Y-55.0
X268.0Y-64.5
X268.0Y-77.0
X273.0Y-42.5
X273.0Y-55.0
X273.0Y-64.5
X273.0Y-77.0
T0
M30
