%TF.GenerationSoftware,KiCad,Pcbnew,(6.0.8)*%
%TF.CreationDate,2022-12-29T19:12:47+02:00*%
%TF.ProjectId,mahjong_control_panel,6d61686a-6f6e-4675-9f63-6f6e74726f6c,rev?*%
%TF.SameCoordinates,Original*%
%TF.FileFunction,Copper,L1,Top*%
%TF.FilePolarity,Positive*%
%FSLAX46Y46*%
G04 Gerber Fmt 4.6, Leading zero omitted, Abs format (unit mm)*
G04 Created by KiCad (PCBNEW (6.0.8)) date 2022-12-29 19:12:47*
%MOMM*%
%LPD*%
G01*
G04 APERTURE LIST*
G04 Aperture macros list*
%AMRoundRect*
0 Rectangle with rounded corners*
0 $1 Rounding radius*
0 $2 $3 $4 $5 $6 $7 $8 $9 X,Y pos of 4 corners*
0 Add a 4 corners polygon primitive as box body*
4,1,4,$2,$3,$4,$5,$6,$7,$8,$9,$2,$3,0*
0 Add four circle primitives for the rounded corners*
1,1,$1+$1,$2,$3*
1,1,$1+$1,$4,$5*
1,1,$1+$1,$6,$7*
1,1,$1+$1,$8,$9*
0 Add four rect primitives between the rounded corners*
20,1,$1+$1,$2,$3,$4,$5,0*
20,1,$1+$1,$4,$5,$6,$7,0*
20,1,$1+$1,$6,$7,$8,$9,0*
20,1,$1+$1,$8,$9,$2,$3,0*%
G04 Aperture macros list end*
%TA.AperFunction,ComponentPad*%
%ADD10O,1.850000X3.048000*%
%TD*%
%TA.AperFunction,ComponentPad*%
%ADD11RoundRect,0.250000X-0.600000X-0.725000X0.600000X-0.725000X0.600000X0.725000X-0.600000X0.725000X0*%
%TD*%
%TA.AperFunction,ComponentPad*%
%ADD12O,1.700000X1.950000*%
%TD*%
%TA.AperFunction,Conductor*%
%ADD13C,0.250000*%
%TD*%
G04 APERTURE END LIST*
D10*
%TO.P,H,1,C*%
%TO.N,COM3-10*%
X153000000Y-42500000D03*
X153000000Y-55000000D03*
%TO.P,H,2,D*%
%TO.N,KEY1-5*%
X158000000Y-55000000D03*
X158000000Y-42500000D03*
%TD*%
%TO.P,C,1,C*%
%TO.N,COM2-6*%
X63000000Y-55000000D03*
X63000000Y-42500000D03*
%TO.P,C,2,D*%
%TO.N,KEY0-4*%
X68000000Y-42500000D03*
X68000000Y-55000000D03*
%TD*%
%TO.P,I,1,C*%
%TO.N,COM0-3*%
X171000000Y-55000000D03*
X171000000Y-42500000D03*
%TO.P,I,2,D*%
%TO.N,KEY2-8*%
X176000000Y-55000000D03*
X176000000Y-42500000D03*
%TD*%
%TO.P,RIICHI,1,C*%
%TO.N,COM1-2*%
X239000000Y-77000000D03*
X239000000Y-64500000D03*
%TO.P,RIICHI,2,D*%
%TO.N,KEY4-11*%
X244000000Y-77000000D03*
X244000000Y-64500000D03*
%TD*%
%TO.P,RON,1,C*%
%TO.N,COM2-6*%
X268000000Y-64500000D03*
X268000000Y-77000000D03*
%TO.P,RON,2,D*%
%TO.N,KEY4-11*%
X273000000Y-77000000D03*
X273000000Y-64500000D03*
%TD*%
%TO.P,KAN,1,C*%
%TO.N,COM0-3*%
X185000000Y-77000000D03*
X185000000Y-64500000D03*
%TO.P,KAN,2,D*%
%TO.N,KEY4-11*%
X190000000Y-64500000D03*
X190000000Y-77000000D03*
%TD*%
%TO.P,LAST,1,C*%
%TO.N,COM4-7*%
X167000000Y-64500000D03*
X167000000Y-77000000D03*
%TO.P,LAST,2,D*%
%TO.N,KEY0-4*%
X172000000Y-64500000D03*
X172000000Y-77000000D03*
%TD*%
%TO.P,D,1,C*%
%TO.N,COM3-10*%
X81000000Y-55000000D03*
X81000000Y-42500000D03*
%TO.P,D,2,D*%
%TO.N,KEY0-4*%
X86000000Y-55000000D03*
X86000000Y-42500000D03*
%TD*%
%TO.P,K,1,C*%
%TO.N,COM2-6*%
X207000000Y-55000000D03*
X207000000Y-42500000D03*
%TO.P,K,2,D*%
%TO.N,KEY2-8*%
X212000000Y-55000000D03*
X212000000Y-42500000D03*
%TD*%
%TO.P,PON,1,C*%
%TO.N,COM3-10*%
X203000000Y-77000000D03*
X203000000Y-64500000D03*
%TO.P,PON,2,D*%
%TO.N,KEY3-9*%
X208000000Y-77000000D03*
X208000000Y-64500000D03*
%TD*%
%TO.P,BIG,1,C*%
%TO.N,COM4-7*%
X124000000Y-64500000D03*
X124000000Y-77000000D03*
%TO.P,BIG,2,D*%
%TO.N,KEY4-11*%
X129000000Y-77000000D03*
X129000000Y-64500000D03*
%TD*%
%TO.P,N,1,C*%
%TO.N,COM1-2*%
X268000000Y-42500000D03*
X268000000Y-55000000D03*
%TO.P,N,2,D*%
%TO.N,KEY3-9*%
X273000000Y-42500000D03*
X273000000Y-55000000D03*
%TD*%
%TO.P,F,1,C*%
%TO.N,COM1-2*%
X117000000Y-42500000D03*
X117000000Y-55000000D03*
%TO.P,F,2,D*%
%TO.N,KEY1-5*%
X122000000Y-55000000D03*
X122000000Y-42500000D03*
%TD*%
%TO.P,TAKE,1,C*%
%TO.N,COM4-7*%
X88000000Y-64500000D03*
X88000000Y-77000000D03*
%TO.P,TAKE,2,D*%
%TO.N,KEY1-5*%
X93000000Y-77000000D03*
X93000000Y-64500000D03*
%TD*%
%TO.P,G,1,C*%
%TO.N,COM2-6*%
X135000000Y-42500000D03*
X135000000Y-55000000D03*
%TO.P,G,2,D*%
%TO.N,KEY1-5*%
X140000000Y-55000000D03*
X140000000Y-42500000D03*
%TD*%
%TO.P,BET,1,C*%
%TO.N,COM1-2*%
X63000000Y-64500000D03*
X63000000Y-77000000D03*
%TO.P,BET,2,D*%
%TO.N,KEY5-1*%
X68000000Y-64500000D03*
X68000000Y-77000000D03*
%TD*%
D11*
%TO.P,J2 KEY,1,Pin_1*%
%TO.N,KEY0-4*%
X124750000Y-30000000D03*
D12*
%TO.P,J2 KEY,2,Pin_2*%
%TO.N,KEY1-5*%
X127250000Y-30000000D03*
%TO.P,J2 KEY,3,Pin_3*%
%TO.N,KEY2-8*%
X129750000Y-30000000D03*
%TO.P,J2 KEY,4,Pin_4*%
%TO.N,KEY3-9*%
X132250000Y-30000000D03*
%TO.P,J2 KEY,5,Pin_5*%
%TO.N,KEY4-11*%
X134750000Y-30000000D03*
%TO.P,J2 KEY,6,Pin_6*%
%TO.N,KEY5-1*%
X137250000Y-30000000D03*
%TD*%
D10*
%TO.P,F.F.,1,C*%
%TO.N,COM4-7*%
X27000000Y-64500000D03*
X27000000Y-77000000D03*
%TO.P,F.F.,2,D*%
%TO.N,KEY3-9*%
X32000000Y-64500000D03*
X32000000Y-77000000D03*
%TD*%
%TO.P,WUP,1,C*%
%TO.N,COM4-7*%
X106000000Y-77000000D03*
X106000000Y-64500000D03*
%TO.P,WUP,2,D*%
%TO.N,KEY2-8*%
X111000000Y-77000000D03*
X111000000Y-64500000D03*
%TD*%
%TO.P,START,1,C*%
%TO.N,COM0-3*%
X45000000Y-77000000D03*
X45000000Y-64500000D03*
%TO.P,START,2,D*%
%TO.N,KEY5-1*%
X50000000Y-64500000D03*
X50000000Y-77000000D03*
%TD*%
%TO.P,M,1,C*%
%TO.N,COM0-3*%
X243000000Y-55000000D03*
X243000000Y-42500000D03*
%TO.P,M,2,D*%
%TO.N,KEY3-9*%
X248000000Y-42500000D03*
X248000000Y-55000000D03*
%TD*%
%TO.P,L,1,C*%
%TO.N,COM3-10*%
X225000000Y-42500000D03*
X225000000Y-55000000D03*
%TO.P,L,2,D*%
%TO.N,KEY2-8*%
X230000000Y-42500000D03*
X230000000Y-55000000D03*
%TD*%
%TO.P,CHI,1,C*%
%TO.N,COM2-6*%
X221000000Y-77000000D03*
X221000000Y-64500000D03*
%TO.P,CHI,2,D*%
%TO.N,KEY3-9*%
X226000000Y-64500000D03*
X226000000Y-77000000D03*
%TD*%
%TO.P,B,1,C*%
%TO.N,COM1-2*%
X45000000Y-42500000D03*
X45000000Y-55000000D03*
%TO.P,B,2,D*%
%TO.N,KEY0-4*%
X50000000Y-42500000D03*
X50000000Y-55000000D03*
%TD*%
%TO.P,A,1,C*%
%TO.N,COM0-3*%
X27000000Y-55000000D03*
X27000000Y-42500000D03*
%TO.P,A,2,D*%
%TO.N,KEY0-4*%
X32000000Y-55000000D03*
X32000000Y-42500000D03*
%TD*%
D11*
%TO.P,J1 COM,1,Pin_1*%
%TO.N,COM0-3*%
X162650000Y-30000000D03*
D12*
%TO.P,J1 COM,2,Pin_2*%
%TO.N,COM1-2*%
X165150000Y-30000000D03*
%TO.P,J1 COM,3,Pin_3*%
%TO.N,COM2-6*%
X167650000Y-30000000D03*
%TO.P,J1 COM,4,Pin_4*%
%TO.N,COM3-10*%
X170150000Y-30000000D03*
%TO.P,J1 COM,5,Pin_5*%
%TO.N,COM4-7*%
X172650000Y-30000000D03*
%TD*%
D10*
%TO.P,E,1,C*%
%TO.N,COM0-3*%
X99000000Y-55000000D03*
X99000000Y-42500000D03*
%TO.P,E,2,D*%
%TO.N,KEY1-5*%
X104000000Y-55000000D03*
X104000000Y-42500000D03*
%TD*%
%TO.P,SMALL,1,C*%
%TO.N,COM4-7*%
X142000000Y-64500000D03*
X142000000Y-77000000D03*
%TO.P,SMALL,2,D*%
%TO.N,KEY5-1*%
X147000000Y-64500000D03*
X147000000Y-77000000D03*
%TD*%
%TO.P,J,1,C*%
%TO.N,COM1-2*%
X189000000Y-42500000D03*
X189000000Y-55000000D03*
%TO.P,J,2,D*%
%TO.N,KEY2-8*%
X194000000Y-42500000D03*
X194000000Y-55000000D03*
%TD*%
D13*
%TO.N,COM0-3*%
X27000000Y-55000000D02*
X27000000Y-42500000D01*
X171000000Y-42500000D02*
X171000000Y-55000000D01*
X180500000Y-64500000D02*
X171000000Y-55000000D01*
X45000000Y-77000000D02*
X45000000Y-64500000D01*
X45000000Y-62000000D02*
X27000000Y-62000000D01*
X185000000Y-64500000D02*
X185000000Y-77000000D01*
X185000000Y-64500000D02*
X180500000Y-64500000D01*
X27000000Y-62000000D02*
X27000000Y-55000000D01*
X45000000Y-64500000D02*
X45000000Y-62000000D01*
%TO.N,COM3-10*%
X203000000Y-61000000D02*
X225000000Y-61000000D01*
X203000000Y-64500000D02*
X203000000Y-61000000D01*
X225000000Y-61000000D02*
X225000000Y-55000000D01*
X203000000Y-64500000D02*
X203000000Y-77000000D01*
X225000000Y-55000000D02*
X225000000Y-42500000D01*
%TO.N,COM4-7*%
X106000000Y-80000000D02*
X106000000Y-77000000D01*
X88000000Y-80000000D02*
X106000000Y-80000000D01*
X88000000Y-77000000D02*
X88000000Y-80000000D01*
%TO.N,KEY0-4*%
X91000000Y-33000000D02*
X123000000Y-33000000D01*
X113000000Y-81000000D02*
X83000000Y-81000000D01*
X123000000Y-33000000D02*
X124750000Y-31250000D01*
X50000000Y-42500000D02*
X50000000Y-33000000D01*
X68000000Y-33000000D02*
X78000000Y-33000000D01*
X83000000Y-81000000D02*
X83000000Y-58000000D01*
X124750000Y-31250000D02*
X124750000Y-30000000D01*
X50000000Y-55000000D02*
X50000000Y-42500000D01*
X172000000Y-64500000D02*
X172000000Y-77000000D01*
X89000000Y-33000000D02*
X91000000Y-33000000D01*
X56000000Y-33000000D02*
X78000000Y-33000000D01*
X91000000Y-58000000D02*
X91000000Y-33000000D01*
X78000000Y-33000000D02*
X89000000Y-33000000D01*
X86000000Y-42500000D02*
X86000000Y-33000000D01*
X172000000Y-64500000D02*
X172000000Y-62000000D01*
X86000000Y-55000000D02*
X86000000Y-42500000D01*
X86000000Y-33000000D02*
X89000000Y-33000000D01*
X172000000Y-62000000D02*
X113000000Y-62000000D01*
X50000000Y-33000000D02*
X56000000Y-33000000D01*
X113000000Y-62000000D02*
X113000000Y-81000000D01*
X68000000Y-42500000D02*
X68000000Y-33000000D01*
X32000000Y-55000000D02*
X32000000Y-42500000D01*
X32000000Y-33000000D02*
X56000000Y-33000000D01*
X32000000Y-42500000D02*
X32000000Y-33000000D01*
X68000000Y-55000000D02*
X68000000Y-42500000D01*
X83000000Y-58000000D02*
X91000000Y-58000000D01*
%TO.N,KEY1-5*%
X104000000Y-55000000D02*
X104000000Y-42500000D01*
X104000000Y-34000000D02*
X127000000Y-34000000D01*
X93000000Y-64500000D02*
X93000000Y-34000000D01*
X93000000Y-34000000D02*
X104000000Y-34000000D01*
X140000000Y-55000000D02*
X140000000Y-42500000D01*
X140000000Y-42500000D02*
X140000000Y-40000000D01*
X158000000Y-42500000D02*
X158000000Y-40000000D01*
X127000000Y-40000000D02*
X127000000Y-34000000D01*
X127000000Y-34000000D02*
X127250000Y-33750000D01*
X158000000Y-55000000D02*
X158000000Y-42500000D01*
X93000000Y-77000000D02*
X93000000Y-64500000D01*
X104000000Y-42500000D02*
X104000000Y-34000000D01*
X127250000Y-33750000D02*
X127250000Y-30000000D01*
X140000000Y-40000000D02*
X127000000Y-40000000D01*
X122000000Y-55000000D02*
X122000000Y-42500000D01*
X122000000Y-42500000D02*
X122000000Y-34000000D01*
X158000000Y-40000000D02*
X140000000Y-40000000D01*
%TO.N,KEY2-8*%
X111000000Y-59000000D02*
X111000000Y-58000000D01*
X194000000Y-55000000D02*
X194000000Y-42500000D01*
X129750000Y-38750000D02*
X129750000Y-30000000D01*
X230000000Y-42500000D02*
X230000000Y-39000000D01*
X212000000Y-55000000D02*
X212000000Y-42500000D01*
X130000000Y-39000000D02*
X129750000Y-38750000D01*
X212000000Y-39000000D02*
X194000000Y-39000000D01*
X176000000Y-55000000D02*
X176000000Y-42500000D01*
X111000000Y-58000000D02*
X163000000Y-58000000D01*
X194000000Y-42500000D02*
X194000000Y-39000000D01*
X230000000Y-39000000D02*
X212000000Y-39000000D01*
X230000000Y-55000000D02*
X230000000Y-42500000D01*
X176000000Y-42500000D02*
X176000000Y-39000000D01*
X111000000Y-77000000D02*
X111000000Y-64500000D01*
X194000000Y-39000000D02*
X176000000Y-39000000D01*
X176000000Y-39000000D02*
X130000000Y-39000000D01*
X111000000Y-64500000D02*
X111000000Y-59000000D01*
X163000000Y-58000000D02*
X163000000Y-39000000D01*
X212000000Y-42500000D02*
X212000000Y-39000000D01*
%TO.N,KEY3-9*%
X117000000Y-32000000D02*
X122000000Y-27000000D01*
X32000000Y-80000000D02*
X25000000Y-80000000D01*
X208000000Y-77000000D02*
X208000000Y-64500000D01*
X32000000Y-77000000D02*
X32000000Y-64500000D01*
X133000000Y-38000000D02*
X132250000Y-37250000D01*
X226000000Y-62000000D02*
X235000000Y-62000000D01*
X273000000Y-55000000D02*
X273000000Y-42500000D01*
X208000000Y-64500000D02*
X208000000Y-62000000D01*
X248000000Y-55000000D02*
X248000000Y-42500000D01*
X248000000Y-38000000D02*
X235000000Y-38000000D01*
X132250000Y-29250000D02*
X132250000Y-30000000D01*
X25000000Y-80000000D02*
X25000000Y-32000000D01*
X130000000Y-27000000D02*
X132250000Y-29250000D01*
X248000000Y-42500000D02*
X248000000Y-38000000D01*
X208000000Y-62000000D02*
X226000000Y-62000000D01*
X32000000Y-77000000D02*
X32000000Y-80000000D01*
X273000000Y-38000000D02*
X248000000Y-38000000D01*
X235000000Y-62000000D02*
X235000000Y-38000000D01*
X235000000Y-38000000D02*
X133000000Y-38000000D01*
X273000000Y-42500000D02*
X273000000Y-38000000D01*
X122000000Y-27000000D02*
X130000000Y-27000000D01*
X132250000Y-37250000D02*
X132250000Y-30000000D01*
X226000000Y-64500000D02*
X226000000Y-62000000D01*
X25000000Y-32000000D02*
X117000000Y-32000000D01*
X226000000Y-77000000D02*
X226000000Y-64500000D01*
%TO.N,KEY4-11*%
X244000000Y-64500000D02*
X244000000Y-61000000D01*
X273000000Y-77000000D02*
X273000000Y-64500000D01*
X136000000Y-37000000D02*
X134750000Y-35750000D01*
X191000000Y-80000000D02*
X278000000Y-80000000D01*
X190000000Y-77000000D02*
X190000000Y-80000000D01*
X273000000Y-61000000D02*
X274000000Y-61000000D01*
X129000000Y-77000000D02*
X129000000Y-80000000D01*
X244000000Y-61000000D02*
X274000000Y-61000000D01*
X278000000Y-80000000D02*
X278000000Y-61000000D01*
X278000000Y-37000000D02*
X136000000Y-37000000D01*
X278000000Y-61000000D02*
X278000000Y-37000000D01*
X190000000Y-77000000D02*
X190000000Y-64500000D01*
X134750000Y-35750000D02*
X134750000Y-30000000D01*
X274000000Y-61000000D02*
X278000000Y-61000000D01*
X244000000Y-77000000D02*
X244000000Y-64500000D01*
X129000000Y-80000000D02*
X191000000Y-80000000D01*
X129000000Y-77000000D02*
X129000000Y-64500000D01*
X273000000Y-64500000D02*
X273000000Y-61000000D01*
X190000000Y-80000000D02*
X191000000Y-80000000D01*
%TO.N,KEY5-1*%
X24000000Y-31000000D02*
X116000000Y-31000000D01*
X133250000Y-26000000D02*
X137250000Y-30000000D01*
X24000000Y-81000000D02*
X24000000Y-31000000D01*
X68000000Y-64500000D02*
X68000000Y-77000000D01*
X116000000Y-31000000D02*
X121000000Y-26000000D01*
X50000000Y-64500000D02*
X50000000Y-77000000D01*
X64000000Y-81000000D02*
X24000000Y-81000000D01*
X121000000Y-26000000D02*
X133250000Y-26000000D01*
X68000000Y-77000000D02*
X64000000Y-81000000D01*
X147000000Y-64500000D02*
X147000000Y-77000000D01*
X50000000Y-77000000D02*
X50000000Y-81000000D01*
%TD*%
M02*
