%TF.GenerationSoftware,KiCad,Pcbnew,(6.0.8)*%
%TF.CreationDate,2022-12-30T17:29:19+02:00*%
%TF.ProjectId,mahjong_jamma_adapter,6d61686a-6f6e-4675-9f6a-616d6d615f61,rev?*%
%TF.SameCoordinates,Original*%
%TF.FileFunction,Copper,L2,Bot*%
%TF.FilePolarity,Positive*%
%FSLAX46Y46*%
G04 Gerber Fmt 4.6, Leading zero omitted, Abs format (unit mm)*
G04 Created by KiCad (PCBNEW (6.0.8)) date 2022-12-30 17:29:19*
%MOMM*%
%LPD*%
G01*
G04 APERTURE LIST*
G04 Aperture macros list*
%AMRoundRect*
0 Rectangle with rounded corners*
0 $1 Rounding radius*
0 $2 $3 $4 $5 $6 $7 $8 $9 X,Y pos of 4 corners*
0 Add a 4 corners polygon primitive as box body*
4,1,4,$2,$3,$4,$5,$6,$7,$8,$9,$2,$3,0*
0 Add four circle primitives for the rounded corners*
1,1,$1+$1,$2,$3*
1,1,$1+$1,$4,$5*
1,1,$1+$1,$6,$7*
1,1,$1+$1,$8,$9*
0 Add four rect primitives between the rounded corners*
20,1,$1+$1,$2,$3,$4,$5,0*
20,1,$1+$1,$4,$5,$6,$7,0*
20,1,$1+$1,$6,$7,$8,$9,0*
20,1,$1+$1,$8,$9,$2,$3,0*%
G04 Aperture macros list end*
%TA.AperFunction,ComponentPad*%
%ADD10RoundRect,0.250000X0.600000X0.725000X-0.600000X0.725000X-0.600000X-0.725000X0.600000X-0.725000X0*%
%TD*%
%TA.AperFunction,ComponentPad*%
%ADD11O,1.700000X1.950000*%
%TD*%
%TA.AperFunction,SMDPad,CuDef*%
%ADD12R,2.350000X8.000000*%
%TD*%
%TA.AperFunction,ComponentPad*%
%ADD13C,2.781000*%
%TD*%
%TA.AperFunction,ViaPad*%
%ADD14C,0.800000*%
%TD*%
%TA.AperFunction,Conductor*%
%ADD15C,2.000000*%
%TD*%
%TA.AperFunction,Conductor*%
%ADD16C,1.500000*%
%TD*%
%TA.AperFunction,Conductor*%
%ADD17C,1.000000*%
%TD*%
%TA.AperFunction,Conductor*%
%ADD18C,0.500000*%
%TD*%
G04 APERTURE END LIST*
D10*
%TO.P,SERVICE,1,Pin_1*%
%TO.N,COIN*%
X111750000Y-67500000D03*
D11*
%TO.P,SERVICE,2,Pin_2*%
%TO.N,TEST*%
X109250000Y-67500000D03*
%TO.P,SERVICE,3,Pin_3*%
%TO.N,SERVICE*%
X106750000Y-67500000D03*
%TO.P,SERVICE,4,Pin_4*%
%TO.N,GND*%
X104250000Y-67500000D03*
%TD*%
D12*
%TO.P,AUDIO,A,Pin_A*%
%TO.N,COM0-3*%
X174460000Y-76000000D03*
X174460000Y-76000000D03*
%TO.P,AUDIO,B,Pin_B*%
%TO.N,COM2-6*%
X170500000Y-76000000D03*
X170500000Y-76000000D03*
%TO.P,AUDIO,C,Pin_C*%
%TO.N,COM4-7*%
X166540000Y-76000000D03*
X166540000Y-76000000D03*
%TO.P,AUDIO,D,Pin_D*%
%TO.N,unconnected-(J2-PadD)*%
X162580000Y-76000000D03*
X162580000Y-76000000D03*
%TO.P,AUDIO,E,Pin_E*%
%TO.N,GND*%
X158620000Y-76000000D03*
X158620000Y-76000000D03*
%TO.P,AUDIO,F,Pin_F*%
%TO.N,SERVICE*%
X154660000Y-76000000D03*
X154660000Y-76000000D03*
%TO.P,AUDIO,H,Pin_H*%
%TO.N,unconnected-(J2-PadH)*%
X150733160Y-76002540D03*
%TO.P,AUDIO,J,Pin_J*%
%TO.N,RED*%
X146740000Y-76000000D03*
X146740000Y-76000000D03*
%TO.P,AUDIO,K,Pin_K*%
%TO.N,BLUE*%
X142780000Y-76000000D03*
X142780000Y-76000000D03*
%TO.P,AUDIO,L,Pin_L*%
%TO.N,SPK+*%
X138820000Y-76000000D03*
X138820000Y-76000000D03*
%TO.P,AUDIO,M,Pin_M*%
%TO.N,KEY0-4*%
X134860000Y-76000000D03*
X134860000Y-76000000D03*
%TO.P,AUDIO,N,Pin_N*%
%TO.N,KEY1-5*%
X130900000Y-76000000D03*
X130900000Y-76000000D03*
%TO.P,AUDIO,P,Pin_P*%
%TO.N,KEY2-8*%
X126940000Y-76000000D03*
X126940000Y-76000000D03*
%TO.P,AUDIO,R,Pin_R*%
%TO.N,KEY3-9*%
X122980000Y-76000000D03*
X122980000Y-76000000D03*
%TO.P,AUDIO,S,Pin_S*%
%TO.N,KEY4-11*%
X119020000Y-76000000D03*
X119020000Y-76000000D03*
%TO.P,AUDIO,T,Pin_T*%
%TO.N,KEY5-1*%
X115060000Y-76000000D03*
X115060000Y-76000000D03*
%TO.P,AUDIO,U,Pin_U*%
%TO.N,unconnected-(J2-PadU)*%
X111100000Y-76000000D03*
X111100000Y-76000000D03*
%TO.P,AUDIO,V,Pin_V*%
%TO.N,unconnected-(J2-PadV)*%
X107140000Y-76000000D03*
X107140000Y-76000000D03*
%TO.P,AUDIO,W,Pin_W*%
%TO.N,GND*%
X103180000Y-76000000D03*
X103180000Y-76000000D03*
%TO.P,AUDIO,X,Pin_X*%
X99220000Y-76000000D03*
X99220000Y-76000000D03*
%TO.P,AUDIO,Y,Pin_Y*%
%TO.N,5V*%
X95260000Y-76000000D03*
X95260000Y-76000000D03*
%TO.P,AUDIO,Z,Pin_Z*%
X91300000Y-76000000D03*
X91300000Y-76000000D03*
%TO.P,AUDIO,a,Pin_a*%
%TO.N,12V*%
X87340000Y-76000000D03*
X87340000Y-76000000D03*
%TO.P,AUDIO,b,Pin_b*%
%TO.N,-5V_M*%
X83380000Y-76000000D03*
X83380000Y-76000000D03*
%TO.P,AUDIO,c,Pin_c*%
%TO.N,5V*%
X79420000Y-76000000D03*
X79420000Y-76000000D03*
%TO.P,AUDIO,d,Pin_d*%
X75460000Y-76000000D03*
X75460000Y-76000000D03*
%TO.P,AUDIO,e,Pin_e*%
%TO.N,GND*%
X71500000Y-76000000D03*
X71500000Y-76000000D03*
%TO.P,AUDIO,f,Pin_f*%
X67540000Y-76000000D03*
X67540000Y-76000000D03*
%TD*%
D10*
%TO.P,COM,1,Pin_1*%
%TO.N,COM0-3*%
X172000000Y-67535000D03*
D11*
%TO.P,COM,2,Pin_2*%
%TO.N,COM1-2*%
X169500000Y-67535000D03*
%TO.P,COM,3,Pin_3*%
%TO.N,COM2-6*%
X167000000Y-67535000D03*
%TO.P,COM,4,Pin_4*%
%TO.N,COM3-10*%
X164500000Y-67535000D03*
%TO.P,COM,5,Pin_5*%
%TO.N,COM4-7*%
X162000000Y-67535000D03*
%TD*%
D13*
%TO.P,SW1,1,A*%
%TO.N,JONG_SPK-*%
X81750000Y-58600000D03*
%TO.P,SW1,2,B*%
%TO.N,JAMMA_SPK-*%
X77050000Y-58600000D03*
%TO.P,SW1,3,C*%
%TO.N,Net-(JMP2-Pad1)*%
X72350000Y-58600000D03*
%TD*%
D10*
%TO.P,KEY,1,Pin_1*%
%TO.N,KEY0-4*%
X132360000Y-67535000D03*
D11*
%TO.P,KEY,2,Pin_2*%
%TO.N,KEY1-5*%
X129860000Y-67535000D03*
%TO.P,KEY,3,Pin_3*%
%TO.N,KEY2-8*%
X127360000Y-67535000D03*
%TO.P,KEY,4,Pin_4*%
%TO.N,KEY3-9*%
X124860000Y-67535000D03*
%TO.P,KEY,5,Pin_5*%
%TO.N,KEY4-11*%
X122360000Y-67535000D03*
%TO.P,KEY,6,Pin_6*%
%TO.N,KEY5-1*%
X119860000Y-67535000D03*
%TD*%
D12*
%TO.P,J1,A,Pin_A*%
%TO.N,GND*%
X174480000Y-48000000D03*
X174480000Y-48000000D03*
%TO.P,J1,B,Pin_B*%
X170520000Y-48000000D03*
X170520000Y-48000000D03*
%TO.P,J1,C,Pin_C*%
%TO.N,5V*%
X166560000Y-48000000D03*
X166560000Y-48000000D03*
%TO.P,J1,D,Pin_D*%
X162600000Y-48000000D03*
X162600000Y-48000000D03*
%TO.P,J1,E,Pin_E*%
%TO.N,-5V*%
X158640000Y-48000000D03*
X158640000Y-48000000D03*
%TO.P,J1,F,Pin_F*%
%TO.N,12V*%
X154680000Y-48000000D03*
X154680000Y-48000000D03*
%TO.P,J1,J,Pin_J*%
%TO.N,unconnected-(J1-PadJ)*%
X146760000Y-48000000D03*
X146760000Y-48000000D03*
%TO.P,J1,K,Pin_K*%
%TO.N,unconnected-(J1-PadK)*%
X142800000Y-48000000D03*
X142800000Y-48000000D03*
%TO.P,J1,L,Pin_L*%
%TO.N,JAMMA_SPK-*%
X138840000Y-48000000D03*
X138840000Y-48000000D03*
%TO.P,J1,M,Pin_M*%
%TO.N,unconnected-(J1-PadM)*%
X134880000Y-48000000D03*
X134880000Y-48000000D03*
%TO.P,J1,N,Pin_N*%
%TO.N,GREEN*%
X130920000Y-48000000D03*
X130920000Y-48000000D03*
%TO.P,J1,P,Pin_P*%
%TO.N,SYNC*%
X126960000Y-48000000D03*
X126960000Y-48000000D03*
%TO.P,J1,R,Pin_R*%
%TO.N,SERVICE*%
X123000000Y-48000000D03*
X123000000Y-48000000D03*
%TO.P,J1,S,Pin_S*%
%TO.N,unconnected-(J1-PadS)*%
X119040000Y-48000000D03*
X119040000Y-48000000D03*
%TO.P,J1,T,Pin_T*%
%TO.N,unconnected-(J1-PadT)*%
X115080000Y-48000000D03*
X115080000Y-48000000D03*
%TO.P,J1,U,Pin_U*%
%TO.N,unconnected-(J1-PadU)*%
X111120000Y-48000000D03*
X111120000Y-48000000D03*
%TO.P,J1,V,Pin_V*%
%TO.N,unconnected-(J1-PadV)*%
X107160000Y-48000000D03*
X107160000Y-48000000D03*
%TO.P,J1,W,Pin_W*%
%TO.N,unconnected-(J1-PadW)*%
X103200000Y-48000000D03*
X103200000Y-48000000D03*
%TO.P,J1,X,Pin_X*%
%TO.N,unconnected-(J1-PadX)*%
X99240000Y-48000000D03*
X99240000Y-48000000D03*
%TO.P,J1,Y,Pin_Y*%
%TO.N,unconnected-(J1-PadY)*%
X95280000Y-48000000D03*
X95280000Y-48000000D03*
%TO.P,J1,Z,Pin_Z*%
%TO.N,unconnected-(J1-PadZ)*%
X91320000Y-48000000D03*
X91320000Y-48000000D03*
%TO.P,J1,a,Pin_a*%
%TO.N,unconnected-(J1-Pada)*%
X87360000Y-48000000D03*
X87360000Y-48000000D03*
%TO.P,J1,b,Pin_b*%
%TO.N,unconnected-(J1-Padb)*%
X83400000Y-48000000D03*
X83400000Y-48000000D03*
%TO.P,J1,c,Pin_c*%
%TO.N,unconnected-(J1-Padc)*%
X79440000Y-48000000D03*
X79440000Y-48000000D03*
%TO.P,J1,d,Pin_d*%
%TO.N,unconnected-(J1-Padd)*%
X75480000Y-48000000D03*
X75480000Y-48000000D03*
%TO.P,J1,e,Pin_e*%
%TO.N,unconnected-(J1-Pade)*%
X71520000Y-48000000D03*
X71520000Y-48000000D03*
%TO.P,J1,f,Pin_f*%
%TO.N,unconnected-(J1-Padf)*%
X67560000Y-48000000D03*
X67560000Y-48000000D03*
%TD*%
D14*
%TO.N,GND*%
X71500000Y-70500000D03*
X99220000Y-70780000D03*
X123000000Y-54400000D03*
X123000000Y-62000000D03*
X158620000Y-70980000D03*
X101000000Y-62000000D03*
X170520000Y-53280000D03*
%TO.N,5V*%
X95260000Y-65000000D03*
X79420000Y-70580000D03*
X162600000Y-53400000D03*
%TO.N,-5V*%
X158640000Y-53360000D03*
%TO.N,12V*%
X87340000Y-70660000D03*
X154680000Y-53320000D03*
%TO.N,SPK+*%
X144800000Y-52800000D03*
%TO.N,RED*%
X145600000Y-54200000D03*
%TO.N,BLUE*%
X143200000Y-54600000D03*
%TO.N,TEST*%
X112020000Y-54650500D03*
%TO.N,COIN*%
X115060000Y-53850500D03*
%TO.N,JAMMA_SPK-*%
X136400000Y-69400000D03*
X115800000Y-68400000D03*
%TO.N,GREEN*%
X137000000Y-65400000D03*
%TO.N,SYNC*%
X136000000Y-66200000D03*
%TO.N,SERVICE*%
X154280000Y-64050000D03*
%TO.N,JONG_SPK-*%
X115800000Y-69600000D03*
%TO.N,-5V_M*%
X90000000Y-68000000D03*
%TD*%
D15*
%TO.N,GND*%
X67540000Y-76000000D02*
X71500000Y-76000000D01*
D16*
X99220000Y-70780000D02*
X99220000Y-76000000D01*
D17*
X123000000Y-62000000D02*
X123000000Y-54400000D01*
D16*
X170520000Y-53280000D02*
X170520000Y-48000000D01*
X71500000Y-66500000D02*
X71500000Y-70500000D01*
D15*
X99220000Y-76000000D02*
X103180000Y-76000000D01*
D16*
X158620000Y-70980000D02*
X158620000Y-76000000D01*
X101000000Y-62000000D02*
X76000000Y-62000000D01*
X71500000Y-70500000D02*
X71500000Y-76000000D01*
X76000000Y-62000000D02*
X71500000Y-66500000D01*
D15*
X170520000Y-48000000D02*
X174480000Y-48000000D01*
D16*
%TO.N,5V*%
X95260000Y-65000000D02*
X81000000Y-65000000D01*
D15*
X75460000Y-76000000D02*
X79420000Y-76000000D01*
D16*
X79420000Y-70580000D02*
X79420000Y-71580000D01*
X81000000Y-65000000D02*
X79420000Y-66580000D01*
D15*
X91300000Y-76000000D02*
X95260000Y-76000000D01*
D16*
X79420000Y-66580000D02*
X79420000Y-71580000D01*
X79420000Y-71580000D02*
X79420000Y-76000000D01*
D15*
X162600000Y-48000000D02*
X166560000Y-48000000D01*
D16*
X95260000Y-65000000D02*
X95260000Y-76000000D01*
X162600000Y-48000000D02*
X162600000Y-53400000D01*
%TO.N,-5V*%
X158640000Y-48000000D02*
X158640000Y-53360000D01*
%TO.N,12V*%
X154680000Y-48000000D02*
X154680000Y-53320000D01*
X87340000Y-76000000D02*
X87340000Y-70660000D01*
D18*
%TO.N,SPK+*%
X144800000Y-52800000D02*
X142600000Y-52800000D01*
X140200000Y-55200000D02*
X140200000Y-69600000D01*
X140200000Y-69600000D02*
X138820000Y-70980000D01*
X142600000Y-52800000D02*
X140200000Y-55200000D01*
X138820000Y-70980000D02*
X138820000Y-76000000D01*
%TO.N,RED*%
X146740000Y-55340000D02*
X146740000Y-76000000D01*
X145600000Y-54200000D02*
X146740000Y-55340000D01*
%TO.N,BLUE*%
X143200000Y-54600000D02*
X142780000Y-55020000D01*
X142780000Y-55020000D02*
X142780000Y-76000000D01*
%TO.N,TEST*%
X111909500Y-54650500D02*
X109250000Y-57310000D01*
X112020000Y-54650500D02*
X111909500Y-54650500D01*
X109250000Y-57310000D02*
X109250000Y-68440000D01*
%TO.N,COIN*%
X111750000Y-56710000D02*
X111750000Y-67525000D01*
X115060000Y-53850500D02*
X114609500Y-53850500D01*
X114609500Y-53850500D02*
X111750000Y-56710000D01*
%TO.N,JAMMA_SPK-*%
X102800000Y-69400000D02*
X102000000Y-68600000D01*
X114000000Y-69400000D02*
X102800000Y-69400000D01*
X136400000Y-69400000D02*
X137200000Y-69400000D01*
X102000000Y-68600000D02*
X102000000Y-64600000D01*
X102800000Y-63800000D02*
X104000000Y-63800000D01*
X115800000Y-68400000D02*
X115000000Y-68400000D01*
X102000000Y-64600000D02*
X102800000Y-63800000D01*
X80250000Y-55400000D02*
X77050000Y-58600000D01*
X138840000Y-67760000D02*
X138840000Y-48000000D01*
X98600000Y-55400000D02*
X80250000Y-55400000D01*
X104000000Y-60800000D02*
X98600000Y-55400000D01*
X115000000Y-68400000D02*
X114000000Y-69400000D01*
X137200000Y-69400000D02*
X138840000Y-67760000D01*
X104000000Y-63800000D02*
X104000000Y-60800000D01*
%TO.N,GREEN*%
X137000000Y-65400000D02*
X137000000Y-64600000D01*
X130920000Y-58520000D02*
X130920000Y-48000000D01*
X137000000Y-64600000D02*
X130920000Y-58520000D01*
%TO.N,SYNC*%
X126960000Y-56360000D02*
X126960000Y-48000000D01*
X136000000Y-65400000D02*
X126960000Y-56360000D01*
X136000000Y-66200000D02*
X136000000Y-65400000D01*
%TO.N,SERVICE*%
X154280000Y-64050000D02*
X154660000Y-64430000D01*
X106750000Y-56690000D02*
X106750000Y-67500000D01*
X123000000Y-48000000D02*
X123000000Y-52540000D01*
X122700000Y-52840000D02*
X110600000Y-52840000D01*
X110600000Y-52840000D02*
X106750000Y-56690000D01*
X154660000Y-64430000D02*
X154660000Y-76000000D01*
X123000000Y-52540000D02*
X122700000Y-52840000D01*
%TO.N,JONG_SPK-*%
X115000000Y-70400000D02*
X101800000Y-70400000D01*
X115800000Y-69600000D02*
X115000000Y-70400000D01*
X101800000Y-70400000D02*
X101000000Y-69600000D01*
X101000000Y-64400000D02*
X102800000Y-62600000D01*
X101000000Y-69600000D02*
X101000000Y-64400000D01*
X100000000Y-58600000D02*
X81750000Y-58600000D01*
X102800000Y-62600000D02*
X102800000Y-61400000D01*
X102800000Y-61400000D02*
X100000000Y-58600000D01*
D17*
%TO.N,COM0-3*%
X174460000Y-69995000D02*
X172000000Y-67535000D01*
X174460000Y-76000000D02*
X174460000Y-69995000D01*
%TO.N,COM2-6*%
X170500000Y-72240000D02*
X167000000Y-68740000D01*
X170500000Y-76000000D02*
X170500000Y-72240000D01*
X167000000Y-68740000D02*
X167000000Y-67535000D01*
%TO.N,COM4-7*%
X164460000Y-70220000D02*
X163010000Y-70220000D01*
X166540000Y-72300000D02*
X164460000Y-70220000D01*
X162000000Y-69210000D02*
X162000000Y-67535000D01*
X163010000Y-70220000D02*
X162000000Y-69210000D01*
X166540000Y-76000000D02*
X166540000Y-72300000D01*
%TO.N,KEY0-4*%
X134860000Y-72130000D02*
X132360000Y-69630000D01*
X132360000Y-69630000D02*
X132360000Y-67535000D01*
X134860000Y-76000000D02*
X134860000Y-72130000D01*
%TO.N,KEY1-5*%
X129860000Y-70720000D02*
X129860000Y-67535000D01*
X130900000Y-76000000D02*
X130900000Y-71760000D01*
X130900000Y-71760000D02*
X129860000Y-70720000D01*
%TO.N,KEY2-8*%
X126940000Y-67955000D02*
X127360000Y-67535000D01*
X126940000Y-76000000D02*
X126940000Y-67955000D01*
%TO.N,KEY3-9*%
X122980000Y-76000000D02*
X122980000Y-69415000D01*
X122980000Y-69415000D02*
X124860000Y-67535000D01*
%TO.N,KEY4-11*%
X119020000Y-76000000D02*
X119020000Y-70875000D01*
X119020000Y-70875000D02*
X122360000Y-67535000D01*
%TO.N,KEY5-1*%
X115060000Y-72335000D02*
X119860000Y-67535000D01*
X115060000Y-76000000D02*
X115060000Y-72335000D01*
D16*
%TO.N,-5V_M*%
X85000000Y-68000000D02*
X83380000Y-69620000D01*
X83380000Y-69620000D02*
X83380000Y-76000000D01*
X90000000Y-68000000D02*
X85000000Y-68000000D01*
%TD*%
M02*
