%TF.GenerationSoftware,KiCad,Pcbnew,(6.0.8)*%
%TF.CreationDate,2022-12-30T17:29:19+02:00*%
%TF.ProjectId,mahjong_jamma_adapter,6d61686a-6f6e-4675-9f6a-616d6d615f61,rev?*%
%TF.SameCoordinates,Original*%
%TF.FileFunction,Soldermask,Bot*%
%TF.FilePolarity,Negative*%
%FSLAX46Y46*%
G04 Gerber Fmt 4.6, Leading zero omitted, Abs format (unit mm)*
G04 Created by KiCad (PCBNEW (6.0.8)) date 2022-12-30 17:29:19*
%MOMM*%
%LPD*%
G01*
G04 APERTURE LIST*
G04 Aperture macros list*
%AMRoundRect*
0 Rectangle with rounded corners*
0 $1 Rounding radius*
0 $2 $3 $4 $5 $6 $7 $8 $9 X,Y pos of 4 corners*
0 Add a 4 corners polygon primitive as box body*
4,1,4,$2,$3,$4,$5,$6,$7,$8,$9,$2,$3,0*
0 Add four circle primitives for the rounded corners*
1,1,$1+$1,$2,$3*
1,1,$1+$1,$4,$5*
1,1,$1+$1,$6,$7*
1,1,$1+$1,$8,$9*
0 Add four rect primitives between the rounded corners*
20,1,$1+$1,$2,$3,$4,$5,0*
20,1,$1+$1,$4,$5,$6,$7,0*
20,1,$1+$1,$6,$7,$8,$9,0*
20,1,$1+$1,$8,$9,$2,$3,0*%
G04 Aperture macros list end*
%ADD10C,0.100000*%
%ADD11C,1.200000*%
%ADD12RoundRect,0.250000X0.600000X0.725000X-0.600000X0.725000X-0.600000X-0.725000X0.600000X-0.725000X0*%
%ADD13O,1.700000X1.950000*%
%ADD14C,3.200000*%
%ADD15C,2.781000*%
G04 APERTURE END LIST*
%TO.C,AUDIO*%
G36*
X116228100Y-79999700D02*
G01*
X113891300Y-79999700D01*
X113891300Y-72011400D01*
X116228100Y-72011400D01*
X116228100Y-79999700D01*
G37*
D10*
X116228100Y-79999700D02*
X113891300Y-79999700D01*
X113891300Y-72011400D01*
X116228100Y-72011400D01*
X116228100Y-79999700D01*
G36*
X151912560Y-80002240D02*
G01*
X149575760Y-80002240D01*
X149575760Y-72013940D01*
X151912560Y-72013940D01*
X151912560Y-80002240D01*
G37*
X151912560Y-80002240D02*
X149575760Y-80002240D01*
X149575760Y-72013940D01*
X151912560Y-72013940D01*
X151912560Y-80002240D01*
G36*
X171676300Y-79999700D02*
G01*
X169339500Y-79999700D01*
X169339500Y-72011400D01*
X171676300Y-72011400D01*
X171676300Y-79999700D01*
G37*
X171676300Y-79999700D02*
X169339500Y-79999700D01*
X169339500Y-72011400D01*
X171676300Y-72011400D01*
X171676300Y-79999700D01*
G36*
X96403400Y-79999700D02*
G01*
X94066600Y-79999700D01*
X94066600Y-72011400D01*
X96403400Y-72011400D01*
X96403400Y-79999700D01*
G37*
X96403400Y-79999700D02*
X94066600Y-79999700D01*
X94066600Y-72011400D01*
X96403400Y-72011400D01*
X96403400Y-79999700D01*
G36*
X143952200Y-79987000D02*
G01*
X141615400Y-79987000D01*
X141615400Y-71998700D01*
X143952200Y-71998700D01*
X143952200Y-79987000D01*
G37*
X143952200Y-79987000D02*
X141615400Y-79987000D01*
X141615400Y-71998700D01*
X143952200Y-71998700D01*
X143952200Y-79987000D01*
G36*
X84541600Y-80012400D02*
G01*
X82204800Y-80012400D01*
X82204800Y-72024100D01*
X84541600Y-72024100D01*
X84541600Y-80012400D01*
G37*
X84541600Y-80012400D02*
X82204800Y-80012400D01*
X82204800Y-72024100D01*
X84541600Y-72024100D01*
X84541600Y-80012400D01*
G36*
X132065000Y-79987000D02*
G01*
X129728200Y-79987000D01*
X129728200Y-71998700D01*
X132065000Y-71998700D01*
X132065000Y-79987000D01*
G37*
X132065000Y-79987000D02*
X129728200Y-79987000D01*
X129728200Y-71998700D01*
X132065000Y-71998700D01*
X132065000Y-79987000D01*
G36*
X167701200Y-79999700D02*
G01*
X165364400Y-79999700D01*
X165364400Y-72011400D01*
X167701200Y-72011400D01*
X167701200Y-79999700D01*
G37*
X167701200Y-79999700D02*
X165364400Y-79999700D01*
X165364400Y-72011400D01*
X167701200Y-72011400D01*
X167701200Y-79999700D01*
G36*
X163751500Y-79999700D02*
G01*
X161414700Y-79999700D01*
X161414700Y-72011400D01*
X163751500Y-72011400D01*
X163751500Y-79999700D01*
G37*
X163751500Y-79999700D02*
X161414700Y-79999700D01*
X161414700Y-72011400D01*
X163751500Y-72011400D01*
X163751500Y-79999700D01*
G36*
X80566500Y-80012400D02*
G01*
X78229700Y-80012400D01*
X78229700Y-72024100D01*
X80566500Y-72024100D01*
X80566500Y-80012400D01*
G37*
X80566500Y-80012400D02*
X78229700Y-80012400D01*
X78229700Y-72024100D01*
X80566500Y-72024100D01*
X80566500Y-80012400D01*
G36*
X72654400Y-80012400D02*
G01*
X70317600Y-80012400D01*
X70317600Y-72024100D01*
X72654400Y-72024100D01*
X72654400Y-80012400D01*
G37*
X72654400Y-80012400D02*
X70317600Y-80012400D01*
X70317600Y-72024100D01*
X72654400Y-72024100D01*
X72654400Y-80012400D01*
G36*
X147901900Y-79987000D02*
G01*
X145565100Y-79987000D01*
X145565100Y-71998700D01*
X147901900Y-71998700D01*
X147901900Y-79987000D01*
G37*
X147901900Y-79987000D02*
X145565100Y-79987000D01*
X145565100Y-71998700D01*
X147901900Y-71998700D01*
X147901900Y-79987000D01*
G36*
X88491300Y-80012400D02*
G01*
X86154500Y-80012400D01*
X86154500Y-72024100D01*
X88491300Y-72024100D01*
X88491300Y-80012400D01*
G37*
X88491300Y-80012400D02*
X86154500Y-80012400D01*
X86154500Y-72024100D01*
X88491300Y-72024100D01*
X88491300Y-80012400D01*
G36*
X155839400Y-79999700D02*
G01*
X153502600Y-79999700D01*
X153502600Y-72011400D01*
X155839400Y-72011400D01*
X155839400Y-79999700D01*
G37*
X155839400Y-79999700D02*
X153502600Y-79999700D01*
X153502600Y-72011400D01*
X155839400Y-72011400D01*
X155839400Y-79999700D01*
G36*
X92453700Y-79999700D02*
G01*
X90116900Y-79999700D01*
X90116900Y-72011400D01*
X92453700Y-72011400D01*
X92453700Y-79999700D01*
G37*
X92453700Y-79999700D02*
X90116900Y-79999700D01*
X90116900Y-72011400D01*
X92453700Y-72011400D01*
X92453700Y-79999700D01*
G36*
X128115300Y-79987000D02*
G01*
X125778500Y-79987000D01*
X125778500Y-71998700D01*
X128115300Y-71998700D01*
X128115300Y-79987000D01*
G37*
X128115300Y-79987000D02*
X125778500Y-79987000D01*
X125778500Y-71998700D01*
X128115300Y-71998700D01*
X128115300Y-79987000D01*
G36*
X159789100Y-79999700D02*
G01*
X157452300Y-79999700D01*
X157452300Y-72011400D01*
X159789100Y-72011400D01*
X159789100Y-79999700D01*
G37*
X159789100Y-79999700D02*
X157452300Y-79999700D01*
X157452300Y-72011400D01*
X159789100Y-72011400D01*
X159789100Y-79999700D01*
G36*
X76616800Y-80012400D02*
G01*
X74280000Y-80012400D01*
X74280000Y-72024100D01*
X76616800Y-72024100D01*
X76616800Y-80012400D01*
G37*
X76616800Y-80012400D02*
X74280000Y-80012400D01*
X74280000Y-72024100D01*
X76616800Y-72024100D01*
X76616800Y-80012400D01*
G36*
X139977100Y-79987000D02*
G01*
X137640300Y-79987000D01*
X137640300Y-71998700D01*
X139977100Y-71998700D01*
X139977100Y-79987000D01*
G37*
X139977100Y-79987000D02*
X137640300Y-79987000D01*
X137640300Y-71998700D01*
X139977100Y-71998700D01*
X139977100Y-79987000D01*
G36*
X100365800Y-79999700D02*
G01*
X98029000Y-79999700D01*
X98029000Y-72011400D01*
X100365800Y-72011400D01*
X100365800Y-79999700D01*
G37*
X100365800Y-79999700D02*
X98029000Y-79999700D01*
X98029000Y-72011400D01*
X100365800Y-72011400D01*
X100365800Y-79999700D01*
G36*
X108316000Y-79999700D02*
G01*
X105979200Y-79999700D01*
X105979200Y-72011400D01*
X108316000Y-72011400D01*
X108316000Y-79999700D01*
G37*
X108316000Y-79999700D02*
X105979200Y-79999700D01*
X105979200Y-72011400D01*
X108316000Y-72011400D01*
X108316000Y-79999700D01*
G36*
X120203200Y-79999700D02*
G01*
X117866400Y-79999700D01*
X117866400Y-72011400D01*
X120203200Y-72011400D01*
X120203200Y-79999700D01*
G37*
X120203200Y-79999700D02*
X117866400Y-79999700D01*
X117866400Y-72011400D01*
X120203200Y-72011400D01*
X120203200Y-79999700D01*
G36*
X112278400Y-79999700D02*
G01*
X109941600Y-79999700D01*
X109941600Y-72011400D01*
X112278400Y-72011400D01*
X112278400Y-79999700D01*
G37*
X112278400Y-79999700D02*
X109941600Y-79999700D01*
X109941600Y-72011400D01*
X112278400Y-72011400D01*
X112278400Y-79999700D01*
G36*
X136027400Y-79987000D02*
G01*
X133690600Y-79987000D01*
X133690600Y-71998700D01*
X136027400Y-71998700D01*
X136027400Y-79987000D01*
G37*
X136027400Y-79987000D02*
X133690600Y-79987000D01*
X133690600Y-71998700D01*
X136027400Y-71998700D01*
X136027400Y-79987000D01*
G36*
X175626000Y-79999700D02*
G01*
X173289200Y-79999700D01*
X173289200Y-72011400D01*
X175626000Y-72011400D01*
X175626000Y-79999700D01*
G37*
X175626000Y-79999700D02*
X173289200Y-79999700D01*
X173289200Y-72011400D01*
X175626000Y-72011400D01*
X175626000Y-79999700D01*
G36*
X124152900Y-79999700D02*
G01*
X121816100Y-79999700D01*
X121816100Y-72011400D01*
X124152900Y-72011400D01*
X124152900Y-79999700D01*
G37*
X124152900Y-79999700D02*
X121816100Y-79999700D01*
X121816100Y-72011400D01*
X124152900Y-72011400D01*
X124152900Y-79999700D01*
G36*
X104366300Y-79999700D02*
G01*
X102029500Y-79999700D01*
X102029500Y-72011400D01*
X104366300Y-72011400D01*
X104366300Y-79999700D01*
G37*
X104366300Y-79999700D02*
X102029500Y-79999700D01*
X102029500Y-72011400D01*
X104366300Y-72011400D01*
X104366300Y-79999700D01*
G36*
X68704700Y-80012400D02*
G01*
X66367900Y-80012400D01*
X66367900Y-72024100D01*
X68704700Y-72024100D01*
X68704700Y-80012400D01*
G37*
X68704700Y-80012400D02*
X66367900Y-80012400D01*
X66367900Y-72024100D01*
X68704700Y-72024100D01*
X68704700Y-80012400D01*
%TO.C,J1*%
G36*
X120223200Y-51999700D02*
G01*
X117886400Y-51999700D01*
X117886400Y-44011400D01*
X120223200Y-44011400D01*
X120223200Y-51999700D01*
G37*
X120223200Y-51999700D02*
X117886400Y-51999700D01*
X117886400Y-44011400D01*
X120223200Y-44011400D01*
X120223200Y-51999700D01*
G36*
X163771500Y-51999700D02*
G01*
X161434700Y-51999700D01*
X161434700Y-44011400D01*
X163771500Y-44011400D01*
X163771500Y-51999700D01*
G37*
X163771500Y-51999700D02*
X161434700Y-51999700D01*
X161434700Y-44011400D01*
X163771500Y-44011400D01*
X163771500Y-51999700D01*
G36*
X143972200Y-51987000D02*
G01*
X141635400Y-51987000D01*
X141635400Y-43998700D01*
X143972200Y-43998700D01*
X143972200Y-51987000D01*
G37*
X143972200Y-51987000D02*
X141635400Y-51987000D01*
X141635400Y-43998700D01*
X143972200Y-43998700D01*
X143972200Y-51987000D01*
G36*
X155859400Y-51999700D02*
G01*
X153522600Y-51999700D01*
X153522600Y-44011400D01*
X155859400Y-44011400D01*
X155859400Y-51999700D01*
G37*
X155859400Y-51999700D02*
X153522600Y-51999700D01*
X153522600Y-44011400D01*
X155859400Y-44011400D01*
X155859400Y-51999700D01*
G36*
X84561600Y-52012400D02*
G01*
X82224800Y-52012400D01*
X82224800Y-44024100D01*
X84561600Y-44024100D01*
X84561600Y-52012400D01*
G37*
X84561600Y-52012400D02*
X82224800Y-52012400D01*
X82224800Y-44024100D01*
X84561600Y-44024100D01*
X84561600Y-52012400D01*
G36*
X128135300Y-51987000D02*
G01*
X125798500Y-51987000D01*
X125798500Y-43998700D01*
X128135300Y-43998700D01*
X128135300Y-51987000D01*
G37*
X128135300Y-51987000D02*
X125798500Y-51987000D01*
X125798500Y-43998700D01*
X128135300Y-43998700D01*
X128135300Y-51987000D01*
G36*
X108336000Y-51999700D02*
G01*
X105999200Y-51999700D01*
X105999200Y-44011400D01*
X108336000Y-44011400D01*
X108336000Y-51999700D01*
G37*
X108336000Y-51999700D02*
X105999200Y-51999700D01*
X105999200Y-44011400D01*
X108336000Y-44011400D01*
X108336000Y-51999700D01*
G36*
X104386300Y-51999700D02*
G01*
X102049500Y-51999700D01*
X102049500Y-44011400D01*
X104386300Y-44011400D01*
X104386300Y-51999700D01*
G37*
X104386300Y-51999700D02*
X102049500Y-51999700D01*
X102049500Y-44011400D01*
X104386300Y-44011400D01*
X104386300Y-51999700D01*
G36*
X88511300Y-52012400D02*
G01*
X86174500Y-52012400D01*
X86174500Y-44024100D01*
X88511300Y-44024100D01*
X88511300Y-52012400D01*
G37*
X88511300Y-52012400D02*
X86174500Y-52012400D01*
X86174500Y-44024100D01*
X88511300Y-44024100D01*
X88511300Y-52012400D01*
G36*
X116248100Y-51999700D02*
G01*
X113911300Y-51999700D01*
X113911300Y-44011400D01*
X116248100Y-44011400D01*
X116248100Y-51999700D01*
G37*
X116248100Y-51999700D02*
X113911300Y-51999700D01*
X113911300Y-44011400D01*
X116248100Y-44011400D01*
X116248100Y-51999700D01*
G36*
X159809100Y-51999700D02*
G01*
X157472300Y-51999700D01*
X157472300Y-44011400D01*
X159809100Y-44011400D01*
X159809100Y-51999700D01*
G37*
X159809100Y-51999700D02*
X157472300Y-51999700D01*
X157472300Y-44011400D01*
X159809100Y-44011400D01*
X159809100Y-51999700D01*
G36*
X76636800Y-52012400D02*
G01*
X74300000Y-52012400D01*
X74300000Y-44024100D01*
X76636800Y-44024100D01*
X76636800Y-52012400D01*
G37*
X76636800Y-52012400D02*
X74300000Y-52012400D01*
X74300000Y-44024100D01*
X76636800Y-44024100D01*
X76636800Y-52012400D01*
G36*
X68724700Y-52012400D02*
G01*
X66387900Y-52012400D01*
X66387900Y-44024100D01*
X68724700Y-44024100D01*
X68724700Y-52012400D01*
G37*
X68724700Y-52012400D02*
X66387900Y-52012400D01*
X66387900Y-44024100D01*
X68724700Y-44024100D01*
X68724700Y-52012400D01*
G36*
X136047400Y-51987000D02*
G01*
X133710600Y-51987000D01*
X133710600Y-43998700D01*
X136047400Y-43998700D01*
X136047400Y-51987000D01*
G37*
X136047400Y-51987000D02*
X133710600Y-51987000D01*
X133710600Y-43998700D01*
X136047400Y-43998700D01*
X136047400Y-51987000D01*
G36*
X80586500Y-52012400D02*
G01*
X78249700Y-52012400D01*
X78249700Y-44024100D01*
X80586500Y-44024100D01*
X80586500Y-52012400D01*
G37*
X80586500Y-52012400D02*
X78249700Y-52012400D01*
X78249700Y-44024100D01*
X80586500Y-44024100D01*
X80586500Y-52012400D01*
G36*
X175646000Y-51999700D02*
G01*
X173309200Y-51999700D01*
X173309200Y-44011400D01*
X175646000Y-44011400D01*
X175646000Y-51999700D01*
G37*
X175646000Y-51999700D02*
X173309200Y-51999700D01*
X173309200Y-44011400D01*
X175646000Y-44011400D01*
X175646000Y-51999700D01*
G36*
X92473700Y-51999700D02*
G01*
X90136900Y-51999700D01*
X90136900Y-44011400D01*
X92473700Y-44011400D01*
X92473700Y-51999700D01*
G37*
X92473700Y-51999700D02*
X90136900Y-51999700D01*
X90136900Y-44011400D01*
X92473700Y-44011400D01*
X92473700Y-51999700D01*
G36*
X139997100Y-51987000D02*
G01*
X137660300Y-51987000D01*
X137660300Y-43998700D01*
X139997100Y-43998700D01*
X139997100Y-51987000D01*
G37*
X139997100Y-51987000D02*
X137660300Y-51987000D01*
X137660300Y-43998700D01*
X139997100Y-43998700D01*
X139997100Y-51987000D01*
G36*
X147921900Y-51987000D02*
G01*
X145585100Y-51987000D01*
X145585100Y-43998700D01*
X147921900Y-43998700D01*
X147921900Y-51987000D01*
G37*
X147921900Y-51987000D02*
X145585100Y-51987000D01*
X145585100Y-43998700D01*
X147921900Y-43998700D01*
X147921900Y-51987000D01*
G36*
X171696300Y-51999700D02*
G01*
X169359500Y-51999700D01*
X169359500Y-44011400D01*
X171696300Y-44011400D01*
X171696300Y-51999700D01*
G37*
X171696300Y-51999700D02*
X169359500Y-51999700D01*
X169359500Y-44011400D01*
X171696300Y-44011400D01*
X171696300Y-51999700D01*
G36*
X124172900Y-51999700D02*
G01*
X121836100Y-51999700D01*
X121836100Y-44011400D01*
X124172900Y-44011400D01*
X124172900Y-51999700D01*
G37*
X124172900Y-51999700D02*
X121836100Y-51999700D01*
X121836100Y-44011400D01*
X124172900Y-44011400D01*
X124172900Y-51999700D01*
G36*
X96423400Y-51999700D02*
G01*
X94086600Y-51999700D01*
X94086600Y-44011400D01*
X96423400Y-44011400D01*
X96423400Y-51999700D01*
G37*
X96423400Y-51999700D02*
X94086600Y-51999700D01*
X94086600Y-44011400D01*
X96423400Y-44011400D01*
X96423400Y-51999700D01*
G36*
X72674400Y-52012400D02*
G01*
X70337600Y-52012400D01*
X70337600Y-44024100D01*
X72674400Y-44024100D01*
X72674400Y-52012400D01*
G37*
X72674400Y-52012400D02*
X70337600Y-52012400D01*
X70337600Y-44024100D01*
X72674400Y-44024100D01*
X72674400Y-52012400D01*
G36*
X132085000Y-51987000D02*
G01*
X129748200Y-51987000D01*
X129748200Y-43998700D01*
X132085000Y-43998700D01*
X132085000Y-51987000D01*
G37*
X132085000Y-51987000D02*
X129748200Y-51987000D01*
X129748200Y-43998700D01*
X132085000Y-43998700D01*
X132085000Y-51987000D01*
G36*
X112298400Y-51999700D02*
G01*
X109961600Y-51999700D01*
X109961600Y-44011400D01*
X112298400Y-44011400D01*
X112298400Y-51999700D01*
G37*
X112298400Y-51999700D02*
X109961600Y-51999700D01*
X109961600Y-44011400D01*
X112298400Y-44011400D01*
X112298400Y-51999700D01*
G36*
X167721200Y-51999700D02*
G01*
X165384400Y-51999700D01*
X165384400Y-44011400D01*
X167721200Y-44011400D01*
X167721200Y-51999700D01*
G37*
X167721200Y-51999700D02*
X165384400Y-51999700D01*
X165384400Y-44011400D01*
X167721200Y-44011400D01*
X167721200Y-51999700D01*
G36*
X100385800Y-51999700D02*
G01*
X98049000Y-51999700D01*
X98049000Y-44011400D01*
X100385800Y-44011400D01*
X100385800Y-51999700D01*
G37*
X100385800Y-51999700D02*
X98049000Y-51999700D01*
X98049000Y-44011400D01*
X100385800Y-44011400D01*
X100385800Y-51999700D01*
%TD*%
D11*
%TO.C,SERVICE*%
X113350000Y-65500000D03*
D12*
X111750000Y-67500000D03*
D13*
X109250000Y-67500000D03*
X106750000Y-67500000D03*
X104250000Y-67500000D03*
%TD*%
D14*
%TO.C,REF\u002A\u002A*%
X182000000Y-62500000D03*
%TD*%
%TO.C,REF\u002A\u002A*%
X60000000Y-62500000D03*
%TD*%
D11*
%TO.C,COM*%
X173600000Y-65535000D03*
D12*
X172000000Y-67535000D03*
D13*
X169500000Y-67535000D03*
X167000000Y-67535000D03*
X164500000Y-67535000D03*
X162000000Y-67535000D03*
%TD*%
D15*
%TO.C,SW1*%
X81750000Y-58600000D03*
X77050000Y-58600000D03*
X72350000Y-58600000D03*
%TD*%
D11*
%TO.C,KEY*%
X133960000Y-65535000D03*
D12*
X132360000Y-67535000D03*
D13*
X129860000Y-67535000D03*
X127360000Y-67535000D03*
X124860000Y-67535000D03*
X122360000Y-67535000D03*
X119860000Y-67535000D03*
%TD*%
M02*
