%TF.GenerationSoftware,KiCad,Pcbnew,(6.0.8)*%
%TF.CreationDate,2022-12-30T17:29:19+02:00*%
%TF.ProjectId,mahjong_jamma_adapter,6d61686a-6f6e-4675-9f6a-616d6d615f61,rev?*%
%TF.SameCoordinates,Original*%
%TF.FileFunction,Soldermask,Top*%
%TF.FilePolarity,Negative*%
%FSLAX46Y46*%
G04 Gerber Fmt 4.6, Leading zero omitted, Abs format (unit mm)*
G04 Created by KiCad (PCBNEW (6.0.8)) date 2022-12-30 17:29:19*
%MOMM*%
%LPD*%
G01*
G04 APERTURE LIST*
G04 Aperture macros list*
%AMRoundRect*
0 Rectangle with rounded corners*
0 $1 Rounding radius*
0 $2 $3 $4 $5 $6 $7 $8 $9 X,Y pos of 4 corners*
0 Add a 4 corners polygon primitive as box body*
4,1,4,$2,$3,$4,$5,$6,$7,$8,$9,$2,$3,0*
0 Add four circle primitives for the rounded corners*
1,1,$1+$1,$2,$3*
1,1,$1+$1,$4,$5*
1,1,$1+$1,$6,$7*
1,1,$1+$1,$8,$9*
0 Add four rect primitives between the rounded corners*
20,1,$1+$1,$2,$3,$4,$5,0*
20,1,$1+$1,$4,$5,$6,$7,0*
20,1,$1+$1,$6,$7,$8,$9,0*
20,1,$1+$1,$8,$9,$2,$3,0*%
G04 Aperture macros list end*
%ADD10C,1.200000*%
%ADD11RoundRect,0.250000X0.600000X0.725000X-0.600000X0.725000X-0.600000X-0.725000X0.600000X-0.725000X0*%
%ADD12O,1.700000X1.950000*%
%ADD13R,2.350000X8.000000*%
%ADD14C,3.200000*%
%ADD15RoundRect,0.250000X-0.450000X0.350000X-0.450000X-0.350000X0.450000X-0.350000X0.450000X0.350000X0*%
%ADD16C,2.781000*%
%ADD17RoundRect,0.250000X0.450000X-0.350000X0.450000X0.350000X-0.450000X0.350000X-0.450000X-0.350000X0*%
G04 APERTURE END LIST*
D10*
%TO.C,SERVICE*%
X113350000Y-65500000D03*
D11*
X111750000Y-67500000D03*
D12*
X109250000Y-67500000D03*
X106750000Y-67500000D03*
X104250000Y-67500000D03*
%TD*%
D13*
%TO.C,AUDIO*%
X174460000Y-76000000D03*
X174460000Y-76000000D03*
X170500000Y-76000000D03*
X170500000Y-76000000D03*
X166540000Y-76000000D03*
X166540000Y-76000000D03*
X162580000Y-76000000D03*
X162580000Y-76000000D03*
X158620000Y-76000000D03*
X158620000Y-76000000D03*
X154660000Y-76000000D03*
X154660000Y-76000000D03*
X150733160Y-76002540D03*
X146740000Y-76000000D03*
X146740000Y-76000000D03*
X142780000Y-76000000D03*
X142780000Y-76000000D03*
X138820000Y-76000000D03*
X138820000Y-76000000D03*
X134860000Y-76000000D03*
X134860000Y-76000000D03*
X130900000Y-76000000D03*
X130900000Y-76000000D03*
X126940000Y-76000000D03*
X126940000Y-76000000D03*
X122980000Y-76000000D03*
X122980000Y-76000000D03*
X119020000Y-76000000D03*
X119020000Y-76000000D03*
X115060000Y-76000000D03*
X115060000Y-76000000D03*
X111100000Y-76000000D03*
X111100000Y-76000000D03*
X107140000Y-76000000D03*
X107140000Y-76000000D03*
X103180000Y-76000000D03*
X103180000Y-76000000D03*
X99220000Y-76000000D03*
X99220000Y-76000000D03*
X95260000Y-76000000D03*
X95260000Y-76000000D03*
X91300000Y-76000000D03*
X91300000Y-76000000D03*
X87340000Y-76000000D03*
X87340000Y-76000000D03*
X83380000Y-76000000D03*
X83380000Y-76000000D03*
X79420000Y-76000000D03*
X79420000Y-76000000D03*
X75460000Y-76000000D03*
X75460000Y-76000000D03*
X71500000Y-76000000D03*
X71500000Y-76000000D03*
X67540000Y-76000000D03*
X67540000Y-76000000D03*
X174460000Y-76000000D03*
X174460000Y-76000000D03*
X170500000Y-76000000D03*
X170500000Y-76000000D03*
X166540000Y-76000000D03*
X166540000Y-76000000D03*
X162580000Y-76000000D03*
X162580000Y-76000000D03*
X158620000Y-76000000D03*
X158620000Y-76000000D03*
X154660000Y-76000000D03*
X154660000Y-76000000D03*
X150733160Y-76002540D03*
X146740000Y-76000000D03*
X146740000Y-76000000D03*
X142780000Y-76000000D03*
X142780000Y-76000000D03*
X138820000Y-76000000D03*
X138820000Y-76000000D03*
X134860000Y-76000000D03*
X134860000Y-76000000D03*
X130900000Y-76000000D03*
X130900000Y-76000000D03*
X126940000Y-76000000D03*
X126940000Y-76000000D03*
X122980000Y-76000000D03*
X122980000Y-76000000D03*
X119020000Y-76000000D03*
X119020000Y-76000000D03*
X115060000Y-76000000D03*
X115060000Y-76000000D03*
X111100000Y-76000000D03*
X111100000Y-76000000D03*
X107140000Y-76000000D03*
X107140000Y-76000000D03*
X103180000Y-76000000D03*
X103180000Y-76000000D03*
X99220000Y-76000000D03*
X99220000Y-76000000D03*
X95260000Y-76000000D03*
X95260000Y-76000000D03*
X91300000Y-76000000D03*
X91300000Y-76000000D03*
X87340000Y-76000000D03*
X87340000Y-76000000D03*
X83380000Y-76000000D03*
X83380000Y-76000000D03*
X79420000Y-76000000D03*
X79420000Y-76000000D03*
X75460000Y-76000000D03*
X75460000Y-76000000D03*
X71500000Y-76000000D03*
X71500000Y-76000000D03*
X67540000Y-76000000D03*
X67540000Y-76000000D03*
%TD*%
D14*
%TO.C,REF\u002A\u002A*%
X182000000Y-62500000D03*
%TD*%
%TO.C,REF\u002A\u002A*%
X60000000Y-62500000D03*
%TD*%
D10*
%TO.C,COM*%
X173600000Y-65535000D03*
D11*
X172000000Y-67535000D03*
D12*
X169500000Y-67535000D03*
X167000000Y-67535000D03*
X164500000Y-67535000D03*
X162000000Y-67535000D03*
%TD*%
D15*
%TO.C,JMP2*%
X71500000Y-65500000D03*
X71500000Y-67500000D03*
%TD*%
D16*
%TO.C,SW1*%
X81750000Y-58600000D03*
X77050000Y-58600000D03*
X72350000Y-58600000D03*
%TD*%
D10*
%TO.C,KEY*%
X133960000Y-65535000D03*
D11*
X132360000Y-67535000D03*
D12*
X129860000Y-67535000D03*
X127360000Y-67535000D03*
X124860000Y-67535000D03*
X122360000Y-67535000D03*
X119860000Y-67535000D03*
%TD*%
D17*
%TO.C,JMP1*%
X158600000Y-56650000D03*
X158600000Y-54650000D03*
%TD*%
D13*
%TO.C,J1*%
X174480000Y-48000000D03*
X174480000Y-48000000D03*
X170520000Y-48000000D03*
X170520000Y-48000000D03*
X166560000Y-48000000D03*
X166560000Y-48000000D03*
X162600000Y-48000000D03*
X162600000Y-48000000D03*
X158640000Y-48000000D03*
X158640000Y-48000000D03*
X154680000Y-48000000D03*
X154680000Y-48000000D03*
X146760000Y-48000000D03*
X146760000Y-48000000D03*
X142800000Y-48000000D03*
X142800000Y-48000000D03*
X138840000Y-48000000D03*
X138840000Y-48000000D03*
X134880000Y-48000000D03*
X134880000Y-48000000D03*
X130920000Y-48000000D03*
X130920000Y-48000000D03*
X126960000Y-48000000D03*
X126960000Y-48000000D03*
X123000000Y-48000000D03*
X123000000Y-48000000D03*
X119040000Y-48000000D03*
X119040000Y-48000000D03*
X115080000Y-48000000D03*
X115080000Y-48000000D03*
X111120000Y-48000000D03*
X111120000Y-48000000D03*
X107160000Y-48000000D03*
X107160000Y-48000000D03*
X103200000Y-48000000D03*
X103200000Y-48000000D03*
X99240000Y-48000000D03*
X99240000Y-48000000D03*
X95280000Y-48000000D03*
X95280000Y-48000000D03*
X91320000Y-48000000D03*
X91320000Y-48000000D03*
X87360000Y-48000000D03*
X87360000Y-48000000D03*
X83400000Y-48000000D03*
X83400000Y-48000000D03*
X79440000Y-48000000D03*
X79440000Y-48000000D03*
X75480000Y-48000000D03*
X75480000Y-48000000D03*
X71520000Y-48000000D03*
X71520000Y-48000000D03*
X67560000Y-48000000D03*
X67560000Y-48000000D03*
X174480000Y-48000000D03*
X174480000Y-48000000D03*
X170520000Y-48000000D03*
X170520000Y-48000000D03*
X166560000Y-48000000D03*
X166560000Y-48000000D03*
X162600000Y-48000000D03*
X162600000Y-48000000D03*
X158640000Y-48000000D03*
X158640000Y-48000000D03*
X154680000Y-48000000D03*
X154680000Y-48000000D03*
X146760000Y-48000000D03*
X146760000Y-48000000D03*
X142800000Y-48000000D03*
X142800000Y-48000000D03*
X138840000Y-48000000D03*
X138840000Y-48000000D03*
X134880000Y-48000000D03*
X134880000Y-48000000D03*
X130920000Y-48000000D03*
X130920000Y-48000000D03*
X126960000Y-48000000D03*
X126960000Y-48000000D03*
X123000000Y-48000000D03*
X123000000Y-48000000D03*
X119040000Y-48000000D03*
X119040000Y-48000000D03*
X115080000Y-48000000D03*
X115080000Y-48000000D03*
X111120000Y-48000000D03*
X111120000Y-48000000D03*
X107160000Y-48000000D03*
X107160000Y-48000000D03*
X103200000Y-48000000D03*
X103200000Y-48000000D03*
X99240000Y-48000000D03*
X99240000Y-48000000D03*
X95280000Y-48000000D03*
X95280000Y-48000000D03*
X91320000Y-48000000D03*
X91320000Y-48000000D03*
X87360000Y-48000000D03*
X87360000Y-48000000D03*
X83400000Y-48000000D03*
X83400000Y-48000000D03*
X79440000Y-48000000D03*
X79440000Y-48000000D03*
X75480000Y-48000000D03*
X75480000Y-48000000D03*
X71520000Y-48000000D03*
X71520000Y-48000000D03*
X67560000Y-48000000D03*
X67560000Y-48000000D03*
%TD*%
M02*
