M48
; DRILL file {KiCad (6.0.8)} date Fri Dec 30 17:29:21 2022
; FORMAT={-:-/ absolute / metric / decimal}
; #@! TF.CreationDate,2022-12-30T17:29:21+02:00
; #@! TF.GenerationSoftware,Kicad,Pcbnew,(6.0.8)
; #@! TF.FileFunction,Plated,1,2,PTH
FMAT,2
METRIC
; #@! TA.AperFunction,Plated,PTH,ViaDrill
T1C0.400
; #@! TA.AperFunction,Plated,PTH,ComponentDrill
T2C0.950
; #@! TA.AperFunction,Plated,PTH,ComponentDrill
T3C1.854
%
G90
G05
T1
X71.5Y-70.5
X79.42Y-70.58
X87.34Y-70.66
X90.0Y-68.0
X95.26Y-65.0
X99.22Y-70.78
X101.0Y-62.0
X112.02Y-54.651
X115.06Y-53.85
X115.8Y-68.4
X115.8Y-69.6
X123.0Y-54.4
X123.0Y-62.0
X136.0Y-66.2
X136.4Y-69.4
X137.0Y-65.4
X143.2Y-54.6
X144.8Y-52.8
X145.6Y-54.2
X154.28Y-64.05
X154.68Y-53.32
X158.62Y-70.98
X158.64Y-53.36
X162.6Y-53.4
X170.52Y-53.28
T2
X104.25Y-67.5
X106.75Y-67.5
X109.25Y-67.5
X111.75Y-67.5
X119.86Y-67.535
X122.36Y-67.535
X124.86Y-67.535
X127.36Y-67.535
X129.86Y-67.535
X132.36Y-67.535
X162.0Y-67.535
X164.5Y-67.535
X167.0Y-67.535
X169.5Y-67.535
X172.0Y-67.535
T3
X72.35Y-58.6
X77.05Y-58.6
X81.75Y-58.6
T0
M30
