%TF.GenerationSoftware,KiCad,Pcbnew,(6.0.8)*%
%TF.CreationDate,2022-12-30T17:29:19+02:00*%
%TF.ProjectId,mahjong_jamma_adapter,6d61686a-6f6e-4675-9f6a-616d6d615f61,rev?*%
%TF.SameCoordinates,Original*%
%TF.FileFunction,Legend,Top*%
%TF.FilePolarity,Positive*%
%FSLAX46Y46*%
G04 Gerber Fmt 4.6, Leading zero omitted, Abs format (unit mm)*
G04 Created by KiCad (PCBNEW (6.0.8)) date 2022-12-30 17:29:19*
%MOMM*%
%LPD*%
G01*
G04 APERTURE LIST*
%ADD10C,0.250000*%
%ADD11C,0.150000*%
%ADD12C,0.200000*%
%ADD13C,0.300000*%
%ADD14C,0.120000*%
%ADD15C,0.100000*%
G04 APERTURE END LIST*
D10*
X132452380Y-70452380D02*
X132547619Y-70452380D01*
X132642857Y-70500000D01*
X132690476Y-70547619D01*
X132738095Y-70642857D01*
X132785714Y-70833333D01*
X132785714Y-71071428D01*
X132738095Y-71261904D01*
X132690476Y-71357142D01*
X132642857Y-71404761D01*
X132547619Y-71452380D01*
X132452380Y-71452380D01*
X132357142Y-71404761D01*
X132309523Y-71357142D01*
X132261904Y-71261904D01*
X132214285Y-71071428D01*
X132214285Y-70833333D01*
X132261904Y-70642857D01*
X132309523Y-70547619D01*
X132357142Y-70500000D01*
X132452380Y-70452380D01*
D11*
X103667999Y-70625000D02*
X103596570Y-70589285D01*
X103489428Y-70589285D01*
X103382285Y-70625000D01*
X103310856Y-70696428D01*
X103275142Y-70767857D01*
X103239428Y-70910714D01*
X103239428Y-71017857D01*
X103275142Y-71160714D01*
X103310856Y-71232142D01*
X103382285Y-71303571D01*
X103489428Y-71339285D01*
X103560856Y-71339285D01*
X103667999Y-71303571D01*
X103703713Y-71267857D01*
X103703713Y-71017857D01*
X103560856Y-71017857D01*
X104025142Y-71339285D02*
X104025142Y-70589285D01*
X104453713Y-71339285D01*
X104453713Y-70589285D01*
X104810856Y-71339285D02*
X104810856Y-70589285D01*
X104989428Y-70589285D01*
X105096570Y-70625000D01*
X105167999Y-70696428D01*
X105203713Y-70767857D01*
X105239428Y-70910714D01*
X105239428Y-71017857D01*
X105203713Y-71160714D01*
X105167999Y-71232142D01*
X105096570Y-71303571D01*
X104989428Y-71339285D01*
X104810856Y-71339285D01*
X105839285Y-71303571D02*
X105946428Y-71339285D01*
X106125000Y-71339285D01*
X106196428Y-71303571D01*
X106232142Y-71267857D01*
X106267857Y-71196428D01*
X106267857Y-71125000D01*
X106232142Y-71053571D01*
X106196428Y-71017857D01*
X106125000Y-70982142D01*
X105982142Y-70946428D01*
X105910714Y-70910714D01*
X105875000Y-70875000D01*
X105839285Y-70803571D01*
X105839285Y-70732142D01*
X105875000Y-70660714D01*
X105910714Y-70625000D01*
X105982142Y-70589285D01*
X106160714Y-70589285D01*
X106267857Y-70625000D01*
X107017857Y-71339285D02*
X106767857Y-70982142D01*
X106589285Y-71339285D02*
X106589285Y-70589285D01*
X106875000Y-70589285D01*
X106946428Y-70625000D01*
X106982142Y-70660714D01*
X107017857Y-70732142D01*
X107017857Y-70839285D01*
X106982142Y-70910714D01*
X106946428Y-70946428D01*
X106875000Y-70982142D01*
X106589285Y-70982142D01*
X107232142Y-70589285D02*
X107482142Y-71339285D01*
X107732142Y-70589285D01*
D12*
X85369047Y-57766428D02*
X86130952Y-57766428D01*
X85940476Y-57956904D02*
X86130952Y-57766428D01*
X85940476Y-57575952D01*
X84988095Y-58805000D02*
X84892857Y-58757380D01*
X84750000Y-58757380D01*
X84607142Y-58805000D01*
X84511904Y-58900238D01*
X84464285Y-58995476D01*
X84416666Y-59185952D01*
X84416666Y-59328809D01*
X84464285Y-59519285D01*
X84511904Y-59614523D01*
X84607142Y-59709761D01*
X84750000Y-59757380D01*
X84845238Y-59757380D01*
X84988095Y-59709761D01*
X85035714Y-59662142D01*
X85035714Y-59328809D01*
X84845238Y-59328809D01*
X85464285Y-59757380D02*
X85464285Y-58757380D01*
X86035714Y-59757380D01*
X86035714Y-58757380D01*
X86511904Y-59757380D02*
X86511904Y-58757380D01*
X86750000Y-58757380D01*
X86892857Y-58805000D01*
X86988095Y-58900238D01*
X87035714Y-58995476D01*
X87083333Y-59185952D01*
X87083333Y-59328809D01*
X87035714Y-59519285D01*
X86988095Y-59614523D01*
X86892857Y-59709761D01*
X86750000Y-59757380D01*
X86511904Y-59757380D01*
D10*
X162190476Y-70785714D02*
X162190476Y-71452380D01*
X161952380Y-70404761D02*
X161714285Y-71119047D01*
X162333333Y-71119047D01*
X164206666Y-70452380D02*
X164825714Y-70452380D01*
X164492380Y-70833333D01*
X164635238Y-70833333D01*
X164730476Y-70880952D01*
X164778095Y-70928571D01*
X164825714Y-71023809D01*
X164825714Y-71261904D01*
X164778095Y-71357142D01*
X164730476Y-71404761D01*
X164635238Y-71452380D01*
X164349523Y-71452380D01*
X164254285Y-71404761D01*
X164206666Y-71357142D01*
D11*
X111017857Y-71267857D02*
X110982142Y-71303571D01*
X110875000Y-71339285D01*
X110803571Y-71339285D01*
X110696428Y-71303571D01*
X110625000Y-71232142D01*
X110589285Y-71160714D01*
X110553571Y-71017857D01*
X110553571Y-70910714D01*
X110589285Y-70767857D01*
X110625000Y-70696428D01*
X110696428Y-70625000D01*
X110803571Y-70589285D01*
X110875000Y-70589285D01*
X110982142Y-70625000D01*
X111017857Y-70660714D01*
X111482142Y-70589285D02*
X111625000Y-70589285D01*
X111696428Y-70625000D01*
X111767857Y-70696428D01*
X111803571Y-70839285D01*
X111803571Y-71089285D01*
X111767857Y-71232142D01*
X111696428Y-71303571D01*
X111625000Y-71339285D01*
X111482142Y-71339285D01*
X111410714Y-71303571D01*
X111339285Y-71232142D01*
X111303571Y-71089285D01*
X111303571Y-70839285D01*
X111339285Y-70696428D01*
X111410714Y-70625000D01*
X111482142Y-70589285D01*
X112125000Y-71339285D02*
X112125000Y-70589285D01*
X112482142Y-71339285D02*
X112482142Y-70589285D01*
X112910714Y-71339285D01*
X112910714Y-70589285D01*
D10*
X169905714Y-71452380D02*
X169334285Y-71452380D01*
X169620000Y-71452380D02*
X169620000Y-70452380D01*
X169524761Y-70595238D01*
X169429523Y-70690476D01*
X169334285Y-70738095D01*
D11*
X75607142Y-62985535D02*
X75607142Y-63521250D01*
X75571428Y-63628392D01*
X75500000Y-63699821D01*
X75392857Y-63735535D01*
X75321428Y-63735535D01*
X75928571Y-63521250D02*
X76285714Y-63521250D01*
X75857142Y-63735535D02*
X76107142Y-62985535D01*
X76357142Y-63735535D01*
X76607142Y-63735535D02*
X76607142Y-62985535D01*
X76857142Y-63521250D01*
X77107142Y-62985535D01*
X77107142Y-63735535D01*
X77464285Y-63735535D02*
X77464285Y-62985535D01*
X77714285Y-63521250D01*
X77964285Y-62985535D01*
X77964285Y-63735535D01*
X78285714Y-63521250D02*
X78642857Y-63521250D01*
X78214285Y-63735535D02*
X78464285Y-62985535D01*
X78714285Y-63735535D01*
X75571428Y-64907321D02*
X75678571Y-64943035D01*
X75857142Y-64943035D01*
X75928571Y-64907321D01*
X75964285Y-64871607D01*
X76000000Y-64800178D01*
X76000000Y-64728750D01*
X75964285Y-64657321D01*
X75928571Y-64621607D01*
X75857142Y-64585892D01*
X75714285Y-64550178D01*
X75642857Y-64514464D01*
X75607142Y-64478750D01*
X75571428Y-64407321D01*
X75571428Y-64335892D01*
X75607142Y-64264464D01*
X75642857Y-64228750D01*
X75714285Y-64193035D01*
X75892857Y-64193035D01*
X76000000Y-64228750D01*
X76321428Y-64943035D02*
X76321428Y-64193035D01*
X76607142Y-64193035D01*
X76678571Y-64228750D01*
X76714285Y-64264464D01*
X76750000Y-64335892D01*
X76750000Y-64443035D01*
X76714285Y-64514464D01*
X76678571Y-64550178D01*
X76607142Y-64585892D01*
X76321428Y-64585892D01*
X77071428Y-64943035D02*
X77071428Y-64193035D01*
X77500000Y-64943035D02*
X77178571Y-64514464D01*
X77500000Y-64193035D02*
X77071428Y-64621607D01*
X77821428Y-64657321D02*
X78392857Y-64657321D01*
D10*
X166798285Y-70547619D02*
X166845904Y-70500000D01*
X166941142Y-70452380D01*
X167179238Y-70452380D01*
X167274476Y-70500000D01*
X167322095Y-70547619D01*
X167369714Y-70642857D01*
X167369714Y-70738095D01*
X167322095Y-70880952D01*
X166750666Y-71452380D01*
X167369714Y-71452380D01*
X124666666Y-70452380D02*
X125285714Y-70452380D01*
X124952380Y-70833333D01*
X125095238Y-70833333D01*
X125190476Y-70880952D01*
X125238095Y-70928571D01*
X125285714Y-71023809D01*
X125285714Y-71261904D01*
X125238095Y-71357142D01*
X125190476Y-71404761D01*
X125095238Y-71452380D01*
X124809523Y-71452380D01*
X124714285Y-71404761D01*
X124666666Y-71357142D01*
X127214285Y-70547619D02*
X127261904Y-70500000D01*
X127357142Y-70452380D01*
X127595238Y-70452380D01*
X127690476Y-70500000D01*
X127738095Y-70547619D01*
X127785714Y-70642857D01*
X127785714Y-70738095D01*
X127738095Y-70880952D01*
X127166666Y-71452380D01*
X127785714Y-71452380D01*
D12*
X67880952Y-56711428D02*
X67119047Y-56711428D01*
X67309523Y-56901904D02*
X67119047Y-56711428D01*
X67309523Y-56520952D01*
X66095238Y-57702380D02*
X66095238Y-58416666D01*
X66047619Y-58559523D01*
X65952380Y-58654761D01*
X65809523Y-58702380D01*
X65714285Y-58702380D01*
X66761904Y-57702380D02*
X66952380Y-57702380D01*
X67047619Y-57750000D01*
X67142857Y-57845238D01*
X67190476Y-58035714D01*
X67190476Y-58369047D01*
X67142857Y-58559523D01*
X67047619Y-58654761D01*
X66952380Y-58702380D01*
X66761904Y-58702380D01*
X66666666Y-58654761D01*
X66571428Y-58559523D01*
X66523809Y-58369047D01*
X66523809Y-58035714D01*
X66571428Y-57845238D01*
X66666666Y-57750000D01*
X66761904Y-57702380D01*
X67619047Y-58702380D02*
X67619047Y-57702380D01*
X68190476Y-58702380D01*
X68190476Y-57702380D01*
X69190476Y-57750000D02*
X69095238Y-57702380D01*
X68952380Y-57702380D01*
X68809523Y-57750000D01*
X68714285Y-57845238D01*
X68666666Y-57940476D01*
X68619047Y-58130952D01*
X68619047Y-58273809D01*
X68666666Y-58464285D01*
X68714285Y-58559523D01*
X68809523Y-58654761D01*
X68952380Y-58702380D01*
X69047619Y-58702380D01*
X69190476Y-58654761D01*
X69238095Y-58607142D01*
X69238095Y-58273809D01*
X69047619Y-58273809D01*
X65595238Y-60264761D02*
X65738095Y-60312380D01*
X65976190Y-60312380D01*
X66071428Y-60264761D01*
X66119047Y-60217142D01*
X66166666Y-60121904D01*
X66166666Y-60026666D01*
X66119047Y-59931428D01*
X66071428Y-59883809D01*
X65976190Y-59836190D01*
X65785714Y-59788571D01*
X65690476Y-59740952D01*
X65642857Y-59693333D01*
X65595238Y-59598095D01*
X65595238Y-59502857D01*
X65642857Y-59407619D01*
X65690476Y-59360000D01*
X65785714Y-59312380D01*
X66023809Y-59312380D01*
X66166666Y-59360000D01*
X66595238Y-60312380D02*
X66595238Y-59312380D01*
X66976190Y-59312380D01*
X67071428Y-59360000D01*
X67119047Y-59407619D01*
X67166666Y-59502857D01*
X67166666Y-59645714D01*
X67119047Y-59740952D01*
X67071428Y-59788571D01*
X66976190Y-59836190D01*
X66595238Y-59836190D01*
X67595238Y-60312380D02*
X67595238Y-59312380D01*
X68166666Y-60312380D02*
X67738095Y-59740952D01*
X68166666Y-59312380D02*
X67595238Y-59883809D01*
X68595238Y-59931428D02*
X69357142Y-59931428D01*
X66061428Y-67419047D02*
X66061428Y-68180952D01*
X66251904Y-67990476D02*
X66061428Y-68180952D01*
X65870952Y-67990476D01*
X68052380Y-71014285D02*
X67052380Y-71014285D01*
X67766666Y-70680952D01*
X67052380Y-70347619D01*
X68052380Y-70347619D01*
X67766666Y-69919047D02*
X67766666Y-69442857D01*
X68052380Y-70014285D02*
X67052380Y-69680952D01*
X68052380Y-69347619D01*
X68052380Y-69014285D02*
X67052380Y-69014285D01*
X67528571Y-69014285D02*
X67528571Y-68442857D01*
X68052380Y-68442857D02*
X67052380Y-68442857D01*
X67052380Y-67680952D02*
X67766666Y-67680952D01*
X67909523Y-67728571D01*
X68004761Y-67823809D01*
X68052380Y-67966666D01*
X68052380Y-68061904D01*
X67052380Y-67014285D02*
X67052380Y-66823809D01*
X67100000Y-66728571D01*
X67195238Y-66633333D01*
X67385714Y-66585714D01*
X67719047Y-66585714D01*
X67909523Y-66633333D01*
X68004761Y-66728571D01*
X68052380Y-66823809D01*
X68052380Y-67014285D01*
X68004761Y-67109523D01*
X67909523Y-67204761D01*
X67719047Y-67252380D01*
X67385714Y-67252380D01*
X67195238Y-67204761D01*
X67100000Y-67109523D01*
X67052380Y-67014285D01*
X68052380Y-66157142D02*
X67052380Y-66157142D01*
X68052380Y-65585714D01*
X67052380Y-65585714D01*
X67100000Y-64585714D02*
X67052380Y-64680952D01*
X67052380Y-64823809D01*
X67100000Y-64966666D01*
X67195238Y-65061904D01*
X67290476Y-65109523D01*
X67480952Y-65157142D01*
X67623809Y-65157142D01*
X67814285Y-65109523D01*
X67909523Y-65061904D01*
X68004761Y-64966666D01*
X68052380Y-64823809D01*
X68052380Y-64728571D01*
X68004761Y-64585714D01*
X67957142Y-64538095D01*
X67623809Y-64538095D01*
X67623809Y-64728571D01*
X69614761Y-69276190D02*
X69662380Y-69133333D01*
X69662380Y-68895238D01*
X69614761Y-68800000D01*
X69567142Y-68752380D01*
X69471904Y-68704761D01*
X69376666Y-68704761D01*
X69281428Y-68752380D01*
X69233809Y-68800000D01*
X69186190Y-68895238D01*
X69138571Y-69085714D01*
X69090952Y-69180952D01*
X69043333Y-69228571D01*
X68948095Y-69276190D01*
X68852857Y-69276190D01*
X68757619Y-69228571D01*
X68710000Y-69180952D01*
X68662380Y-69085714D01*
X68662380Y-68847619D01*
X68710000Y-68704761D01*
X69662380Y-68276190D02*
X68662380Y-68276190D01*
X69662380Y-67800000D02*
X68662380Y-67800000D01*
X68662380Y-67561904D01*
X68710000Y-67419047D01*
X68805238Y-67323809D01*
X68900476Y-67276190D01*
X69090952Y-67228571D01*
X69233809Y-67228571D01*
X69424285Y-67276190D01*
X69519523Y-67323809D01*
X69614761Y-67419047D01*
X69662380Y-67561904D01*
X69662380Y-67800000D01*
X69138571Y-66800000D02*
X69138571Y-66466666D01*
X69662380Y-66323809D02*
X69662380Y-66800000D01*
X68662380Y-66800000D01*
X68662380Y-66323809D01*
D10*
X120238095Y-70452380D02*
X119761904Y-70452380D01*
X119714285Y-70928571D01*
X119761904Y-70880952D01*
X119857142Y-70833333D01*
X120095238Y-70833333D01*
X120190476Y-70880952D01*
X120238095Y-70928571D01*
X120285714Y-71023809D01*
X120285714Y-71261904D01*
X120238095Y-71357142D01*
X120190476Y-71404761D01*
X120095238Y-71452380D01*
X119857142Y-71452380D01*
X119761904Y-71404761D01*
X119714285Y-71357142D01*
D11*
X80696428Y-62985535D02*
X80696428Y-63521250D01*
X80660714Y-63628392D01*
X80589285Y-63699821D01*
X80482142Y-63735535D01*
X80410714Y-63735535D01*
X81196428Y-62985535D02*
X81339285Y-62985535D01*
X81410714Y-63021250D01*
X81482142Y-63092678D01*
X81517857Y-63235535D01*
X81517857Y-63485535D01*
X81482142Y-63628392D01*
X81410714Y-63699821D01*
X81339285Y-63735535D01*
X81196428Y-63735535D01*
X81125000Y-63699821D01*
X81053571Y-63628392D01*
X81017857Y-63485535D01*
X81017857Y-63235535D01*
X81053571Y-63092678D01*
X81125000Y-63021250D01*
X81196428Y-62985535D01*
X81839285Y-63735535D02*
X81839285Y-62985535D01*
X82267857Y-63735535D01*
X82267857Y-62985535D01*
X83017857Y-63021250D02*
X82946428Y-62985535D01*
X82839285Y-62985535D01*
X82732142Y-63021250D01*
X82660714Y-63092678D01*
X82625000Y-63164107D01*
X82589285Y-63306964D01*
X82589285Y-63414107D01*
X82625000Y-63556964D01*
X82660714Y-63628392D01*
X82732142Y-63699821D01*
X82839285Y-63735535D01*
X82910714Y-63735535D01*
X83017857Y-63699821D01*
X83053571Y-63664107D01*
X83053571Y-63414107D01*
X82910714Y-63414107D01*
X80321428Y-64907321D02*
X80428571Y-64943035D01*
X80607142Y-64943035D01*
X80678571Y-64907321D01*
X80714285Y-64871607D01*
X80750000Y-64800178D01*
X80750000Y-64728750D01*
X80714285Y-64657321D01*
X80678571Y-64621607D01*
X80607142Y-64585892D01*
X80464285Y-64550178D01*
X80392857Y-64514464D01*
X80357142Y-64478750D01*
X80321428Y-64407321D01*
X80321428Y-64335892D01*
X80357142Y-64264464D01*
X80392857Y-64228750D01*
X80464285Y-64193035D01*
X80642857Y-64193035D01*
X80750000Y-64228750D01*
X81071428Y-64943035D02*
X81071428Y-64193035D01*
X81357142Y-64193035D01*
X81428571Y-64228750D01*
X81464285Y-64264464D01*
X81500000Y-64335892D01*
X81500000Y-64443035D01*
X81464285Y-64514464D01*
X81428571Y-64550178D01*
X81357142Y-64585892D01*
X81071428Y-64585892D01*
X81821428Y-64943035D02*
X81821428Y-64193035D01*
X82250000Y-64943035D02*
X81928571Y-64514464D01*
X82250000Y-64193035D02*
X81821428Y-64621607D01*
X82571428Y-64657321D02*
X83142857Y-64657321D01*
D13*
X170492142Y-57471428D02*
X170492142Y-56328571D01*
X170777857Y-56614285D02*
X170492142Y-56328571D01*
X170206428Y-56614285D01*
X171978571Y-59685714D02*
X173050000Y-59685714D01*
X173264285Y-59757142D01*
X173407142Y-59900000D01*
X173478571Y-60114285D01*
X173478571Y-60257142D01*
X173050000Y-59042857D02*
X173050000Y-58328571D01*
X173478571Y-59185714D02*
X171978571Y-58685714D01*
X173478571Y-58185714D01*
X173478571Y-57685714D02*
X171978571Y-57685714D01*
X173050000Y-57185714D01*
X171978571Y-56685714D01*
X173478571Y-56685714D01*
X173478571Y-55971428D02*
X171978571Y-55971428D01*
X173050000Y-55471428D01*
X171978571Y-54971428D01*
X173478571Y-54971428D01*
X173050000Y-54328571D02*
X173050000Y-53614285D01*
X173478571Y-54471428D02*
X171978571Y-53971428D01*
X173478571Y-53471428D01*
X175822142Y-59114285D02*
X175893571Y-58900000D01*
X175893571Y-58542857D01*
X175822142Y-58400000D01*
X175750714Y-58328571D01*
X175607857Y-58257142D01*
X175465000Y-58257142D01*
X175322142Y-58328571D01*
X175250714Y-58400000D01*
X175179285Y-58542857D01*
X175107857Y-58828571D01*
X175036428Y-58971428D01*
X174965000Y-59042857D01*
X174822142Y-59114285D01*
X174679285Y-59114285D01*
X174536428Y-59042857D01*
X174465000Y-58971428D01*
X174393571Y-58828571D01*
X174393571Y-58471428D01*
X174465000Y-58257142D01*
X175893571Y-57614285D02*
X174393571Y-57614285D01*
X175893571Y-56900000D02*
X174393571Y-56900000D01*
X174393571Y-56542857D01*
X174465000Y-56328571D01*
X174607857Y-56185714D01*
X174750714Y-56114285D01*
X175036428Y-56042857D01*
X175250714Y-56042857D01*
X175536428Y-56114285D01*
X175679285Y-56185714D01*
X175822142Y-56328571D01*
X175893571Y-56542857D01*
X175893571Y-56900000D01*
X175107857Y-55400000D02*
X175107857Y-54900000D01*
X175893571Y-54685714D02*
X175893571Y-55400000D01*
X174393571Y-55400000D01*
X174393571Y-54685714D01*
D10*
X122690476Y-70785714D02*
X122690476Y-71452380D01*
X122452380Y-70404761D02*
X122214285Y-71119047D01*
X122833333Y-71119047D01*
X172112380Y-70452380D02*
X172207619Y-70452380D01*
X172302857Y-70500000D01*
X172350476Y-70547619D01*
X172398095Y-70642857D01*
X172445714Y-70833333D01*
X172445714Y-71071428D01*
X172398095Y-71261904D01*
X172350476Y-71357142D01*
X172302857Y-71404761D01*
X172207619Y-71452380D01*
X172112380Y-71452380D01*
X172017142Y-71404761D01*
X171969523Y-71357142D01*
X171921904Y-71261904D01*
X171874285Y-71071428D01*
X171874285Y-70833333D01*
X171921904Y-70642857D01*
X171969523Y-70547619D01*
X172017142Y-70500000D01*
X172112380Y-70452380D01*
D11*
X71928571Y-63125000D02*
X71857142Y-63089285D01*
X71750000Y-63089285D01*
X71642857Y-63125000D01*
X71571428Y-63196428D01*
X71535714Y-63267857D01*
X71500000Y-63410714D01*
X71500000Y-63517857D01*
X71535714Y-63660714D01*
X71571428Y-63732142D01*
X71642857Y-63803571D01*
X71750000Y-63839285D01*
X71821428Y-63839285D01*
X71928571Y-63803571D01*
X71964285Y-63767857D01*
X71964285Y-63517857D01*
X71821428Y-63517857D01*
X72285714Y-63839285D02*
X72285714Y-63089285D01*
X72714285Y-63839285D01*
X72714285Y-63089285D01*
X73071428Y-63839285D02*
X73071428Y-63089285D01*
X73250000Y-63089285D01*
X73357142Y-63125000D01*
X73428571Y-63196428D01*
X73464285Y-63267857D01*
X73500000Y-63410714D01*
X73500000Y-63517857D01*
X73464285Y-63660714D01*
X73428571Y-63732142D01*
X73357142Y-63803571D01*
X73250000Y-63839285D01*
X73071428Y-63839285D01*
X108392857Y-70589285D02*
X108821428Y-70589285D01*
X108607142Y-71339285D02*
X108607142Y-70589285D01*
X109035714Y-71303571D02*
X109142857Y-71339285D01*
X109321428Y-71339285D01*
X109392857Y-71303571D01*
X109428571Y-71267857D01*
X109464285Y-71196428D01*
X109464285Y-71125000D01*
X109428571Y-71053571D01*
X109392857Y-71017857D01*
X109321428Y-70982142D01*
X109178571Y-70946428D01*
X109107142Y-70910714D01*
X109071428Y-70875000D01*
X109035714Y-70803571D01*
X109035714Y-70732142D01*
X109071428Y-70660714D01*
X109107142Y-70625000D01*
X109178571Y-70589285D01*
X109357142Y-70589285D01*
X109464285Y-70625000D01*
X109678571Y-70589285D02*
X110107142Y-70589285D01*
X109892857Y-71339285D02*
X109892857Y-70589285D01*
D10*
X130285714Y-71452380D02*
X129714285Y-71452380D01*
X130000000Y-71452380D02*
X130000000Y-70452380D01*
X129904761Y-70595238D01*
X129809523Y-70690476D01*
X129714285Y-70738095D01*
D11*
%TO.C,SERVICE*%
X104892857Y-63154761D02*
X105035714Y-63202380D01*
X105273809Y-63202380D01*
X105369047Y-63154761D01*
X105416666Y-63107142D01*
X105464285Y-63011904D01*
X105464285Y-62916666D01*
X105416666Y-62821428D01*
X105369047Y-62773809D01*
X105273809Y-62726190D01*
X105083333Y-62678571D01*
X104988095Y-62630952D01*
X104940476Y-62583333D01*
X104892857Y-62488095D01*
X104892857Y-62392857D01*
X104940476Y-62297619D01*
X104988095Y-62250000D01*
X105083333Y-62202380D01*
X105321428Y-62202380D01*
X105464285Y-62250000D01*
X105892857Y-62678571D02*
X106226190Y-62678571D01*
X106369047Y-63202380D02*
X105892857Y-63202380D01*
X105892857Y-62202380D01*
X106369047Y-62202380D01*
X107369047Y-63202380D02*
X107035714Y-62726190D01*
X106797619Y-63202380D02*
X106797619Y-62202380D01*
X107178571Y-62202380D01*
X107273809Y-62250000D01*
X107321428Y-62297619D01*
X107369047Y-62392857D01*
X107369047Y-62535714D01*
X107321428Y-62630952D01*
X107273809Y-62678571D01*
X107178571Y-62726190D01*
X106797619Y-62726190D01*
X107654761Y-62202380D02*
X107988095Y-63202380D01*
X108321428Y-62202380D01*
X108654761Y-63202380D02*
X108654761Y-62202380D01*
X109702380Y-63107142D02*
X109654761Y-63154761D01*
X109511904Y-63202380D01*
X109416666Y-63202380D01*
X109273809Y-63154761D01*
X109178571Y-63059523D01*
X109130952Y-62964285D01*
X109083333Y-62773809D01*
X109083333Y-62630952D01*
X109130952Y-62440476D01*
X109178571Y-62345238D01*
X109273809Y-62250000D01*
X109416666Y-62202380D01*
X109511904Y-62202380D01*
X109654761Y-62250000D01*
X109702380Y-62297619D01*
X110130952Y-62678571D02*
X110464285Y-62678571D01*
X110607142Y-63202380D02*
X110130952Y-63202380D01*
X110130952Y-62202380D01*
X110607142Y-62202380D01*
%TO.C,AUDIO*%
X74571428Y-53700000D02*
X75142857Y-53700000D01*
X74457142Y-54042857D02*
X74857142Y-52842857D01*
X75257142Y-54042857D01*
X75657142Y-52842857D02*
X75657142Y-53814285D01*
X75714285Y-53928571D01*
X75771428Y-53985714D01*
X75885714Y-54042857D01*
X76114285Y-54042857D01*
X76228571Y-53985714D01*
X76285714Y-53928571D01*
X76342857Y-53814285D01*
X76342857Y-52842857D01*
X76914285Y-54042857D02*
X76914285Y-52842857D01*
X77200000Y-52842857D01*
X77371428Y-52900000D01*
X77485714Y-53014285D01*
X77542857Y-53128571D01*
X77600000Y-53357142D01*
X77600000Y-53528571D01*
X77542857Y-53757142D01*
X77485714Y-53871428D01*
X77371428Y-53985714D01*
X77200000Y-54042857D01*
X76914285Y-54042857D01*
X78114285Y-54042857D02*
X78114285Y-52842857D01*
X78914285Y-52842857D02*
X79142857Y-52842857D01*
X79257142Y-52900000D01*
X79371428Y-53014285D01*
X79428571Y-53242857D01*
X79428571Y-53642857D01*
X79371428Y-53871428D01*
X79257142Y-53985714D01*
X79142857Y-54042857D01*
X78914285Y-54042857D01*
X78800000Y-53985714D01*
X78685714Y-53871428D01*
X78628571Y-53642857D01*
X78628571Y-53242857D01*
X78685714Y-53014285D01*
X78800000Y-52900000D01*
X78914285Y-52842857D01*
%TO.C,COM*%
X166214285Y-63107142D02*
X166166666Y-63154761D01*
X166023809Y-63202380D01*
X165928571Y-63202380D01*
X165785714Y-63154761D01*
X165690476Y-63059523D01*
X165642857Y-62964285D01*
X165595238Y-62773809D01*
X165595238Y-62630952D01*
X165642857Y-62440476D01*
X165690476Y-62345238D01*
X165785714Y-62250000D01*
X165928571Y-62202380D01*
X166023809Y-62202380D01*
X166166666Y-62250000D01*
X166214285Y-62297619D01*
X166833333Y-62202380D02*
X167023809Y-62202380D01*
X167119047Y-62250000D01*
X167214285Y-62345238D01*
X167261904Y-62535714D01*
X167261904Y-62869047D01*
X167214285Y-63059523D01*
X167119047Y-63154761D01*
X167023809Y-63202380D01*
X166833333Y-63202380D01*
X166738095Y-63154761D01*
X166642857Y-63059523D01*
X166595238Y-62869047D01*
X166595238Y-62535714D01*
X166642857Y-62345238D01*
X166738095Y-62250000D01*
X166833333Y-62202380D01*
X167690476Y-63202380D02*
X167690476Y-62202380D01*
X168023809Y-62916666D01*
X168357142Y-62202380D01*
X168357142Y-63202380D01*
%TO.C,KEY*%
X124607142Y-63202380D02*
X124607142Y-62202380D01*
X125178571Y-63202380D02*
X124750000Y-62630952D01*
X125178571Y-62202380D02*
X124607142Y-62773809D01*
X125607142Y-62678571D02*
X125940476Y-62678571D01*
X126083333Y-63202380D02*
X125607142Y-63202380D01*
X125607142Y-62202380D01*
X126083333Y-62202380D01*
X126702380Y-62726190D02*
X126702380Y-63202380D01*
X126369047Y-62202380D02*
X126702380Y-62726190D01*
X127035714Y-62202380D01*
%TO.C,J1*%
X120620000Y-41642857D02*
X120620000Y-42500000D01*
X120562857Y-42671428D01*
X120448571Y-42785714D01*
X120277142Y-42842857D01*
X120162857Y-42842857D01*
X121820000Y-42842857D02*
X121134285Y-42842857D01*
X121477142Y-42842857D02*
X121477142Y-41642857D01*
X121362857Y-41814285D01*
X121248571Y-41928571D01*
X121134285Y-41985714D01*
D14*
%TO.C,SERVICE*%
X101690000Y-63990000D02*
X101690000Y-69960000D01*
X114300000Y-69950000D02*
X114300000Y-69200000D01*
X105000000Y-69950000D02*
X111000000Y-69950000D01*
X103500000Y-69200000D02*
X101700000Y-69200000D01*
X114600000Y-70250000D02*
X114600000Y-69000000D01*
X102450000Y-64750000D02*
X108000000Y-64750000D01*
X113550000Y-67700000D02*
X113550000Y-66360000D01*
X108000000Y-64750000D02*
X112490000Y-64750000D01*
X111000000Y-69950000D02*
X111000000Y-69200000D01*
X112500000Y-69950000D02*
X114300000Y-69950000D01*
X114310000Y-69960000D02*
X114310000Y-63990000D01*
X101700000Y-67700000D02*
X102450000Y-67700000D01*
X112500000Y-69200000D02*
X112500000Y-69950000D01*
X114310000Y-63990000D02*
X101690000Y-63990000D01*
X105000000Y-69200000D02*
X105000000Y-69950000D01*
X103500000Y-69950000D02*
X103500000Y-69200000D01*
X111000000Y-69200000D02*
X105000000Y-69200000D01*
X102450000Y-67700000D02*
X102450000Y-64750000D01*
X114300000Y-69200000D02*
X112500000Y-69200000D01*
X101700000Y-69950000D02*
X103500000Y-69950000D01*
X114300000Y-67700000D02*
X113550000Y-67700000D01*
X113350000Y-70250000D02*
X114600000Y-70250000D01*
X101700000Y-69200000D02*
X101700000Y-69950000D01*
X101690000Y-69960000D02*
X114310000Y-69960000D01*
%TO.C,COM*%
X161250000Y-69985000D02*
X161250000Y-69235000D01*
X171250000Y-69985000D02*
X171250000Y-69235000D01*
X174560000Y-64025000D02*
X159440000Y-64025000D01*
X159440000Y-69995000D02*
X174560000Y-69995000D01*
X172750000Y-69985000D02*
X174550000Y-69985000D01*
X159450000Y-69235000D02*
X159450000Y-69985000D01*
X174550000Y-69985000D02*
X174550000Y-69235000D01*
X162750000Y-69235000D02*
X162750000Y-69985000D01*
X161250000Y-69235000D02*
X159450000Y-69235000D01*
X174550000Y-69235000D02*
X172750000Y-69235000D01*
X173800000Y-67735000D02*
X173800000Y-66395000D01*
X167000000Y-64785000D02*
X172740000Y-64785000D01*
X159450000Y-67735000D02*
X160200000Y-67735000D01*
X172750000Y-69235000D02*
X172750000Y-69985000D01*
X160200000Y-67735000D02*
X160200000Y-64785000D01*
X171250000Y-69235000D02*
X162750000Y-69235000D01*
X174850000Y-70285000D02*
X174850000Y-69035000D01*
X159450000Y-69985000D02*
X161250000Y-69985000D01*
X160200000Y-64785000D02*
X167000000Y-64785000D01*
X173600000Y-70285000D02*
X174850000Y-70285000D01*
X174550000Y-67735000D02*
X173800000Y-67735000D01*
X174560000Y-69995000D02*
X174560000Y-64025000D01*
X159440000Y-64025000D02*
X159440000Y-69995000D01*
X162750000Y-69985000D02*
X171250000Y-69985000D01*
%TO.C,JMP2*%
X72235000Y-66272936D02*
X72235000Y-66727064D01*
X70765000Y-66272936D02*
X70765000Y-66727064D01*
D15*
%TO.C,SW1*%
X70700000Y-59600000D02*
X70700000Y-62029000D01*
X70700000Y-62029000D02*
X83400000Y-62029000D01*
X70700000Y-55171000D02*
X70700000Y-57100000D01*
X83400000Y-55171000D02*
X70700000Y-55171000D01*
X83750000Y-58600000D02*
X83750000Y-58600000D01*
X83400000Y-62029000D02*
X83400000Y-59600000D01*
X83400000Y-57600000D02*
X83400000Y-55171000D01*
X83850000Y-58600000D02*
X83850000Y-58600000D01*
X83750000Y-58600000D02*
G75*
G03*
X83850000Y-58600000I50000J0D01*
G01*
X83850000Y-58600000D02*
G75*
G03*
X83750000Y-58600000I-50000J0D01*
G01*
D14*
%TO.C,KEY*%
X134910000Y-69235000D02*
X133110000Y-69235000D01*
X120610000Y-69235000D02*
X120610000Y-69985000D01*
X134910000Y-69985000D02*
X134910000Y-69235000D01*
X117310000Y-69235000D02*
X117310000Y-69985000D01*
X117300000Y-69995000D02*
X134920000Y-69995000D01*
X131610000Y-69985000D02*
X131610000Y-69235000D01*
X117300000Y-64025000D02*
X117300000Y-69995000D01*
X118060000Y-67735000D02*
X118060000Y-64785000D01*
X135210000Y-70285000D02*
X135210000Y-69035000D01*
X119110000Y-69985000D02*
X119110000Y-69235000D01*
X134160000Y-67735000D02*
X134160000Y-66395000D01*
X134920000Y-69995000D02*
X134920000Y-64025000D01*
X118060000Y-64785000D02*
X126110000Y-64785000D01*
X133110000Y-69985000D02*
X134910000Y-69985000D01*
X131610000Y-69235000D02*
X120610000Y-69235000D01*
X126110000Y-64785000D02*
X133100000Y-64785000D01*
X133960000Y-70285000D02*
X135210000Y-70285000D01*
X119110000Y-69235000D02*
X117310000Y-69235000D01*
X134920000Y-64025000D02*
X117300000Y-64025000D01*
X117310000Y-67735000D02*
X118060000Y-67735000D01*
X134910000Y-67735000D02*
X134160000Y-67735000D01*
X117310000Y-69985000D02*
X119110000Y-69985000D01*
X133110000Y-69235000D02*
X133110000Y-69985000D01*
X120610000Y-69985000D02*
X131610000Y-69985000D01*
%TO.C,JMP1*%
X157865000Y-55877064D02*
X157865000Y-55422936D01*
X159335000Y-55877064D02*
X159335000Y-55422936D01*
%TD*%
M02*
